<?xml version="1.0" encoding="UTF-8" standalone="no"?>
<!DOCTYPE svg PUBLIC "-//W3C//DTD SVG 1.1//EN"
 "http://www.w3.org/Graphics/SVG/1.1/DTD/svg11.dtd">
<!-- Generated by graphviz version 2.40.1 (20161225.0304)
 -->
<!-- Title: gocallvis Pages: 1 -->
<svg width="2588pt" height="645pt"
 viewBox="0.00 0.00 2587.92 644.80" xmlns="http://www.w3.org/2000/svg" xmlns:xlink="http://www.w3.org/1999/xlink">
<g id="graph0" class="graph" transform="scale(1 1) rotate(0) translate(0 644.8)">
<title>gocallvis</title>
<polygon fill="#d3d3d3" stroke="transparent" points="0,0 0,-644.8 2587.9186,-644.8 2587.9186,0 0,0"/>
<text text-anchor="middle" x="81.8976" y="-8.2" font-family="Arial" font-size="14.00" fill="#000000">gitee.com/Ljolan/si&#45;mqtt</text>
<g id="clust1" class="cluster">
<title>cluster_focus</title>
<polygon fill="#e6ecfa" stroke="#000000" stroke-width=".5" points="8,-32.8 8,-636.8 2579.9186,-636.8 2579.9186,-32.8 8,-32.8"/>
<text text-anchor="middle" x="1293.9593" y="-616.6" font-family="Arial" font-size="18.00" fill="#000000">authv5</text>
</g>
<g id="clust9" class="cluster">
<title>cluster_go.uber.org/zap</title>
<g id="a_clust9"><a xlink:href="/?f=go.uber.org/zap" xlink:title="package: go.uber.org/zap">
<polygon fill="#ffffe0" stroke="#000000" stroke-width=".8" points="1977.3945,-279.8 1977.3945,-461.8 2118.3945,-461.8 2118.3945,-279.8 1977.3945,-279.8"/>
<text text-anchor="middle" x="2047.8945" y="-443.4" font-family="Tahoma bold" font-size="16.00" fill="#000000">zap</text>
</a>
</g>
</g>
<g id="clust10" class="cluster">
<title>cluster_*go.uber.org/zap.SugaredLogger</title>
<g id="a_clust10"><a xlink:href="/?f=go.uber.org/zap" xlink:title="type: *go.uber.org/zap.SugaredLogger">
<path fill="#eed8ae" stroke="#000000" stroke-width=".5" d="M1997.3945,-287.8C1997.3945,-287.8 2098.3945,-287.8 2098.3945,-287.8 2104.3945,-287.8 2110.3945,-293.8 2110.3945,-299.8 2110.3945,-299.8 2110.3945,-414.8 2110.3945,-414.8 2110.3945,-420.8 2104.3945,-426.8 2098.3945,-426.8 2098.3945,-426.8 1997.3945,-426.8 1997.3945,-426.8 1991.3945,-426.8 1985.3945,-420.8 1985.3945,-414.8 1985.3945,-414.8 1985.3945,-299.8 1985.3945,-299.8 1985.3945,-293.8 1991.3945,-287.8 1997.3945,-287.8"/>
<text text-anchor="middle" x="2047.8945" y="-296.3" font-family="Tahoma bold" font-size="15.00" fill="#222222">(*SugaredLogger)</text>
</a>
</g>
</g>
<g id="clust7" class="cluster">
<title>cluster_gitee.com/Ljolan/si&#45;mqtt/corev5/servicev5</title>
<g id="a_clust7"><a xlink:href="/?f=gitee.com/Ljolan/si-mqtt/corev5/servicev5" xlink:title="package: gitee.com/Ljolan/si&#45;mqtt/corev5/servicev5">
<polygon fill="#ffffe0" stroke="#000000" stroke-width=".8" points="431,-416.8 431,-598.8 613.5913,-598.8 613.5913,-416.8 431,-416.8"/>
<text text-anchor="middle" x="522.2957" y="-580.4" font-family="Tahoma bold" font-size="16.00" fill="#000000">servicev5</text>
</a>
</g>
</g>
<g id="clust8" class="cluster">
<title>cluster_*gitee.com/Ljolan/si&#45;mqtt/corev5/servicev5.Server</title>
<g id="a_clust8"><a xlink:href="/?f=gitee.com/Ljolan/si-mqtt/corev5/servicev5" xlink:title="type: *gitee.com/Ljolan/si&#45;mqtt/corev5/servicev5.Server">
<path fill="#eed8ae" stroke="#000000" stroke-width=".5" d="M451,-424.8C451,-424.8 593.5913,-424.8 593.5913,-424.8 599.5913,-424.8 605.5913,-430.8 605.5913,-436.8 605.5913,-436.8 605.5913,-551.8 605.5913,-551.8 605.5913,-557.8 599.5913,-563.8 593.5913,-563.8 593.5913,-563.8 451,-563.8 451,-563.8 445,-563.8 439,-557.8 439,-551.8 439,-551.8 439,-436.8 439,-436.8 439,-430.8 445,-424.8 451,-424.8"/>
<text text-anchor="middle" x="522.2957" y="-433.3" font-family="Tahoma bold" font-size="15.00" fill="#222222">(*Server)</text>
</a>
</g>
</g>
<g id="clust6" class="cluster">
<title>cluster_gitee.com/Ljolan/si&#45;mqtt/corev5/cliv5</title>
<g id="a_clust6"><a xlink:href="/?f=gitee.com/Ljolan/si-mqtt/corev5/cliv5" xlink:title="package: gitee.com/Ljolan/si&#45;mqtt/corev5/cliv5">
<polygon fill="#ffffe0" stroke="#000000" stroke-width=".8" points="16,-164.8 16,-243.8 86,-243.8 86,-164.8 16,-164.8"/>
<text text-anchor="middle" x="51" y="-225.4" font-family="Tahoma bold" font-size="16.00" fill="#000000">cliv5</text>
</a>
</g>
</g>
<g id="clust5" class="cluster">
<title>cluster_gitee.com/Ljolan/si&#45;mqtt/corev5/authv5.redisAuthenticator</title>
<g id="a_clust5"><a xlink:title="type: gitee.com/Ljolan/si&#45;mqtt/corev5/authv5.redisAuthenticator">
<path fill="#b0c4de" stroke="#000000" stroke-width=".5" d="M1461.2874,-520.8C1461.2874,-520.8 1583.2064,-520.8 1583.2064,-520.8 1589.2064,-520.8 1595.2064,-526.8 1595.2064,-532.8 1595.2064,-532.8 1595.2064,-586.8 1595.2064,-586.8 1595.2064,-592.8 1589.2064,-598.8 1583.2064,-598.8 1583.2064,-598.8 1461.2874,-598.8 1461.2874,-598.8 1455.2874,-598.8 1449.2874,-592.8 1449.2874,-586.8 1449.2874,-586.8 1449.2874,-532.8 1449.2874,-532.8 1449.2874,-526.8 1455.2874,-520.8 1461.2874,-520.8"/>
<text text-anchor="middle" x="1522.2469" y="-529.3" font-family="Arial" font-size="15.00" fill="#222222">(redisAuthenticator)</text>
</a>
</g>
</g>
<g id="clust4" class="cluster">
<title>cluster_gitee.com/Ljolan/si&#45;mqtt/corev5/authv5.noAuthenticator</title>
<g id="a_clust4"><a xlink:title="type: gitee.com/Ljolan/si&#45;mqtt/corev5/authv5.noAuthenticator">
<path fill="#b0c4de" stroke="#000000" stroke-width=".5" d="M1469.2874,-434.8C1469.2874,-434.8 1576.2064,-434.8 1576.2064,-434.8 1582.2064,-434.8 1588.2064,-440.8 1588.2064,-446.8 1588.2064,-446.8 1588.2064,-500.8 1588.2064,-500.8 1588.2064,-506.8 1582.2064,-512.8 1576.2064,-512.8 1576.2064,-512.8 1469.2874,-512.8 1469.2874,-512.8 1463.2874,-512.8 1457.2874,-506.8 1457.2874,-500.8 1457.2874,-500.8 1457.2874,-446.8 1457.2874,-446.8 1457.2874,-440.8 1463.2874,-434.8 1469.2874,-434.8"/>
<text text-anchor="middle" x="1522.7469" y="-443.3" font-family="Arial" font-size="15.00" fill="#222222">(noAuthenticator)</text>
</a>
</g>
</g>
<g id="clust3" class="cluster">
<title>cluster_gitee.com/Ljolan/si&#45;mqtt/corev5/authv5.authenticator</title>
<g id="a_clust3"><a xlink:title="type: gitee.com/Ljolan/si&#45;mqtt/corev5/authv5.authenticator">
<path fill="#b0c4de" stroke="#000000" stroke-width=".5" d="M1478.2874,-348.8C1478.2874,-348.8 1566.2064,-348.8 1566.2064,-348.8 1572.2064,-348.8 1578.2064,-354.8 1578.2064,-360.8 1578.2064,-360.8 1578.2064,-414.8 1578.2064,-414.8 1578.2064,-420.8 1572.2064,-426.8 1566.2064,-426.8 1566.2064,-426.8 1478.2874,-426.8 1478.2874,-426.8 1472.2874,-426.8 1466.2874,-420.8 1466.2874,-414.8 1466.2874,-414.8 1466.2874,-360.8 1466.2874,-360.8 1466.2874,-354.8 1472.2874,-348.8 1478.2874,-348.8"/>
<text text-anchor="middle" x="1522.2469" y="-357.3" font-family="Arial" font-size="15.00" fill="#222222">(authenticator)</text>
</a>
</g>
</g>
<g id="clust2" class="cluster">
<title>cluster_*gitee.com/Ljolan/si&#45;mqtt/corev5/authv5.Manager</title>
<g id="a_clust2"><a xlink:title="type: *gitee.com/Ljolan/si&#45;mqtt/corev5/authv5.Manager">
<path fill="#b0c4de" stroke="#000000" stroke-width=".5" d="M978.9485,-424.8C978.9485,-424.8 1060.8675,-424.8 1060.8675,-424.8 1066.8675,-424.8 1072.8675,-430.8 1072.8675,-436.8 1072.8675,-436.8 1072.8675,-490.8 1072.8675,-490.8 1072.8675,-496.8 1066.8675,-502.8 1060.8675,-502.8 1060.8675,-502.8 978.9485,-502.8 978.9485,-502.8 972.9485,-502.8 966.9485,-496.8 966.9485,-490.8 966.9485,-490.8 966.9485,-436.8 966.9485,-436.8 966.9485,-430.8 972.9485,-424.8 978.9485,-424.8"/>
<text text-anchor="middle" x="1019.908" y="-433.3" font-family="Arial" font-size="15.00" fill="#222222">(*Manager)</text>
</a>
</g>
</g>
<!-- gitee.com/Ljolan/si&#45;mqtt/corev5/authv5.NewManager -->
<g id="node1" class="node">
<title>gitee.com/Ljolan/si&#45;mqtt/corev5/authv5.NewManager</title>
<ellipse fill="#add8e6" stroke="#000000" stroke-width="1.5" cx="1019.908" cy="-537.8" rx="47.6761" ry="18"/>
<text text-anchor="middle" x="1019.908" y="-533.6" font-family="Verdana" font-size="14.00" fill="#000000">NewManager</text>
</g>
<!-- gitee.com/Ljolan/si&#45;mqtt/corev5/authv5.redisCheck -->
<g id="node2" class="node">
<title>gitee.com/Ljolan/si&#45;mqtt/corev5/authv5.redisCheck</title>
<ellipse fill="#add8e6" stroke="#000000" stroke-width=".5" cx="2047.3945" cy="-572.8" rx="40.2509" ry="18"/>
<text text-anchor="middle" x="2047.3945" y="-568.6" font-family="Verdana" font-size="14.00" fill="#000000">redisCheck</text>
</g>
<!-- gitee.com/Ljolan/si&#45;mqtt/corev5/authv5.mysqlAuthInit -->
<g id="node3" class="node">
<title>gitee.com/Ljolan/si&#45;mqtt/corev5/authv5.mysqlAuthInit</title>
<ellipse fill="#add8e6" stroke="#000000" stroke-width=".5" cx="1019.908" cy="-274.8" rx="50.8818" ry="18"/>
<text text-anchor="middle" x="1019.908" y="-270.6" font-family="Verdana" font-size="14.00" fill="#000000">mysqlAuthInit</text>
</g>
<!-- gitee.com/Ljolan/si&#45;mqtt/corev5/authv5.NewMysqlAuth -->
<g id="node4" class="node">
<title>gitee.com/Ljolan/si&#45;mqtt/corev5/authv5.NewMysqlAuth</title>
<ellipse fill="#add8e6" stroke="#000000" stroke-width="1.5" cx="1522.2469" cy="-295.8" rx="55.537" ry="18"/>
<text text-anchor="middle" x="1522.2469" y="-291.6" font-family="Verdana" font-size="14.00" fill="#000000">NewMysqlAuth</text>
</g>
<!-- gitee.com/Ljolan/si&#45;mqtt/corev5/authv5.mysqlAuthInit&#45;&gt;gitee.com/Ljolan/si&#45;mqtt/corev5/authv5.NewMysqlAuth -->
<g id="edge5" class="edge">
<title>gitee.com/Ljolan/si&#45;mqtt/corev5/authv5.mysqlAuthInit&#45;&gt;gitee.com/Ljolan/si&#45;mqtt/corev5/authv5.NewMysqlAuth</title>
<path fill="none" stroke="#000000" d="M1064.3175,-283.6983C1088.5652,-287.8115 1119.1796,-291.8 1146.7246,-291.8 1146.7246,-291.8 1146.7246,-291.8 1368.7246,-291.8 1397.5677,-291.8 1429.4486,-292.5143 1456.6494,-293.3392"/>
<polygon fill="#000000" stroke="#000000" points="1456.7239,-296.8432 1466.8291,-293.6595 1456.9442,-289.8466 1456.7239,-296.8432"/>
</g>
<!-- gitee.com/Ljolan/si&#45;mqtt/corev5/authv5.Register -->
<g id="node5" class="node">
<title>gitee.com/Ljolan/si&#45;mqtt/corev5/authv5.Register</title>
<ellipse fill="#add8e6" stroke="#000000" stroke-width="1.5" cx="1522.2469" cy="-234.8" rx="30.7938" ry="18"/>
<text text-anchor="middle" x="1522.2469" y="-230.6" font-family="Verdana" font-size="14.00" fill="#000000">Register</text>
</g>
<!-- gitee.com/Ljolan/si&#45;mqtt/corev5/authv5.mysqlAuthInit&#45;&gt;gitee.com/Ljolan/si&#45;mqtt/corev5/authv5.Register -->
<g id="edge7" class="edge">
<title>gitee.com/Ljolan/si&#45;mqtt/corev5/authv5.mysqlAuthInit&#45;&gt;gitee.com/Ljolan/si&#45;mqtt/corev5/authv5.Register</title>
<path fill="none" stroke="#000000" d="M1064.3175,-265.9017C1088.5652,-261.7885 1119.1796,-257.8 1146.7246,-257.8 1146.7246,-257.8 1146.7246,-257.8 1368.7246,-257.8 1408.1925,-257.8 1452.7442,-250.2734 1483.6477,-243.8314"/>
<polygon fill="#000000" stroke="#000000" points="1484.5346,-247.2209 1493.5777,-241.7008 1483.066,-240.3766 1484.5346,-247.2209"/>
</g>
<!-- (*go.uber.org/zap.SugaredLogger).Info -->
<g id="node20" class="node">
<title>(*go.uber.org/zap.SugaredLogger).Info</title>
<ellipse fill="#ffe4b5" stroke="#000000" stroke-width="1.5" cx="2047.3945" cy="-339.8" rx="27" ry="18"/>
<text text-anchor="middle" x="2047.3945" y="-335.6" font-family="Verdana" font-size="14.00" fill="#000000">Info</text>
</g>
<!-- gitee.com/Ljolan/si&#45;mqtt/corev5/authv5.mysqlAuthInit&#45;&gt;(*go.uber.org/zap.SugaredLogger).Info -->
<g id="edge8" class="edge">
<title>gitee.com/Ljolan/si&#45;mqtt/corev5/authv5.mysqlAuthInit&#45;&gt;(*go.uber.org/zap.SugaredLogger).Info</title>
<path fill="none" stroke="#8b4513" d="M1038.5744,-291.5391C1062.0475,-310.7982 1104.4187,-339.8 1146.7246,-339.8 1146.7246,-339.8 1146.7246,-339.8 1898.7692,-339.8 1936.7384,-339.8 1980.1639,-339.8 2010.2279,-339.8"/>
<polygon fill="#8b4513" stroke="#8b4513" points="2010.2739,-343.3001 2020.2738,-339.8 2010.2738,-336.3001 2010.2739,-343.3001"/>
</g>
<!-- (*go.uber.org/zap.SugaredLogger).Infof -->
<g id="node21" class="node">
<title>(*go.uber.org/zap.SugaredLogger).Infof</title>
<ellipse fill="#ffe4b5" stroke="#000000" stroke-width="1.5" cx="2047.3945" cy="-400.8" rx="27" ry="18"/>
<text text-anchor="middle" x="2047.3945" y="-396.6" font-family="Verdana" font-size="14.00" fill="#000000">Infof</text>
</g>
<!-- gitee.com/Ljolan/si&#45;mqtt/corev5/authv5.Register&#45;&gt;(*go.uber.org/zap.SugaredLogger).Infof -->
<g id="edge6" class="edge">
<title>gitee.com/Ljolan/si&#45;mqtt/corev5/authv5.Register&#45;&gt;(*go.uber.org/zap.SugaredLogger).Infof</title>
<path fill="none" stroke="#8b4513" d="M1550.4024,-242.3499C1564.9405,-247.2771 1582.2879,-254.8608 1595.2064,-265.8 1646.6861,-309.392 1609.3125,-393.8 1676.7692,-393.8 1676.7692,-393.8 1676.7692,-393.8 1898.7692,-393.8 1936.8961,-393.8 1980.4637,-396.1269 2010.5244,-398.0975"/>
<polygon fill="#8b4513" stroke="#8b4513" points="2010.3498,-401.5936 2020.5628,-398.7753 2010.8214,-394.6095 2010.3498,-401.5936"/>
</g>
<!-- gitee.com/Ljolan/si&#45;mqtt/corev5/authv5.AuthInit -->
<g id="node6" class="node">
<title>gitee.com/Ljolan/si&#45;mqtt/corev5/authv5.AuthInit</title>
<ellipse fill="#add8e6" stroke="#000000" stroke-width="1.5" cx="522.2957" cy="-190.8" rx="31.1839" ry="18"/>
<text text-anchor="middle" x="522.2957" y="-186.6" font-family="Verdana" font-size="14.00" fill="#000000">AuthInit</text>
</g>
<!-- gitee.com/Ljolan/si&#45;mqtt/corev5/authv5.AuthInit&#45;&gt;gitee.com/Ljolan/si&#45;mqtt/corev5/authv5.mysqlAuthInit -->
<g id="edge9" class="edge">
<title>gitee.com/Ljolan/si&#45;mqtt/corev5/authv5.AuthInit&#45;&gt;gitee.com/Ljolan/si&#45;mqtt/corev5/authv5.mysqlAuthInit</title>
<path fill="none" stroke="#000000" d="M541.3089,-205.4475C568.5016,-224.8917 620.7889,-256.8 671.0913,-256.8 671.0913,-256.8 671.0913,-256.8 893.0913,-256.8 917.2928,-256.8 943.8367,-260.0532 966.3574,-263.7935"/>
<polygon fill="#000000" stroke="#000000" points="965.9476,-267.2746 976.3988,-265.5364 967.1447,-260.3777 965.9476,-267.2746"/>
</g>
<!-- gitee.com/Ljolan/si&#45;mqtt/corev5/authv5.redisAuthInit -->
<g id="node7" class="node">
<title>gitee.com/Ljolan/si&#45;mqtt/corev5/authv5.redisAuthInit</title>
<ellipse fill="#add8e6" stroke="#000000" stroke-width=".5" cx="1019.908" cy="-190.8" rx="46.9501" ry="18"/>
<text text-anchor="middle" x="1019.908" y="-186.6" font-family="Verdana" font-size="14.00" fill="#000000">redisAuthInit</text>
</g>
<!-- gitee.com/Ljolan/si&#45;mqtt/corev5/authv5.AuthInit&#45;&gt;gitee.com/Ljolan/si&#45;mqtt/corev5/authv5.redisAuthInit -->
<g id="edge13" class="edge">
<title>gitee.com/Ljolan/si&#45;mqtt/corev5/authv5.AuthInit&#45;&gt;gitee.com/Ljolan/si&#45;mqtt/corev5/authv5.redisAuthInit</title>
<path fill="none" stroke="#000000" d="M553.6463,-190.8C583.7588,-190.8 630.5342,-190.8 671.0913,-190.8 671.0913,-190.8 671.0913,-190.8 893.0913,-190.8 915.8994,-190.8 941.0147,-190.8 962.8352,-190.8"/>
<polygon fill="#000000" stroke="#000000" points="962.9323,-194.3001 972.9323,-190.8 962.9322,-187.3001 962.9323,-194.3001"/>
</g>
<!-- gitee.com/Ljolan/si&#45;mqtt/corev5/authv5.defaultAuthInit -->
<g id="node9" class="node">
<title>gitee.com/Ljolan/si&#45;mqtt/corev5/authv5.defaultAuthInit</title>
<ellipse fill="#add8e6" stroke="#000000" stroke-width=".5" cx="1019.908" cy="-113.8" rx="53.1339" ry="18"/>
<text text-anchor="middle" x="1019.908" y="-109.6" font-family="Verdana" font-size="14.00" fill="#000000">defaultAuthInit</text>
</g>
<!-- gitee.com/Ljolan/si&#45;mqtt/corev5/authv5.AuthInit&#45;&gt;gitee.com/Ljolan/si&#45;mqtt/corev5/authv5.defaultAuthInit -->
<g id="edge17" class="edge">
<title>gitee.com/Ljolan/si&#45;mqtt/corev5/authv5.AuthInit&#45;&gt;gitee.com/Ljolan/si&#45;mqtt/corev5/authv5.defaultAuthInit</title>
<path fill="none" stroke="#000000" d="M546.3963,-179.0088C575.3019,-165.9755 625.5655,-146.8 671.0913,-146.8 671.0913,-146.8 671.0913,-146.8 893.0913,-146.8 921.3844,-146.8 952.117,-139.0119 976.2416,-131.0026"/>
<polygon fill="#000000" stroke="#000000" points="977.502,-134.2703 985.8131,-127.6993 975.2184,-127.6532 977.502,-134.2703"/>
</g>
<!-- gitee.com/Ljolan/si&#45;mqtt/corev5/authv5.redisAuthInit&#45;&gt;gitee.com/Ljolan/si&#45;mqtt/corev5/authv5.Register -->
<g id="edge11" class="edge">
<title>gitee.com/Ljolan/si&#45;mqtt/corev5/authv5.redisAuthInit&#45;&gt;gitee.com/Ljolan/si&#45;mqtt/corev5/authv5.Register</title>
<path fill="none" stroke="#000000" d="M1050.2346,-204.5128C1075.5084,-214.6863 1112.7379,-226.8 1146.7246,-226.8 1146.7246,-226.8 1146.7246,-226.8 1368.7246,-226.8 1406.9706,-226.8 1450.5036,-229.3067 1481.4206,-231.5138"/>
<polygon fill="#000000" stroke="#000000" points="1481.1663,-235.0045 1491.396,-232.2468 1481.6794,-228.0233 1481.1663,-235.0045"/>
</g>
<!-- gitee.com/Ljolan/si&#45;mqtt/corev5/authv5.NewRedisAuth -->
<g id="node8" class="node">
<title>gitee.com/Ljolan/si&#45;mqtt/corev5/authv5.NewRedisAuth</title>
<ellipse fill="#add8e6" stroke="#000000" stroke-width="1.5" cx="1522.2469" cy="-146.8" rx="53.1355" ry="18"/>
<text text-anchor="middle" x="1522.2469" y="-142.6" font-family="Verdana" font-size="14.00" fill="#000000">NewRedisAuth</text>
</g>
<!-- gitee.com/Ljolan/si&#45;mqtt/corev5/authv5.redisAuthInit&#45;&gt;gitee.com/Ljolan/si&#45;mqtt/corev5/authv5.NewRedisAuth -->
<g id="edge10" class="edge">
<title>gitee.com/Ljolan/si&#45;mqtt/corev5/authv5.redisAuthInit&#45;&gt;gitee.com/Ljolan/si&#45;mqtt/corev5/authv5.NewRedisAuth</title>
<path fill="none" stroke="#000000" d="M1042.0659,-174.8903C1066.4719,-158.9616 1107.4799,-136.8 1146.7246,-136.8 1146.7246,-136.8 1146.7246,-136.8 1368.7246,-136.8 1399.0547,-136.8 1432.6841,-138.7676 1460.7183,-140.9572"/>
<polygon fill="#000000" stroke="#000000" points="1460.5274,-144.4531 1470.777,-141.7707 1461.0918,-137.4759 1460.5274,-144.4531"/>
</g>
<!-- gitee.com/Ljolan/si&#45;mqtt/corev5/authv5.redisAuthInit&#45;&gt;(*go.uber.org/zap.SugaredLogger).Info -->
<g id="edge12" class="edge">
<title>gitee.com/Ljolan/si&#45;mqtt/corev5/authv5.redisAuthInit&#45;&gt;(*go.uber.org/zap.SugaredLogger).Info</title>
<path fill="none" stroke="#8b4513" d="M1066.8837,-190.8C1090.7882,-190.8 1120.3045,-190.8 1146.7246,-190.8 1146.7246,-190.8 1146.7246,-190.8 1898.7692,-190.8 1967.0709,-190.8 2014.8729,-270.2518 2035.6934,-313.1195"/>
<polygon fill="#8b4513" stroke="#8b4513" points="2032.6422,-314.8559 2040.0646,-322.4162 2038.9769,-311.8773 2032.6422,-314.8559"/>
</g>
<!-- gitee.com/Ljolan/si&#45;mqtt/corev5/authv5.defaultAuthInit&#45;&gt;gitee.com/Ljolan/si&#45;mqtt/corev5/authv5.Register -->
<g id="edge15" class="edge">
<title>gitee.com/Ljolan/si&#45;mqtt/corev5/authv5.defaultAuthInit&#45;&gt;gitee.com/Ljolan/si&#45;mqtt/corev5/authv5.Register</title>
<path fill="none" stroke="#000000" d="M1044.5243,-129.8955C1069.2882,-144.5121 1109.0953,-163.8 1146.7246,-163.8 1146.7246,-163.8 1146.7246,-163.8 1368.7246,-163.8 1416.8932,-163.8 1466.3636,-192.9495 1495.6917,-213.8936"/>
<polygon fill="#000000" stroke="#000000" points="1493.9921,-216.9881 1504.1231,-220.0888 1498.1369,-211.3471 1493.9921,-216.9881"/>
</g>
<!-- gitee.com/Ljolan/si&#45;mqtt/corev5/authv5.NewDefaultAuth -->
<g id="node10" class="node">
<title>gitee.com/Ljolan/si&#45;mqtt/corev5/authv5.NewDefaultAuth</title>
<ellipse fill="#add8e6" stroke="#000000" stroke-width="1.5" cx="1522.2469" cy="-85.8" rx="59.0446" ry="18"/>
<text text-anchor="middle" x="1522.2469" y="-81.6" font-family="Verdana" font-size="14.00" fill="#000000">NewDefaultAuth</text>
</g>
<!-- gitee.com/Ljolan/si&#45;mqtt/corev5/authv5.defaultAuthInit&#45;&gt;gitee.com/Ljolan/si&#45;mqtt/corev5/authv5.NewDefaultAuth -->
<g id="edge14" class="edge">
<title>gitee.com/Ljolan/si&#45;mqtt/corev5/authv5.defaultAuthInit&#45;&gt;gitee.com/Ljolan/si&#45;mqtt/corev5/authv5.NewDefaultAuth</title>
<path fill="none" stroke="#000000" d="M1066.7064,-105.051C1090.5657,-101.3156 1120.095,-97.8 1146.7246,-97.8 1146.7246,-97.8 1146.7246,-97.8 1368.7246,-97.8 1397.6459,-97.8 1429.5389,-95.6571 1456.7276,-93.1825"/>
<polygon fill="#000000" stroke="#000000" points="1457.275,-96.6464 1466.9016,-92.2216 1456.6167,-89.6775 1457.275,-96.6464"/>
</g>
<!-- gitee.com/Ljolan/si&#45;mqtt/corev5/authv5.defaultAuthInit&#45;&gt;(*go.uber.org/zap.SugaredLogger).Info -->
<g id="edge16" class="edge">
<title>gitee.com/Ljolan/si&#45;mqtt/corev5/authv5.defaultAuthInit&#45;&gt;(*go.uber.org/zap.SugaredLogger).Info</title>
<path fill="none" stroke="#8b4513" d="M1037.0473,-96.3708C1059.9171,-75.0622 1102.6717,-41.8 1146.7246,-41.8 1146.7246,-41.8 1146.7246,-41.8 1898.7692,-41.8 2018.6197,-41.8 2041.8252,-237.2135 2046.3169,-311.5551"/>
<polygon fill="#8b4513" stroke="#8b4513" points="2042.8253,-311.808 2046.8531,-321.6074 2049.8154,-311.4351 2042.8253,-311.808"/>
</g>
<!-- gitee.com/Ljolan/si&#45;mqtt/corev5/authv5.checkAuth -->
<g id="node11" class="node">
<title>gitee.com/Ljolan/si&#45;mqtt/corev5/authv5.checkAuth</title>
<ellipse fill="#add8e6" stroke="#000000" stroke-width=".5" cx="2047.3945" cy="-487.8" rx="38.6111" ry="18"/>
<text text-anchor="middle" x="2047.3945" y="-483.6" font-family="Verdana" font-size="14.00" fill="#000000">checkAuth</text>
</g>
<!-- gitee.com/Ljolan/si&#45;mqtt/corev5/authv5.mysqlAuth -->
<g id="node12" class="node">
<title>gitee.com/Ljolan/si&#45;mqtt/corev5/authv5.mysqlAuth</title>
<ellipse fill="#add8e6" stroke="#000000" stroke-width=".5" cx="2532.2192" cy="-487.8" rx="39.8999" ry="18"/>
<text text-anchor="middle" x="2532.2192" y="-483.6" font-family="Verdana" font-size="14.00" fill="#000000">mysqlAuth</text>
</g>
<!-- gitee.com/Ljolan/si&#45;mqtt/corev5/authv5.checkAuth&#45;&gt;gitee.com/Ljolan/si&#45;mqtt/corev5/authv5.mysqlAuth -->
<g id="edge19" class="edge">
<title>gitee.com/Ljolan/si&#45;mqtt/corev5/authv5.checkAuth&#45;&gt;gitee.com/Ljolan/si&#45;mqtt/corev5/authv5.mysqlAuth</title>
<path fill="none" stroke="#000000" d="M2086.4595,-487.8C2116.6505,-487.8 2159.4835,-487.8 2197.0197,-487.8 2197.0197,-487.8 2197.0197,-487.8 2419.0197,-487.8 2439.7717,-487.8 2462.6636,-487.8 2482.3995,-487.8"/>
<polygon fill="#000000" stroke="#000000" points="2482.4044,-491.3001 2492.4043,-487.8 2482.4043,-484.3001 2482.4044,-491.3001"/>
</g>
<!-- (*gitee.com/Ljolan/si&#45;mqtt/corev5/authv5.Manager).Authenticate -->
<g id="node13" class="node">
<title>(*gitee.com/Ljolan/si&#45;mqtt/corev5/authv5.Manager).Authenticate</title>
<ellipse fill="#add8e6" stroke="#000000" stroke-width="1.5" cx="1019.908" cy="-476.8" rx="44.9191" ry="18"/>
<text text-anchor="middle" x="1019.908" y="-472.6" font-family="Verdana" font-size="14.00" fill="#000000">Authenticate</text>
</g>
<!-- (gitee.com/Ljolan/si&#45;mqtt/corev5/authv5.authenticator).Authenticate -->
<g id="node14" class="node">
<title>(gitee.com/Ljolan/si&#45;mqtt/corev5/authv5.authenticator).Authenticate</title>
<ellipse fill="#add8e6" stroke="#000000" stroke-width="1.5" cx="1522.2469" cy="-400.8" rx="44.9191" ry="18"/>
<text text-anchor="middle" x="1522.2469" y="-396.6" font-family="Verdana" font-size="14.00" fill="#000000">Authenticate</text>
</g>
<!-- (*gitee.com/Ljolan/si&#45;mqtt/corev5/authv5.Manager).Authenticate&#45;&gt;(gitee.com/Ljolan/si&#45;mqtt/corev5/authv5.authenticator).Authenticate -->
<g id="edge23" class="edge">
<title>(*gitee.com/Ljolan/si&#45;mqtt/corev5/authv5.Manager).Authenticate&#45;&gt;(gitee.com/Ljolan/si&#45;mqtt/corev5/authv5.authenticator).Authenticate</title>
<path fill="none" stroke="#000000" stroke-dasharray="5,2" d="M1051.5294,-463.9258C1087.4312,-449.408 1141.7089,-427.8 1146.7246,-427.8 1146.7246,-427.8 1146.7246,-427.8 1368.7246,-427.8 1404.8305,-427.8 1445.0007,-420.4665 1475.1921,-413.4434"/>
<polygon fill="#000000" stroke="#000000" points="1476.12,-416.8202 1485.028,-411.0846 1474.4875,-410.0132 1476.12,-416.8202"/>
</g>
<!-- (gitee.com/Ljolan/si&#45;mqtt/corev5/authv5.noAuthenticator).Authenticate -->
<g id="node15" class="node">
<title>(gitee.com/Ljolan/si&#45;mqtt/corev5/authv5.noAuthenticator).Authenticate</title>
<ellipse fill="#add8e6" stroke="#000000" stroke-width="1.5" cx="1522.2469" cy="-486.8" rx="44.9191" ry="18"/>
<text text-anchor="middle" x="1522.2469" y="-482.6" font-family="Verdana" font-size="14.00" fill="#000000">Authenticate</text>
</g>
<!-- (*gitee.com/Ljolan/si&#45;mqtt/corev5/authv5.Manager).Authenticate&#45;&gt;(gitee.com/Ljolan/si&#45;mqtt/corev5/authv5.noAuthenticator).Authenticate -->
<g id="edge24" class="edge">
<title>(*gitee.com/Ljolan/si&#45;mqtt/corev5/authv5.Manager).Authenticate&#45;&gt;(gitee.com/Ljolan/si&#45;mqtt/corev5/authv5.noAuthenticator).Authenticate</title>
<path fill="none" stroke="#000000" stroke-dasharray="5,2" d="M1064.4953,-479.4171C1088.7952,-480.6269 1119.4026,-481.8 1146.7246,-481.8 1146.7246,-481.8 1146.7246,-481.8 1368.7246,-481.8 1401.5249,-481.8 1438.2462,-482.9542 1467.549,-484.1535"/>
<polygon fill="#000000" stroke="#000000" points="1467.4468,-487.6522 1477.5858,-484.5778 1467.7425,-480.6585 1467.4468,-487.6522"/>
</g>
<!-- (gitee.com/Ljolan/si&#45;mqtt/corev5/authv5.redisAuthenticator).Authenticate -->
<g id="node16" class="node">
<title>(gitee.com/Ljolan/si&#45;mqtt/corev5/authv5.redisAuthenticator).Authenticate</title>
<ellipse fill="#add8e6" stroke="#000000" stroke-width="1.5" cx="1522.2469" cy="-572.8" rx="44.9191" ry="18"/>
<text text-anchor="middle" x="1522.2469" y="-568.6" font-family="Verdana" font-size="14.00" fill="#000000">Authenticate</text>
</g>
<!-- (*gitee.com/Ljolan/si&#45;mqtt/corev5/authv5.Manager).Authenticate&#45;&gt;(gitee.com/Ljolan/si&#45;mqtt/corev5/authv5.redisAuthenticator).Authenticate -->
<g id="edge25" class="edge">
<title>(*gitee.com/Ljolan/si&#45;mqtt/corev5/authv5.Manager).Authenticate&#45;&gt;(gitee.com/Ljolan/si&#45;mqtt/corev5/authv5.redisAuthenticator).Authenticate</title>
<path fill="none" stroke="#000000" stroke-dasharray="5,2" d="M1052.3945,-489.3058C1059.3541,-492.2336 1066.6027,-495.4747 1073.2246,-498.8 1107.2483,-515.8857 1108.6519,-542.8 1146.7246,-542.8 1146.7246,-542.8 1146.7246,-542.8 1368.7246,-542.8 1405.5673,-542.8 1446.4756,-551.225 1476.7938,-559.1456"/>
<polygon fill="#000000" stroke="#000000" points="1476.0823,-562.5786 1486.6485,-561.7995 1477.9026,-555.8194 1476.0823,-562.5786"/>
</g>
<!-- (gitee.com/Ljolan/si&#45;mqtt/corev5/authv5.authenticator).Authenticate&#45;&gt;gitee.com/Ljolan/si&#45;mqtt/corev5/authv5.checkAuth -->
<g id="edge20" class="edge">
<title>(gitee.com/Ljolan/si&#45;mqtt/corev5/authv5.authenticator).Authenticate&#45;&gt;gitee.com/Ljolan/si&#45;mqtt/corev5/authv5.checkAuth</title>
<path fill="none" stroke="#000000" d="M1557.0395,-412.4574C1569.3415,-417.0192 1583.1185,-422.6393 1595.2064,-428.8 1633.7237,-448.4304 1633.538,-481.8 1676.7692,-481.8 1676.7692,-481.8 1676.7692,-481.8 1898.7692,-481.8 1932.1185,-481.8 1969.6428,-483.3269 1998.6433,-484.8401"/>
<polygon fill="#000000" stroke="#000000" points="1998.7446,-488.3506 2008.9186,-485.3941 1999.1215,-481.3607 1998.7446,-488.3506"/>
</g>
<!-- (gitee.com/Ljolan/si&#45;mqtt/corev5/authv5.authenticator).Authenticate&#45;&gt;(*go.uber.org/zap.SugaredLogger).Info -->
<g id="edge21" class="edge">
<title>(gitee.com/Ljolan/si&#45;mqtt/corev5/authv5.authenticator).Authenticate&#45;&gt;(*go.uber.org/zap.SugaredLogger).Info</title>
<path fill="none" stroke="#8b4513" d="M1559.7453,-390.5989C1597.8588,-380.584 1654.3824,-366.8 1676.7692,-366.8 1676.7692,-366.8 1676.7692,-366.8 1898.7692,-366.8 1938.2983,-366.8 1982.8025,-357.44 2012.72,-349.7421"/>
<polygon fill="#8b4513" stroke="#8b4513" points="2013.8925,-353.0522 2022.6617,-347.1066 2012.0987,-346.2859 2013.8925,-353.0522"/>
</g>
<!-- (gitee.com/Ljolan/si&#45;mqtt/corev5/authv5.authenticator).Authenticate&#45;&gt;(*go.uber.org/zap.SugaredLogger).Infof -->
<g id="edge22" class="edge">
<title>(gitee.com/Ljolan/si&#45;mqtt/corev5/authv5.authenticator).Authenticate&#45;&gt;(*go.uber.org/zap.SugaredLogger).Infof</title>
<path fill="none" stroke="#8b4513" d="M1562.7296,-408.9348C1593.7937,-414.4719 1637.8164,-420.8 1676.7692,-420.8 1676.7692,-420.8 1676.7692,-420.8 1898.7692,-420.8 1937.5465,-420.8 1981.5104,-414.0303 2011.5002,-408.368"/>
<polygon fill="#8b4513" stroke="#8b4513" points="2012.346,-411.7692 2021.4938,-406.4243 2011.0095,-404.898 2012.346,-411.7692"/>
</g>
<!-- (gitee.com/Ljolan/si&#45;mqtt/corev5/authv5.redisAuthenticator).Authenticate&#45;&gt;gitee.com/Ljolan/si&#45;mqtt/corev5/authv5.redisCheck -->
<g id="edge2" class="edge">
<title>(gitee.com/Ljolan/si&#45;mqtt/corev5/authv5.redisAuthenticator).Authenticate&#45;&gt;gitee.com/Ljolan/si&#45;mqtt/corev5/authv5.redisCheck</title>
<path fill="none" stroke="#000000" d="M1567.2116,-572.8C1598.0425,-572.8 1639.8824,-572.8 1676.7692,-572.8 1676.7692,-572.8 1676.7692,-572.8 1898.7692,-572.8 1931.402,-572.8 1968.065,-572.8 1996.812,-572.8"/>
<polygon fill="#000000" stroke="#000000" points="1997.0228,-576.3001 2007.0228,-572.8 1997.0228,-569.3001 1997.0228,-576.3001"/>
</g>
<!-- (gitee.com/Ljolan/si&#45;mqtt/corev5/authv5.redisAuthenticator).Authenticate&#45;&gt;(*go.uber.org/zap.SugaredLogger).Info -->
<g id="edge3" class="edge">
<title>(gitee.com/Ljolan/si&#45;mqtt/corev5/authv5.redisAuthenticator).Authenticate&#45;&gt;(*go.uber.org/zap.SugaredLogger).Info</title>
<path fill="none" stroke="#8b4513" d="M1544.2034,-557.0571C1558.8176,-546.4551 1578.3555,-532.0425 1595.2064,-518.8 1632.3148,-489.638 1629.5733,-450.8 1676.7692,-450.8 1676.7692,-450.8 1676.7692,-450.8 1898.7692,-450.8 1948.6222,-450.8 1936.404,-399.1742 1977.3945,-370.8 1988.5184,-363.0999 2001.863,-356.6221 2013.9037,-351.612"/>
<polygon fill="#8b4513" stroke="#8b4513" points="2015.2122,-354.8584 2023.2133,-347.9134 2012.6276,-348.353 2015.2122,-354.8584"/>
</g>
<!-- (gitee.com/Ljolan/si&#45;mqtt/corev5/authv5.redisAuthenticator).Authenticate&#45;&gt;(*go.uber.org/zap.SugaredLogger).Infof -->
<g id="edge4" class="edge">
<title>(gitee.com/Ljolan/si&#45;mqtt/corev5/authv5.redisAuthenticator).Authenticate&#45;&gt;(*go.uber.org/zap.SugaredLogger).Infof</title>
<path fill="none" stroke="#8b4513" d="M1550.8258,-558.8737C1581.2832,-545.3347 1631.2851,-526.8 1676.7692,-526.8 1676.7692,-526.8 1676.7692,-526.8 1898.7692,-526.8 1956.7142,-526.8 1930.0327,-456.1838 1977.3945,-422.8 1987.3804,-415.7612 1999.7088,-410.9087 2011.2229,-407.5922"/>
<polygon fill="#8b4513" stroke="#8b4513" points="2012.2435,-410.9435 2021.0524,-405.0567 2010.4951,-404.1654 2012.2435,-410.9435"/>
</g>
<!-- gitee.com/Ljolan/si&#45;mqtt/corev5/cliv5.init#1 -->
<g id="node17" class="node">
<title>gitee.com/Ljolan/si&#45;mqtt/corev5/cliv5.init#1</title>
<ellipse fill="#ffe4b5" stroke="#000000" stroke-width=".5" cx="51" cy="-190.8" rx="27" ry="18"/>
<text text-anchor="middle" x="51" y="-186.6" font-family="Verdana" font-size="14.00" fill="#000000">init#1</text>
</g>
<!-- gitee.com/Ljolan/si&#45;mqtt/corev5/cliv5.init#1&#45;&gt;gitee.com/Ljolan/si&#45;mqtt/corev5/authv5.AuthInit -->
<g id="edge18" class="edge">
<title>gitee.com/Ljolan/si&#45;mqtt/corev5/cliv5.init#1&#45;&gt;gitee.com/Ljolan/si&#45;mqtt/corev5/authv5.AuthInit</title>
<path fill="none" stroke="#8b4513" d="M78.2992,-190.8C98.5122,-190.8 126.724,-190.8 151.5,-190.8 151.5,-190.8 151.5,-190.8 373.5,-190.8 409.7796,-190.8 451.035,-190.8 480.888,-190.8"/>
<polygon fill="#8b4513" stroke="#8b4513" points="480.945,-194.3001 490.945,-190.8 480.945,-187.3001 480.945,-194.3001"/>
</g>
<!-- (*gitee.com/Ljolan/si&#45;mqtt/corev5/servicev5.Server).checkConfiguration$1 -->
<g id="node18" class="node">
<title>(*gitee.com/Ljolan/si&#45;mqtt/corev5/servicev5.Server).checkConfiguration$1</title>
<ellipse fill="#ffe4b5" stroke="#000000" stroke-dasharray="1,5" cx="522.2957" cy="-537.8" rx="75.0919" ry="18"/>
<text text-anchor="middle" x="522.2957" y="-533.6" font-family="Verdana" font-size="14.00" fill="#000000">checkConfiguration$1</text>
</g>
<!-- (*gitee.com/Ljolan/si&#45;mqtt/corev5/servicev5.Server).checkConfiguration$1&#45;&gt;gitee.com/Ljolan/si&#45;mqtt/corev5/authv5.NewManager -->
<g id="edge1" class="edge">
<title>(*gitee.com/Ljolan/si&#45;mqtt/corev5/servicev5.Server).checkConfiguration$1&#45;&gt;gitee.com/Ljolan/si&#45;mqtt/corev5/authv5.NewManager</title>
<path fill="none" stroke="#8b4513" d="M597.61,-537.8C621.1426,-537.8 647.1962,-537.8 671.0913,-537.8 671.0913,-537.8 671.0913,-537.8 893.0913,-537.8 915.6143,-537.8 940.3872,-537.8 962.0154,-537.8"/>
<polygon fill="#8b4513" stroke="#8b4513" points="962.0333,-541.3001 972.0332,-537.8 962.0332,-534.3001 962.0333,-541.3001"/>
</g>
<!-- (*gitee.com/Ljolan/si&#45;mqtt/corev5/servicev5.Server).handleConnection -->
<g id="node19" class="node">
<title>(*gitee.com/Ljolan/si&#45;mqtt/corev5/servicev5.Server).handleConnection</title>
<ellipse fill="#ffe4b5" stroke="#000000" stroke-width=".5" cx="522.2957" cy="-476.8" rx="62.223" ry="18"/>
<text text-anchor="middle" x="522.2957" y="-472.6" font-family="Verdana" font-size="14.00" fill="#000000">handleConnection</text>
</g>
<!-- (*gitee.com/Ljolan/si&#45;mqtt/corev5/servicev5.Server).handleConnection&#45;&gt;(*gitee.com/Ljolan/si&#45;mqtt/corev5/authv5.Manager).Authenticate -->
<g id="edge26" class="edge">
<title>(*gitee.com/Ljolan/si&#45;mqtt/corev5/servicev5.Server).handleConnection&#45;&gt;(*gitee.com/Ljolan/si&#45;mqtt/corev5/authv5.Manager).Authenticate</title>
<path fill="none" stroke="#8b4513" d="M584.5561,-476.8C611.2072,-476.8 642.6755,-476.8 671.0913,-476.8 671.0913,-476.8 671.0913,-476.8 893.0913,-476.8 916.4696,-476.8 942.272,-476.8 964.4655,-476.8"/>
<polygon fill="#8b4513" stroke="#8b4513" points="964.7145,-480.3001 974.7144,-476.8 964.7144,-473.3001 964.7145,-480.3001"/>
</g>
</g>
</svg>
