<?xml version="1.0" encoding="UTF-8" standalone="no"?>
<!DOCTYPE svg PUBLIC "-//W3C//DTD SVG 1.1//EN"
 "http://www.w3.org/Graphics/SVG/1.1/DTD/svg11.dtd">
<!-- Generated by graphviz version 2.40.1 (20161225.0304)
 -->
<!-- Title: gocallvis Pages: 1 -->
<svg width="1596pt" height="503pt"
 viewBox="0.00 0.00 1596.00 502.80" xmlns="http://www.w3.org/2000/svg" xmlns:xlink="http://www.w3.org/1999/xlink">
<g id="graph0" class="graph" transform="scale(1 1) rotate(0) translate(0 502.8)">
<title>gocallvis</title>
<polygon fill="#d3d3d3" stroke="transparent" points="0,0 0,-502.8 1595.9958,-502.8 1595.9958,0 0,0"/>
<text text-anchor="middle" x="81.8976" y="-8.2" font-family="Arial" font-size="14.00" fill="#000000">gitee.com/Ljolan/si&#45;mqtt</text>
<g id="clust1" class="cluster">
<title>cluster_focus</title>
<polygon fill="#e6ecfa" stroke="#000000" stroke-width=".5" points="8,-32.8 8,-494.8 1587.9958,-494.8 1587.9958,-32.8 8,-32.8"/>
<text text-anchor="middle" x="797.9979" y="-474.6" font-family="Arial" font-size="18.00" fill="#000000">authv5</text>
</g>
<g id="clust5" class="cluster">
<title>cluster_gitee.com/Ljolan/si&#45;mqtt/corev5/authv5.redisAuthenticator</title>
<g id="a_clust5"><a xlink:title="type: gitee.com/Ljolan/si&#45;mqtt/corev5/authv5.redisAuthenticator">
<path fill="#b0c4de" stroke="#000000" stroke-width=".5" d="M502.2762,-378.8C502.2762,-378.8 624.1952,-378.8 624.1952,-378.8 630.1952,-378.8 636.1952,-384.8 636.1952,-390.8 636.1952,-390.8 636.1952,-444.8 636.1952,-444.8 636.1952,-450.8 630.1952,-456.8 624.1952,-456.8 624.1952,-456.8 502.2762,-456.8 502.2762,-456.8 496.2762,-456.8 490.2762,-450.8 490.2762,-444.8 490.2762,-444.8 490.2762,-390.8 490.2762,-390.8 490.2762,-384.8 496.2762,-378.8 502.2762,-378.8"/>
<text text-anchor="middle" x="563.2357" y="-387.3" font-family="Arial" font-size="15.00" fill="#222222">(redisAuthenticator)</text>
</a>
</g>
</g>
<g id="clust4" class="cluster">
<title>cluster_gitee.com/Ljolan/si&#45;mqtt/corev5/authv5.noAuthenticator</title>
<g id="a_clust4"><a xlink:title="type: gitee.com/Ljolan/si&#45;mqtt/corev5/authv5.noAuthenticator">
<path fill="#b0c4de" stroke="#000000" stroke-width=".5" d="M510.2762,-292.8C510.2762,-292.8 617.1952,-292.8 617.1952,-292.8 623.1952,-292.8 629.1952,-298.8 629.1952,-304.8 629.1952,-304.8 629.1952,-358.8 629.1952,-358.8 629.1952,-364.8 623.1952,-370.8 617.1952,-370.8 617.1952,-370.8 510.2762,-370.8 510.2762,-370.8 504.2762,-370.8 498.2762,-364.8 498.2762,-358.8 498.2762,-358.8 498.2762,-304.8 498.2762,-304.8 498.2762,-298.8 504.2762,-292.8 510.2762,-292.8"/>
<text text-anchor="middle" x="563.7357" y="-301.3" font-family="Arial" font-size="15.00" fill="#222222">(noAuthenticator)</text>
</a>
</g>
</g>
<g id="clust3" class="cluster">
<title>cluster_gitee.com/Ljolan/si&#45;mqtt/corev5/authv5.authenticator</title>
<g id="a_clust3"><a xlink:title="type: gitee.com/Ljolan/si&#45;mqtt/corev5/authv5.authenticator">
<path fill="#b0c4de" stroke="#000000" stroke-width=".5" d="M519.2762,-206.8C519.2762,-206.8 607.1952,-206.8 607.1952,-206.8 613.1952,-206.8 619.1952,-212.8 619.1952,-218.8 619.1952,-218.8 619.1952,-272.8 619.1952,-272.8 619.1952,-278.8 613.1952,-284.8 607.1952,-284.8 607.1952,-284.8 519.2762,-284.8 519.2762,-284.8 513.2762,-284.8 507.2762,-278.8 507.2762,-272.8 507.2762,-272.8 507.2762,-218.8 507.2762,-218.8 507.2762,-212.8 513.2762,-206.8 519.2762,-206.8"/>
<text text-anchor="middle" x="563.2357" y="-215.3" font-family="Arial" font-size="15.00" fill="#222222">(authenticator)</text>
</a>
</g>
</g>
<g id="clust2" class="cluster">
<title>cluster_*gitee.com/Ljolan/si&#45;mqtt/corev5/authv5.Manager</title>
<g id="a_clust2"><a xlink:title="type: *gitee.com/Ljolan/si&#45;mqtt/corev5/authv5.Manager">
<path fill="#b0c4de" stroke="#000000" stroke-width=".5" d="M28,-292.8C28,-292.8 109.919,-292.8 109.919,-292.8 115.919,-292.8 121.919,-298.8 121.919,-304.8 121.919,-304.8 121.919,-358.8 121.919,-358.8 121.919,-364.8 115.919,-370.8 109.919,-370.8 109.919,-370.8 28,-370.8 28,-370.8 22,-370.8 16,-364.8 16,-358.8 16,-358.8 16,-304.8 16,-304.8 16,-298.8 22,-292.8 28,-292.8"/>
<text text-anchor="middle" x="68.9595" y="-301.3" font-family="Arial" font-size="15.00" fill="#222222">(*Manager)</text>
</a>
</g>
</g>
<!-- gitee.com/Ljolan/si&#45;mqtt/corev5/authv5.mysqlAuthInit -->
<g id="node1" class="node">
<title>gitee.com/Ljolan/si&#45;mqtt/corev5/authv5.mysqlAuthInit</title>
<ellipse fill="#add8e6" stroke="#000000" stroke-width=".5" cx="563.2357" cy="-58.8" rx="50.8818" ry="18"/>
<text text-anchor="middle" x="563.2357" y="-54.6" font-family="Verdana" font-size="14.00" fill="#000000">mysqlAuthInit</text>
</g>
<!-- gitee.com/Ljolan/si&#45;mqtt/corev5/authv5.NewMysqlAuth -->
<g id="node2" class="node">
<title>gitee.com/Ljolan/si&#45;mqtt/corev5/authv5.NewMysqlAuth</title>
<ellipse fill="#add8e6" stroke="#000000" stroke-width="1.5" cx="1072.5746" cy="-58.8" rx="55.537" ry="18"/>
<text text-anchor="middle" x="1072.5746" y="-54.6" font-family="Verdana" font-size="14.00" fill="#000000">NewMysqlAuth</text>
</g>
<!-- gitee.com/Ljolan/si&#45;mqtt/corev5/authv5.mysqlAuthInit&#45;&gt;gitee.com/Ljolan/si&#45;mqtt/corev5/authv5.NewMysqlAuth -->
<g id="edge1" class="edge">
<title>gitee.com/Ljolan/si&#45;mqtt/corev5/authv5.mysqlAuthInit&#45;&gt;gitee.com/Ljolan/si&#45;mqtt/corev5/authv5.NewMysqlAuth</title>
<path fill="none" stroke="#000000" d="M614.1373,-58.8C644.3394,-58.8 683.3798,-58.8 718.0523,-58.8 718.0523,-58.8 718.0523,-58.8 940.0523,-58.8 961.7026,-58.8 985.3424,-58.8 1006.5838,-58.8"/>
<polygon fill="#000000" stroke="#000000" points="1006.7996,-62.3001 1016.7995,-58.8 1006.7995,-55.3001 1006.7996,-62.3001"/>
</g>
<!-- gitee.com/Ljolan/si&#45;mqtt/corev5/authv5.Register -->
<g id="node3" class="node">
<title>gitee.com/Ljolan/si&#45;mqtt/corev5/authv5.Register</title>
<ellipse fill="#add8e6" stroke="#000000" stroke-width="1.5" cx="1072.5746" cy="-119.8" rx="30.7938" ry="18"/>
<text text-anchor="middle" x="1072.5746" y="-115.6" font-family="Verdana" font-size="14.00" fill="#000000">Register</text>
</g>
<!-- gitee.com/Ljolan/si&#45;mqtt/corev5/authv5.mysqlAuthInit&#45;&gt;gitee.com/Ljolan/si&#45;mqtt/corev5/authv5.Register -->
<g id="edge2" class="edge">
<title>gitee.com/Ljolan/si&#45;mqtt/corev5/authv5.mysqlAuthInit&#45;&gt;gitee.com/Ljolan/si&#45;mqtt/corev5/authv5.Register</title>
<path fill="none" stroke="#000000" d="M601.3035,-70.7854C632.3849,-79.5088 677.6205,-89.8 718.0523,-89.8 718.0523,-89.8 718.0523,-89.8 940.0523,-89.8 973.4153,-89.8 1010.3629,-98.9566 1036.7512,-107.1524"/>
<polygon fill="#000000" stroke="#000000" points="1035.727,-110.4995 1046.3183,-110.2253 1037.8678,-103.8348 1035.727,-110.4995"/>
</g>
<!-- gitee.com/Ljolan/si&#45;mqtt/corev5/authv5.redisCheck -->
<g id="node4" class="node">
<title>gitee.com/Ljolan/si&#45;mqtt/corev5/authv5.redisCheck</title>
<ellipse fill="#add8e6" stroke="#000000" stroke-width=".5" cx="1072.5746" cy="-430.8" rx="40.2509" ry="18"/>
<text text-anchor="middle" x="1072.5746" y="-426.6" font-family="Verdana" font-size="14.00" fill="#000000">redisCheck</text>
</g>
<!-- gitee.com/Ljolan/si&#45;mqtt/corev5/authv5.checkAuth -->
<g id="node5" class="node">
<title>gitee.com/Ljolan/si&#45;mqtt/corev5/authv5.checkAuth</title>
<ellipse fill="#add8e6" stroke="#000000" stroke-width=".5" cx="1072.5746" cy="-302.8" rx="38.6111" ry="18"/>
<text text-anchor="middle" x="1072.5746" y="-298.6" font-family="Verdana" font-size="14.00" fill="#000000">checkAuth</text>
</g>
<!-- gitee.com/Ljolan/si&#45;mqtt/corev5/authv5.mysqlAuth -->
<g id="node6" class="node">
<title>gitee.com/Ljolan/si&#45;mqtt/corev5/authv5.mysqlAuth</title>
<ellipse fill="#add8e6" stroke="#000000" stroke-width=".5" cx="1540.2964" cy="-302.8" rx="39.8999" ry="18"/>
<text text-anchor="middle" x="1540.2964" y="-298.6" font-family="Verdana" font-size="14.00" fill="#000000">mysqlAuth</text>
</g>
<!-- gitee.com/Ljolan/si&#45;mqtt/corev5/authv5.checkAuth&#45;&gt;gitee.com/Ljolan/si&#45;mqtt/corev5/authv5.mysqlAuth -->
<g id="edge6" class="edge">
<title>gitee.com/Ljolan/si&#45;mqtt/corev5/authv5.checkAuth&#45;&gt;gitee.com/Ljolan/si&#45;mqtt/corev5/authv5.mysqlAuth</title>
<path fill="none" stroke="#000000" d="M1111.4263,-302.8C1137.8398,-302.8 1173.5769,-302.8 1205.0969,-302.8 1205.0969,-302.8 1205.0969,-302.8 1427.0969,-302.8 1447.8489,-302.8 1470.7409,-302.8 1490.4767,-302.8"/>
<polygon fill="#000000" stroke="#000000" points="1490.4816,-306.3001 1500.4816,-302.8 1490.4815,-299.3001 1490.4816,-306.3001"/>
</g>
<!-- gitee.com/Ljolan/si&#45;mqtt/corev5/authv5.AuthInit -->
<g id="node7" class="node">
<title>gitee.com/Ljolan/si&#45;mqtt/corev5/authv5.AuthInit</title>
<ellipse fill="#add8e6" stroke="#000000" stroke-width="1.5" cx="68.9595" cy="-119.8" rx="31.1839" ry="18"/>
<text text-anchor="middle" x="68.9595" y="-115.6" font-family="Verdana" font-size="14.00" fill="#000000">AuthInit</text>
</g>
<!-- gitee.com/Ljolan/si&#45;mqtt/corev5/authv5.AuthInit&#45;&gt;gitee.com/Ljolan/si&#45;mqtt/corev5/authv5.mysqlAuthInit -->
<g id="edge9" class="edge">
<title>gitee.com/Ljolan/si&#45;mqtt/corev5/authv5.AuthInit&#45;&gt;gitee.com/Ljolan/si&#45;mqtt/corev5/authv5.mysqlAuthInit</title>
<path fill="none" stroke="#000000" d="M90.3431,-106.5985C113.4123,-93.6381 151.6589,-75.8 187.419,-75.8 187.419,-75.8 187.419,-75.8 409.419,-75.8 441.9841,-75.8 478.1939,-71.989 507.2967,-67.9758"/>
<polygon fill="#000000" stroke="#000000" points="507.8705,-71.4295 517.2767,-66.5538 506.883,-64.4995 507.8705,-71.4295"/>
</g>
<!-- gitee.com/Ljolan/si&#45;mqtt/corev5/authv5.redisAuthInit -->
<g id="node8" class="node">
<title>gitee.com/Ljolan/si&#45;mqtt/corev5/authv5.redisAuthInit</title>
<ellipse fill="#add8e6" stroke="#000000" stroke-width=".5" cx="563.2357" cy="-119.8" rx="46.9501" ry="18"/>
<text text-anchor="middle" x="563.2357" y="-115.6" font-family="Verdana" font-size="14.00" fill="#000000">redisAuthInit</text>
</g>
<!-- gitee.com/Ljolan/si&#45;mqtt/corev5/authv5.AuthInit&#45;&gt;gitee.com/Ljolan/si&#45;mqtt/corev5/authv5.redisAuthInit -->
<g id="edge12" class="edge">
<title>gitee.com/Ljolan/si&#45;mqtt/corev5/authv5.AuthInit&#45;&gt;gitee.com/Ljolan/si&#45;mqtt/corev5/authv5.redisAuthInit</title>
<path fill="none" stroke="#000000" d="M100.3853,-119.8C124.2592,-119.8 157.907,-119.8 187.419,-119.8 187.419,-119.8 187.419,-119.8 409.419,-119.8 441.4079,-119.8 477.1388,-119.8 506.1056,-119.8"/>
<polygon fill="#000000" stroke="#000000" points="506.4521,-123.3001 516.4521,-119.8 506.4521,-116.3001 506.4521,-123.3001"/>
</g>
<!-- gitee.com/Ljolan/si&#45;mqtt/corev5/authv5.defaultAuthInit -->
<g id="node10" class="node">
<title>gitee.com/Ljolan/si&#45;mqtt/corev5/authv5.defaultAuthInit</title>
<ellipse fill="#add8e6" stroke="#000000" stroke-width=".5" cx="563.2357" cy="-180.8" rx="53.1339" ry="18"/>
<text text-anchor="middle" x="563.2357" y="-176.6" font-family="Verdana" font-size="14.00" fill="#000000">defaultAuthInit</text>
</g>
<!-- gitee.com/Ljolan/si&#45;mqtt/corev5/authv5.AuthInit&#45;&gt;gitee.com/Ljolan/si&#45;mqtt/corev5/authv5.defaultAuthInit -->
<g id="edge15" class="edge">
<title>gitee.com/Ljolan/si&#45;mqtt/corev5/authv5.AuthInit&#45;&gt;gitee.com/Ljolan/si&#45;mqtt/corev5/authv5.defaultAuthInit</title>
<path fill="none" stroke="#000000" d="M90.3431,-133.0015C113.4123,-145.9619 151.6589,-163.8 187.419,-163.8 187.419,-163.8 187.419,-163.8 409.419,-163.8 441.1241,-163.8 476.2838,-167.4124 504.9762,-171.3067"/>
<polygon fill="#000000" stroke="#000000" points="504.8464,-174.8228 515.2361,-172.7481 505.8203,-167.8908 504.8464,-174.8228"/>
</g>
<!-- gitee.com/Ljolan/si&#45;mqtt/corev5/authv5.redisAuthInit&#45;&gt;gitee.com/Ljolan/si&#45;mqtt/corev5/authv5.Register -->
<g id="edge11" class="edge">
<title>gitee.com/Ljolan/si&#45;mqtt/corev5/authv5.redisAuthInit&#45;&gt;gitee.com/Ljolan/si&#45;mqtt/corev5/authv5.Register</title>
<path fill="none" stroke="#000000" d="M609.9817,-119.8C640.6983,-119.8 681.7672,-119.8 718.0523,-119.8 718.0523,-119.8 718.0523,-119.8 940.0523,-119.8 970.5865,-119.8 1005.078,-119.8 1031.2175,-119.8"/>
<polygon fill="#000000" stroke="#000000" points="1031.514,-123.3001 1041.514,-119.8 1031.514,-116.3001 1031.514,-123.3001"/>
</g>
<!-- gitee.com/Ljolan/si&#45;mqtt/corev5/authv5.NewRedisAuth -->
<g id="node9" class="node">
<title>gitee.com/Ljolan/si&#45;mqtt/corev5/authv5.NewRedisAuth</title>
<ellipse fill="#add8e6" stroke="#000000" stroke-width="1.5" cx="1072.5746" cy="-180.8" rx="53.1355" ry="18"/>
<text text-anchor="middle" x="1072.5746" y="-176.6" font-family="Verdana" font-size="14.00" fill="#000000">NewRedisAuth</text>
</g>
<!-- gitee.com/Ljolan/si&#45;mqtt/corev5/authv5.redisAuthInit&#45;&gt;gitee.com/Ljolan/si&#45;mqtt/corev5/authv5.NewRedisAuth -->
<g id="edge10" class="edge">
<title>gitee.com/Ljolan/si&#45;mqtt/corev5/authv5.redisAuthInit&#45;&gt;gitee.com/Ljolan/si&#45;mqtt/corev5/authv5.NewRedisAuth</title>
<path fill="none" stroke="#000000" d="M600.4112,-130.7637C631.5466,-138.9759 677.3077,-148.8 718.0523,-148.8 718.0523,-148.8 718.0523,-148.8 940.0523,-148.8 969.6186,-148.8 1001.8849,-156.4194 1027.1762,-164.2222"/>
<polygon fill="#000000" stroke="#000000" points="1026.2656,-167.6056 1036.8566,-167.3219 1028.4003,-160.9391 1026.2656,-167.6056"/>
</g>
<!-- gitee.com/Ljolan/si&#45;mqtt/corev5/authv5.defaultAuthInit&#45;&gt;gitee.com/Ljolan/si&#45;mqtt/corev5/authv5.Register -->
<g id="edge14" class="edge">
<title>gitee.com/Ljolan/si&#45;mqtt/corev5/authv5.defaultAuthInit&#45;&gt;gitee.com/Ljolan/si&#45;mqtt/corev5/authv5.Register</title>
<path fill="none" stroke="#000000" d="M616.6099,-179.2561C646.4482,-178.521 684.3142,-177.8 718.0523,-177.8 718.0523,-177.8 718.0523,-177.8 940.0523,-177.8 950.5708,-177.8 1004.0757,-152.9613 1039.8008,-135.7933"/>
<polygon fill="#000000" stroke="#000000" points="1041.424,-138.8963 1048.9089,-131.3978 1038.3816,-132.592 1041.424,-138.8963"/>
</g>
<!-- gitee.com/Ljolan/si&#45;mqtt/corev5/authv5.NewDefaultAuth -->
<g id="node11" class="node">
<title>gitee.com/Ljolan/si&#45;mqtt/corev5/authv5.NewDefaultAuth</title>
<ellipse fill="#add8e6" stroke="#000000" stroke-width="1.5" cx="1072.5746" cy="-241.8" rx="59.0446" ry="18"/>
<text text-anchor="middle" x="1072.5746" y="-237.6" font-family="Verdana" font-size="14.00" fill="#000000">NewDefaultAuth</text>
</g>
<!-- gitee.com/Ljolan/si&#45;mqtt/corev5/authv5.defaultAuthInit&#45;&gt;gitee.com/Ljolan/si&#45;mqtt/corev5/authv5.NewDefaultAuth -->
<g id="edge13" class="edge">
<title>gitee.com/Ljolan/si&#45;mqtt/corev5/authv5.defaultAuthInit&#45;&gt;gitee.com/Ljolan/si&#45;mqtt/corev5/authv5.NewDefaultAuth</title>
<path fill="none" stroke="#000000" d="M603.4324,-192.7185C614.0992,-195.9365 625.5974,-199.455 636.1952,-202.8 672.7276,-214.3308 679.7434,-229.8 718.0523,-229.8 718.0523,-229.8 718.0523,-229.8 940.0523,-229.8 962.2888,-229.8 986.5389,-231.4965 1008.1447,-233.6137"/>
<polygon fill="#000000" stroke="#000000" points="1007.887,-237.1056 1018.1924,-234.6463 1008.6026,-230.1423 1007.887,-237.1056"/>
</g>
<!-- (*gitee.com/Ljolan/si&#45;mqtt/corev5/authv5.Manager).Authenticate -->
<g id="node12" class="node">
<title>(*gitee.com/Ljolan/si&#45;mqtt/corev5/authv5.Manager).Authenticate</title>
<ellipse fill="#add8e6" stroke="#000000" stroke-width="1.5" cx="68.9595" cy="-344.8" rx="44.9191" ry="18"/>
<text text-anchor="middle" x="68.9595" y="-340.6" font-family="Verdana" font-size="14.00" fill="#000000">Authenticate</text>
</g>
<!-- (gitee.com/Ljolan/si&#45;mqtt/corev5/authv5.authenticator).Authenticate -->
<g id="node13" class="node">
<title>(gitee.com/Ljolan/si&#45;mqtt/corev5/authv5.authenticator).Authenticate</title>
<ellipse fill="#add8e6" stroke="#000000" stroke-width="1.5" cx="563.2357" cy="-258.8" rx="44.9191" ry="18"/>
<text text-anchor="middle" x="563.2357" y="-254.6" font-family="Verdana" font-size="14.00" fill="#000000">Authenticate</text>
</g>
<!-- (*gitee.com/Ljolan/si&#45;mqtt/corev5/authv5.Manager).Authenticate&#45;&gt;(gitee.com/Ljolan/si&#45;mqtt/corev5/authv5.authenticator).Authenticate -->
<g id="edge8" class="edge">
<title>(*gitee.com/Ljolan/si&#45;mqtt/corev5/authv5.Manager).Authenticate&#45;&gt;(gitee.com/Ljolan/si&#45;mqtt/corev5/authv5.authenticator).Authenticate</title>
<path fill="none" stroke="#000000" stroke-dasharray="5,2" d="M101.1053,-332.0329C108.026,-329.1215 115.2603,-325.953 121.919,-322.8 151.7503,-308.6745 154.4125,-287.8 187.419,-287.8 187.419,-287.8 187.419,-287.8 409.419,-287.8 446.0413,-287.8 486.7322,-279.7633 517.0592,-272.1514"/>
<polygon fill="#000000" stroke="#000000" points="518.1213,-275.492 526.9258,-269.5985 516.3678,-268.7151 518.1213,-275.492"/>
</g>
<!-- (gitee.com/Ljolan/si&#45;mqtt/corev5/authv5.noAuthenticator).Authenticate -->
<g id="node14" class="node">
<title>(gitee.com/Ljolan/si&#45;mqtt/corev5/authv5.noAuthenticator).Authenticate</title>
<ellipse fill="#add8e6" stroke="#000000" stroke-width="1.5" cx="563.2357" cy="-344.8" rx="44.9191" ry="18"/>
<text text-anchor="middle" x="563.2357" y="-340.6" font-family="Verdana" font-size="14.00" fill="#000000">Authenticate</text>
</g>
<!-- (*gitee.com/Ljolan/si&#45;mqtt/corev5/authv5.Manager).Authenticate&#45;&gt;(gitee.com/Ljolan/si&#45;mqtt/corev5/authv5.noAuthenticator).Authenticate -->
<g id="edge3" class="edge">
<title>(*gitee.com/Ljolan/si&#45;mqtt/corev5/authv5.Manager).Authenticate&#45;&gt;(gitee.com/Ljolan/si&#45;mqtt/corev5/authv5.noAuthenticator).Authenticate</title>
<path fill="none" stroke="#000000" stroke-dasharray="5,2" d="M113.9604,-344.8C136.0871,-344.8 163.1513,-344.8 187.419,-344.8 187.419,-344.8 187.419,-344.8 409.419,-344.8 442.1453,-344.8 478.7883,-344.8 508.0982,-344.8"/>
<polygon fill="#000000" stroke="#000000" points="508.1412,-348.3001 518.1412,-344.8 508.1411,-341.3001 508.1412,-348.3001"/>
</g>
<!-- (gitee.com/Ljolan/si&#45;mqtt/corev5/authv5.redisAuthenticator).Authenticate -->
<g id="node15" class="node">
<title>(gitee.com/Ljolan/si&#45;mqtt/corev5/authv5.redisAuthenticator).Authenticate</title>
<ellipse fill="#add8e6" stroke="#000000" stroke-width="1.5" cx="563.2357" cy="-430.8" rx="44.9191" ry="18"/>
<text text-anchor="middle" x="563.2357" y="-426.6" font-family="Verdana" font-size="14.00" fill="#000000">Authenticate</text>
</g>
<!-- (*gitee.com/Ljolan/si&#45;mqtt/corev5/authv5.Manager).Authenticate&#45;&gt;(gitee.com/Ljolan/si&#45;mqtt/corev5/authv5.redisAuthenticator).Authenticate -->
<g id="edge5" class="edge">
<title>(*gitee.com/Ljolan/si&#45;mqtt/corev5/authv5.Manager).Authenticate&#45;&gt;(gitee.com/Ljolan/si&#45;mqtt/corev5/authv5.redisAuthenticator).Authenticate</title>
<path fill="none" stroke="#000000" stroke-dasharray="5,2" d="M88.9946,-360.9975C111.5239,-377.5365 149.8846,-400.8 187.419,-400.8 187.419,-400.8 187.419,-400.8 409.419,-400.8 446.3298,-400.8 487.3167,-409.225 517.6937,-417.1456"/>
<polygon fill="#000000" stroke="#000000" points="517.0018,-420.5838 527.5675,-419.7995 518.8188,-413.8237 517.0018,-420.5838"/>
</g>
<!-- (gitee.com/Ljolan/si&#45;mqtt/corev5/authv5.authenticator).Authenticate&#45;&gt;gitee.com/Ljolan/si&#45;mqtt/corev5/authv5.checkAuth -->
<g id="edge7" class="edge">
<title>(gitee.com/Ljolan/si&#45;mqtt/corev5/authv5.authenticator).Authenticate&#45;&gt;gitee.com/Ljolan/si&#45;mqtt/corev5/authv5.checkAuth</title>
<path fill="none" stroke="#000000" d="M606.8864,-263.5608C637.8691,-266.5337 680.4631,-269.8 718.0523,-269.8 718.0523,-269.8 718.0523,-269.8 940.0523,-269.8 972.2191,-269.8 1007.511,-279.0681 1033.5817,-287.7809"/>
<polygon fill="#000000" stroke="#000000" points="1032.5015,-291.1107 1043.0963,-291.0725 1034.7902,-284.4954 1032.5015,-291.1107"/>
</g>
<!-- (gitee.com/Ljolan/si&#45;mqtt/corev5/authv5.redisAuthenticator).Authenticate&#45;&gt;gitee.com/Ljolan/si&#45;mqtt/corev5/authv5.redisCheck -->
<g id="edge4" class="edge">
<title>(gitee.com/Ljolan/si&#45;mqtt/corev5/authv5.redisAuthenticator).Authenticate&#45;&gt;gitee.com/Ljolan/si&#45;mqtt/corev5/authv5.redisCheck</title>
<path fill="none" stroke="#000000" d="M608.286,-430.8C639.1756,-430.8 681.0952,-430.8 718.0523,-430.8 718.0523,-430.8 718.0523,-430.8 940.0523,-430.8 967.1291,-430.8 997.3178,-430.8 1022.0348,-430.8"/>
<polygon fill="#000000" stroke="#000000" points="1022.2678,-434.3001 1032.2677,-430.8 1022.2677,-427.3001 1022.2678,-434.3001"/>
</g>
</g>
</svg>
