<?xml version="1.0" encoding="UTF-8" standalone="no"?>
<!DOCTYPE svg PUBLIC "-//W3C//DTD SVG 1.1//EN"
 "http://www.w3.org/Graphics/SVG/1.1/DTD/svg11.dtd">
<!-- Generated by graphviz version 2.40.1 (20161225.0304)
 -->
<!-- Title: gocallvis Pages: 1 -->
<svg width="2305pt" height="1241pt"
 viewBox="0.00 0.00 2304.82 1240.80" xmlns="http://www.w3.org/2000/svg" xmlns:xlink="http://www.w3.org/1999/xlink">
<g id="graph0" class="graph" transform="scale(1 1) rotate(0) translate(0 1240.8)">
<title>gocallvis</title>
<polygon fill="#d3d3d3" stroke="transparent" points="0,0 0,-1240.8 2304.8157,-1240.8 2304.8157,0 0,0"/>
<text text-anchor="middle" x="81.8976" y="-8.2" font-family="Arial" font-size="14.00" fill="#000000">gitee.com/Ljolan/si&#45;mqtt</text>
<g id="clust1" class="cluster">
<title>cluster_focus</title>
<polygon fill="#e6ecfa" stroke="#000000" stroke-width=".5" points="8,-32.8 8,-1232.8 2296.8157,-1232.8 2296.8157,-32.8 8,-32.8"/>
<text text-anchor="middle" x="1152.4079" y="-1212.6" font-family="Arial" font-size="18.00" fill="#000000">cliv5</text>
</g>
<g id="clust13" class="cluster">
<title>cluster_golang.org/x/net/websocket</title>
<g id="a_clust13"><a xlink:href="/?f=golang.org/x/net/websocket" xlink:title="package: golang.org/x/net/websocket">
<polygon fill="#ffffe0" stroke="#000000" stroke-width=".8" points="2141.413,-457.8 2141.413,-811.8 2288.8157,-811.8 2288.8157,-457.8 2141.413,-457.8"/>
<text text-anchor="middle" x="2215.1144" y="-793.4" font-family="Tahoma bold" font-size="16.00" fill="#000000">websocket</text>
</a>
</g>
</g>
<g id="clust16" class="cluster">
<title>cluster_golang.org/x/net/websocket.Server</title>
<g id="a_clust16"><a xlink:href="/?f=golang.org/x/net/websocket" xlink:title="type: golang.org/x/net/websocket.Server">
<path fill="#eed8ae" stroke="#000000" stroke-width=".5" d="M2161.413,-698.8C2161.413,-698.8 2268.8157,-698.8 2268.8157,-698.8 2274.8157,-698.8 2280.8157,-704.8 2280.8157,-710.8 2280.8157,-710.8 2280.8157,-764.8 2280.8157,-764.8 2280.8157,-770.8 2274.8157,-776.8 2268.8157,-776.8 2268.8157,-776.8 2161.413,-776.8 2161.413,-776.8 2155.413,-776.8 2149.413,-770.8 2149.413,-764.8 2149.413,-764.8 2149.413,-710.8 2149.413,-710.8 2149.413,-704.8 2155.413,-698.8 2161.413,-698.8"/>
<text text-anchor="middle" x="2215.1144" y="-707.3" font-family="Tahoma bold" font-size="15.00" fill="#222222">(Server)</text>
</a>
</g>
</g>
<g id="clust15" class="cluster">
<title>cluster_golang.org/x/net/websocket.Codec</title>
<g id="a_clust15"><a xlink:href="/?f=golang.org/x/net/websocket" xlink:title="type: golang.org/x/net/websocket.Codec">
<path fill="#eed8ae" stroke="#000000" stroke-width=".5" d="M2189.1033,-551.8C2189.1033,-551.8 2241.1255,-551.8 2241.1255,-551.8 2247.1255,-551.8 2253.1255,-557.8 2253.1255,-563.8 2253.1255,-563.8 2253.1255,-678.8 2253.1255,-678.8 2253.1255,-684.8 2247.1255,-690.8 2241.1255,-690.8 2241.1255,-690.8 2189.1033,-690.8 2189.1033,-690.8 2183.1033,-690.8 2177.1033,-684.8 2177.1033,-678.8 2177.1033,-678.8 2177.1033,-563.8 2177.1033,-563.8 2177.1033,-557.8 2183.1033,-551.8 2189.1033,-551.8"/>
<text text-anchor="middle" x="2215.1144" y="-560.3" font-family="Tahoma bold" font-size="15.00" fill="#222222">(Codec)</text>
</a>
</g>
</g>
<g id="clust14" class="cluster">
<title>cluster_*golang.org/x/net/websocket.Conn</title>
<g id="a_clust14"><a xlink:href="/?f=golang.org/x/net/websocket" xlink:title="type: *golang.org/x/net/websocket.Conn">
<path fill="#eed8ae" stroke="#000000" stroke-width=".5" d="M2192.1144,-465.8C2192.1144,-465.8 2238.1144,-465.8 2238.1144,-465.8 2244.1144,-465.8 2250.1144,-471.8 2250.1144,-477.8 2250.1144,-477.8 2250.1144,-531.8 2250.1144,-531.8 2250.1144,-537.8 2244.1144,-543.8 2238.1144,-543.8 2238.1144,-543.8 2192.1144,-543.8 2192.1144,-543.8 2186.1144,-543.8 2180.1144,-537.8 2180.1144,-531.8 2180.1144,-531.8 2180.1144,-477.8 2180.1144,-477.8 2180.1144,-471.8 2186.1144,-465.8 2192.1144,-465.8"/>
<text text-anchor="middle" x="2215.1144" y="-474.3" font-family="Tahoma bold" font-size="15.00" fill="#222222">(*Conn)</text>
</a>
</g>
</g>
<g id="clust11" class="cluster">
<title>cluster_go.uber.org/zap</title>
<g id="a_clust11"><a xlink:href="/?f=go.uber.org/zap" xlink:title="package: go.uber.org/zap">
<polygon fill="#ffffe0" stroke="#000000" stroke-width=".8" points="1655.4608,-717.8 1655.4608,-960.8 1796.4608,-960.8 1796.4608,-717.8 1655.4608,-717.8"/>
<text text-anchor="middle" x="1725.9608" y="-942.4" font-family="Tahoma bold" font-size="16.00" fill="#000000">zap</text>
</a>
</g>
</g>
<g id="clust12" class="cluster">
<title>cluster_*go.uber.org/zap.SugaredLogger</title>
<g id="a_clust12"><a xlink:href="/?f=go.uber.org/zap" xlink:title="type: *go.uber.org/zap.SugaredLogger">
<path fill="#eed8ae" stroke="#000000" stroke-width=".5" d="M1675.4608,-725.8C1675.4608,-725.8 1776.4608,-725.8 1776.4608,-725.8 1782.4608,-725.8 1788.4608,-731.8 1788.4608,-737.8 1788.4608,-737.8 1788.4608,-913.8 1788.4608,-913.8 1788.4608,-919.8 1782.4608,-925.8 1776.4608,-925.8 1776.4608,-925.8 1675.4608,-925.8 1675.4608,-925.8 1669.4608,-925.8 1663.4608,-919.8 1663.4608,-913.8 1663.4608,-913.8 1663.4608,-737.8 1663.4608,-737.8 1663.4608,-731.8 1669.4608,-725.8 1675.4608,-725.8"/>
<text text-anchor="middle" x="1725.9608" y="-734.3" font-family="Tahoma bold" font-size="15.00" fill="#222222">(*SugaredLogger)</text>
</a>
</g>
</g>
<g id="clust10" class="cluster">
<title>cluster_gitee.com/Ljolan/si&#45;mqtt/utils</title>
<g id="a_clust10"><a xlink:href="/?f=gitee.com/Ljolan/si-mqtt/utils" xlink:title="package: gitee.com/Ljolan/si&#45;mqtt/utils">
<polygon fill="#ffffe0" stroke="#000000" stroke-width=".8" points="1135.4883,-301.8 1135.4883,-380.8 1228.2405,-380.8 1228.2405,-301.8 1135.4883,-301.8"/>
<text text-anchor="middle" x="1181.8644" y="-362.4" font-family="Tahoma bold" font-size="16.00" fill="#000000">utils</text>
</a>
</g>
</g>
<g id="clust9" class="cluster">
<title>cluster_gitee.com/Ljolan/si&#45;mqtt/corev5/topicsv5</title>
<g id="a_clust9"><a xlink:href="/?f=gitee.com/Ljolan/si-mqtt/corev5/topicsv5" xlink:title="package: gitee.com/Ljolan/si&#45;mqtt/corev5/topicsv5">
<polygon fill="#ffffe0" stroke="#000000" stroke-width=".8" points="1139.8881,-214.8 1139.8881,-293.8 1223.8407,-293.8 1223.8407,-214.8 1139.8881,-214.8"/>
<text text-anchor="middle" x="1181.8644" y="-275.4" font-family="Tahoma bold" font-size="16.00" fill="#000000">topicsv5</text>
</a>
</g>
</g>
<g id="clust8" class="cluster">
<title>cluster_gitee.com/Ljolan/si&#45;mqtt/corev5/sessionsv5</title>
<g id="a_clust8"><a xlink:href="/?f=gitee.com/Ljolan/si-mqtt/corev5/sessionsv5" xlink:title="package: gitee.com/Ljolan/si&#45;mqtt/corev5/sessionsv5">
<polygon fill="#ffffe0" stroke="#000000" stroke-width=".8" points="1134.1673,-127.8 1134.1673,-206.8 1229.5614,-206.8 1229.5614,-127.8 1134.1673,-127.8"/>
<text text-anchor="middle" x="1181.8644" y="-188.4" font-family="Tahoma bold" font-size="16.00" fill="#000000">sessionsv5</text>
</a>
</g>
</g>
<g id="clust6" class="cluster">
<title>cluster_gitee.com/Ljolan/si&#45;mqtt/corev5/servicev5</title>
<g id="a_clust6"><a xlink:href="/?f=gitee.com/Ljolan/si-mqtt/corev5/servicev5" xlink:title="package: gitee.com/Ljolan/si&#45;mqtt/corev5/servicev5">
<polygon fill="#ffffe0" stroke="#000000" stroke-width=".8" points="1653.5086,-1012.8 1653.5086,-1194.8 1797.413,-1194.8 1797.413,-1012.8 1653.5086,-1012.8"/>
<text text-anchor="middle" x="1725.4608" y="-1176.4" font-family="Tahoma bold" font-size="16.00" fill="#000000">servicev5</text>
</a>
</g>
</g>
<g id="clust7" class="cluster">
<title>cluster_*gitee.com/Ljolan/si&#45;mqtt/corev5/servicev5.Server</title>
<g id="a_clust7"><a xlink:href="/?f=gitee.com/Ljolan/si-mqtt/corev5/servicev5" xlink:title="type: *gitee.com/Ljolan/si&#45;mqtt/corev5/servicev5.Server">
<path fill="#eed8ae" stroke="#000000" stroke-width=".5" d="M1673.5086,-1020.8C1673.5086,-1020.8 1777.413,-1020.8 1777.413,-1020.8 1783.413,-1020.8 1789.413,-1026.8 1789.413,-1032.8 1789.413,-1032.8 1789.413,-1147.8 1789.413,-1147.8 1789.413,-1153.8 1783.413,-1159.8 1777.413,-1159.8 1777.413,-1159.8 1673.5086,-1159.8 1673.5086,-1159.8 1667.5086,-1159.8 1661.5086,-1153.8 1661.5086,-1147.8 1661.5086,-1147.8 1661.5086,-1032.8 1661.5086,-1032.8 1661.5086,-1026.8 1667.5086,-1020.8 1673.5086,-1020.8"/>
<text text-anchor="middle" x="1725.4608" y="-1029.3" font-family="Tahoma bold" font-size="15.00" fill="#222222">(*Server)</text>
</a>
</g>
</g>
<g id="clust5" class="cluster">
<title>cluster_gitee.com/Ljolan/si&#45;mqtt/corev5/authv5/authplus</title>
<g id="a_clust5"><a xlink:href="/?f=gitee.com/Ljolan/si-mqtt/corev5/authv5/authplus" xlink:title="package: gitee.com/Ljolan/si&#45;mqtt/corev5/authv5/authplus">
<polygon fill="#ffffe0" stroke="#000000" stroke-width=".8" points="1128.8882,-40.8 1128.8882,-119.8 1234.8405,-119.8 1234.8405,-40.8 1128.8882,-40.8"/>
<text text-anchor="middle" x="1181.8644" y="-101.4" font-family="Tahoma bold" font-size="16.00" fill="#000000">authplus</text>
</a>
</g>
</g>
<g id="clust4" class="cluster">
<title>cluster_gitee.com/Ljolan/si&#45;mqtt/corev5/authv5</title>
<g id="a_clust4"><a xlink:href="/?f=gitee.com/Ljolan/si-mqtt/corev5/authv5" xlink:title="package: gitee.com/Ljolan/si&#45;mqtt/corev5/authv5">
<polygon fill="#ffffe0" stroke="#000000" stroke-width=".8" points="1142.5228,-536.8 1142.5228,-615.8 1221.2059,-615.8 1221.2059,-536.8 1142.5228,-536.8"/>
<text text-anchor="middle" x="1181.8644" y="-597.4" font-family="Tahoma bold" font-size="16.00" fill="#000000">authv5</text>
</a>
</g>
</g>
<g id="clust3" class="cluster">
<title>cluster_gitee.com/Ljolan/si&#45;mqtt/config</title>
<g id="a_clust3"><a xlink:href="/?f=gitee.com/Ljolan/si-mqtt/config" xlink:title="package: gitee.com/Ljolan/si&#45;mqtt/config">
<polygon fill="#ffffe0" stroke="#000000" stroke-width=".8" points="1135.9307,-388.8 1135.9307,-528.8 1227.7981,-528.8 1227.7981,-388.8 1135.9307,-388.8"/>
<text text-anchor="middle" x="1181.8644" y="-510.4" font-family="Tahoma bold" font-size="16.00" fill="#000000">config</text>
</a>
</g>
</g>
<g id="clust2" class="cluster">
<title>cluster_gitee.com/Ljolan/si&#45;mqtt</title>
<g id="a_clust2"><a xlink:href="/?f=gitee.com/Ljolan/si-mqtt" xlink:title="package: gitee.com/Ljolan/si&#45;mqtt">
<polygon fill="#ffffe0" stroke="#000000" stroke-width=".8" points="67.715,-940.8 67.715,-1019.8 137.715,-1019.8 137.715,-940.8 67.715,-940.8"/>
<text text-anchor="middle" x="102.715" y="-1001.4" font-family="Tahoma bold" font-size="16.00" fill="#000000">main</text>
</a>
</g>
</g>
<!-- gitee.com/Ljolan/si&#45;mqtt/corev5/cliv5.WebsocketTcpProxy -->
<g id="node1" class="node">
<title>gitee.com/Ljolan/si&#45;mqtt/corev5/cliv5.WebsocketTcpProxy</title>
<ellipse fill="#add8e6" stroke="#000000" stroke-width="1.5" cx="629.325" cy="-693.8" rx="70.7904" ry="18"/>
<text text-anchor="middle" x="629.325" y="-689.6" font-family="Verdana" font-size="14.00" fill="#000000">WebsocketTcpProxy</text>
</g>
<!-- gitee.com/Ljolan/si&#45;mqtt/corev5/cliv5.WebsocketTcpProxy$1 -->
<g id="node3" class="node">
<title>gitee.com/Ljolan/si&#45;mqtt/corev5/cliv5.WebsocketTcpProxy$1</title>
<ellipse fill="#add8e6" stroke="#000000" stroke-dasharray="1,5" cx="1181.8644" cy="-729.8" rx="78.62" ry="18"/>
<text text-anchor="middle" x="1181.8644" y="-725.6" font-family="Verdana" font-size="14.00" fill="#000000">WebsocketTcpProxy$1</text>
</g>
<!-- gitee.com/Ljolan/si&#45;mqtt/corev5/cliv5.WebsocketTcpProxy&#45;&gt;gitee.com/Ljolan/si&#45;mqtt/corev5/cliv5.WebsocketTcpProxy$1 -->
<g id="edge4" class="edge">
<title>gitee.com/Ljolan/si&#45;mqtt/corev5/cliv5.WebsocketTcpProxy&#45;&gt;gitee.com/Ljolan/si&#45;mqtt/corev5/cliv5.WebsocketTcpProxy$1</title>
<path fill="none" stroke="#000000" d="M686.0209,-704.7423C712.551,-708.9658 744.6428,-712.8 773.7202,-712.8 773.7202,-712.8 773.7202,-712.8 995.7202,-712.8 1026.7034,-712.8 1060.4678,-715.1646 1090.6292,-718.1301"/>
<polygon fill="#000000" stroke="#000000" points="1103.61,-723.028 1113.9236,-720.6034 1104.3491,-716.0671 1103.61,-723.028"/>
<polyline fill="none" stroke="#000000" points="1103.9795,-719.5475 1099.0075,-719.0196 "/>
<ellipse fill="none" stroke="#000000" cx="1095.0298" cy="-718.5973" rx="4" ry="4"/>
</g>
<!-- gitee.com/Ljolan/si&#45;mqtt/corev5/cliv5.WebsocketTcpProxy$2 -->
<g id="node5" class="node">
<title>gitee.com/Ljolan/si&#45;mqtt/corev5/cliv5.WebsocketTcpProxy$2</title>
<ellipse fill="#add8e6" stroke="#000000" stroke-dasharray="1,5" cx="1181.8644" cy="-668.8" rx="78.62" ry="18"/>
<text text-anchor="middle" x="1181.8644" y="-664.6" font-family="Verdana" font-size="14.00" fill="#000000">WebsocketTcpProxy$2</text>
</g>
<!-- gitee.com/Ljolan/si&#45;mqtt/corev5/cliv5.WebsocketTcpProxy&#45;&gt;gitee.com/Ljolan/si&#45;mqtt/corev5/cliv5.WebsocketTcpProxy$2 -->
<g id="edge7" class="edge">
<title>gitee.com/Ljolan/si&#45;mqtt/corev5/cliv5.WebsocketTcpProxy&#45;&gt;gitee.com/Ljolan/si&#45;mqtt/corev5/cliv5.WebsocketTcpProxy$2</title>
<path fill="none" stroke="#000000" d="M688.154,-683.7146C714.2774,-680.0539 745.4494,-676.8 773.7202,-676.8 773.7202,-676.8 773.7202,-676.8 995.7202,-676.8 1023.8819,-676.8 1054.4181,-675.8747 1082.4565,-674.6535"/>
<polygon fill="#000000" stroke="#000000" points="1095.9975,-677.5157 1105.8206,-673.5461 1095.666,-670.5235 1095.9975,-677.5157"/>
<polyline fill="none" stroke="#000000" points="1095.8318,-674.0196 1090.8374,-674.2563 "/>
<ellipse fill="none" stroke="#000000" cx="1086.8419" cy="-674.4457" rx="4" ry="4"/>
</g>
<!-- (*golang.org/x/net/websocket.Conn).Close -->
<g id="node30" class="node">
<title>(*golang.org/x/net/websocket.Conn).Close</title>
<ellipse fill="#ffe4b5" stroke="#000000" stroke-width="1.5" cx="2215.1144" cy="-517.8" rx="27" ry="18"/>
<text text-anchor="middle" x="2215.1144" y="-513.6" font-family="Verdana" font-size="14.00" fill="#000000">Close</text>
</g>
<!-- gitee.com/Ljolan/si&#45;mqtt/corev5/cliv5.WebsocketTcpProxy&#45;&gt;(*golang.org/x/net/websocket.Conn).Close -->
<g id="edge1" class="edge">
<title>gitee.com/Ljolan/si&#45;mqtt/corev5/cliv5.WebsocketTcpProxy&#45;&gt;(*golang.org/x/net/websocket.Conn).Close</title>
<path fill="none" stroke="#8b4513" d="M650.3266,-676.3884C677.177,-655.9477 725.9322,-624.8 773.7202,-624.8 773.7202,-624.8 773.7202,-624.8 1032.7202,-624.8 1149.0918,-624.8 1178.4492,-628.3187 1294.5086,-619.8 1454.9371,-608.0246 1493.5256,-590.5742 1653.5086,-573.8 1729.5253,-565.8296 1748.4796,-559.8 1824.913,-559.8 1824.913,-559.8 1824.913,-559.8 2083.913,-559.8 2100.21,-559.8 2136.3374,-547.8974 2166.5634,-536.7649"/>
<polygon fill="#8b4513" stroke="#8b4513" points="2183.8217,-533.9469 2191.9247,-527.1212 2181.3337,-527.404 2183.8217,-533.9469"/>
<polyline fill="none" stroke="#8b4513" points="2182.5777,-530.6754 2177.9042,-532.4526 "/>
<polygon fill="none" stroke="#8b4513" points="2166.6877,-536.7177 2170.8742,-530.8463 2177.9042,-532.4526 2173.7176,-538.3239 2166.6877,-536.7177"/>
</g>
<!-- gitee.com/Ljolan/si&#45;mqtt/corev5/cliv5.io_ws_copy -->
<g id="node2" class="node">
<title>gitee.com/Ljolan/si&#45;mqtt/corev5/cliv5.io_ws_copy</title>
<ellipse fill="#add8e6" stroke="#000000" stroke-width=".5" cx="1725.4608" cy="-664.8" rx="42.5435" ry="18"/>
<text text-anchor="middle" x="1725.4608" y="-660.6" font-family="Verdana" font-size="14.00" fill="#000000">io_ws_copy</text>
</g>
<!-- (golang.org/x/net/websocket.Codec).Send -->
<g id="node31" class="node">
<title>(golang.org/x/net/websocket.Codec).Send</title>
<ellipse fill="#ffe4b5" stroke="#000000" stroke-width="1.5" cx="2215.1144" cy="-664.8" rx="27" ry="18"/>
<text text-anchor="middle" x="2215.1144" y="-660.6" font-family="Verdana" font-size="14.00" fill="#000000">Send</text>
</g>
<!-- gitee.com/Ljolan/si&#45;mqtt/corev5/cliv5.io_ws_copy&#45;&gt;(golang.org/x/net/websocket.Codec).Send -->
<g id="edge2" class="edge">
<title>gitee.com/Ljolan/si&#45;mqtt/corev5/cliv5.io_ws_copy&#45;&gt;(golang.org/x/net/websocket.Codec).Send</title>
<path fill="none" stroke="#8b4513" d="M1768.48,-664.8C1795.3415,-664.8 1830.6427,-664.8 1861.913,-664.8 1861.913,-664.8 1861.913,-664.8 2083.913,-664.8 2115.5442,-664.8 2151.465,-664.8 2177.714,-664.8"/>
<polygon fill="#8b4513" stroke="#8b4513" points="2177.9764,-668.3001 2187.9763,-664.8 2177.9763,-661.3001 2177.9764,-668.3001"/>
</g>
<!-- gitee.com/Ljolan/si&#45;mqtt/corev5/cliv5.WebsocketTcpProxy$1&#45;&gt;gitee.com/Ljolan/si&#45;mqtt/corev5/cliv5.io_ws_copy -->
<g id="edge3" class="edge">
<title>gitee.com/Ljolan/si&#45;mqtt/corev5/cliv5.WebsocketTcpProxy$1&#45;&gt;gitee.com/Ljolan/si&#45;mqtt/corev5/cliv5.io_ws_copy</title>
<path fill="none" stroke="#000000" d="M1233.0689,-715.9193C1278.7212,-704.0249 1342.1974,-688.8 1368.0086,-688.8 1368.0086,-688.8 1368.0086,-688.8 1590.0086,-688.8 1620.1581,-688.8 1653.5115,-682.9637 1679.5772,-677.0472"/>
<polygon fill="#000000" stroke="#000000" points="1680.6155,-680.3985 1689.5475,-674.7003 1679.0115,-673.5847 1680.6155,-680.3985"/>
</g>
<!-- gitee.com/Ljolan/si&#45;mqtt/corev5/cliv5.io_copy_ws -->
<g id="node4" class="node">
<title>gitee.com/Ljolan/si&#45;mqtt/corev5/cliv5.io_copy_ws</title>
<ellipse fill="#add8e6" stroke="#000000" stroke-width=".5" cx="1725.4608" cy="-603.8" rx="42.5435" ry="18"/>
<text text-anchor="middle" x="1725.4608" y="-599.6" font-family="Verdana" font-size="14.00" fill="#000000">io_copy_ws</text>
</g>
<!-- (golang.org/x/net/websocket.Codec).Receive -->
<g id="node32" class="node">
<title>(golang.org/x/net/websocket.Codec).Receive</title>
<ellipse fill="#ffe4b5" stroke="#000000" stroke-width="1.5" cx="2215.1144" cy="-603.8" rx="30.0222" ry="18"/>
<text text-anchor="middle" x="2215.1144" y="-599.6" font-family="Verdana" font-size="14.00" fill="#000000">Receive</text>
</g>
<!-- gitee.com/Ljolan/si&#45;mqtt/corev5/cliv5.io_copy_ws&#45;&gt;(golang.org/x/net/websocket.Codec).Receive -->
<g id="edge5" class="edge">
<title>gitee.com/Ljolan/si&#45;mqtt/corev5/cliv5.io_copy_ws&#45;&gt;(golang.org/x/net/websocket.Codec).Receive</title>
<path fill="none" stroke="#8b4513" d="M1768.48,-603.8C1795.3415,-603.8 1830.6427,-603.8 1861.913,-603.8 1861.913,-603.8 1861.913,-603.8 2083.913,-603.8 2114.343,-603.8 2148.743,-603.8 2174.6826,-603.8"/>
<polygon fill="#8b4513" stroke="#8b4513" points="2174.89,-607.3001 2184.8899,-603.8 2174.8899,-600.3001 2174.89,-607.3001"/>
</g>
<!-- gitee.com/Ljolan/si&#45;mqtt/corev5/cliv5.WebsocketTcpProxy$2&#45;&gt;gitee.com/Ljolan/si&#45;mqtt/corev5/cliv5.io_copy_ws -->
<g id="edge6" class="edge">
<title>gitee.com/Ljolan/si&#45;mqtt/corev5/cliv5.WebsocketTcpProxy$2&#45;&gt;gitee.com/Ljolan/si&#45;mqtt/corev5/cliv5.io_copy_ws</title>
<path fill="none" stroke="#000000" d="M1257.9082,-664.0539C1291.6228,-662.3313 1331.7805,-660.8 1368.0086,-660.8 1368.0086,-660.8 1368.0086,-660.8 1590.0086,-660.8 1592.6105,-660.8 1646.9252,-637.6428 1685.9732,-620.8488"/>
<polygon fill="#000000" stroke="#000000" points="1687.7299,-623.9031 1695.531,-616.7342 1684.9619,-617.4736 1687.7299,-623.9031"/>
</g>
<!-- gitee.com/Ljolan/si&#45;mqtt/corev5/cliv5.AddWebsocketHandler$1 -->
<g id="node6" class="node">
<title>gitee.com/Ljolan/si&#45;mqtt/corev5/cliv5.AddWebsocketHandler$1</title>
<ellipse fill="#add8e6" stroke="#000000" stroke-dasharray="1,5" cx="102.715" cy="-710.8" rx="86.9305" ry="18"/>
<text text-anchor="middle" x="102.715" y="-706.6" font-family="Verdana" font-size="14.00" fill="#000000">AddWebsocketHandler$1</text>
</g>
<!-- gitee.com/Ljolan/si&#45;mqtt/corev5/cliv5.AddWebsocketHandler$1&#45;&gt;gitee.com/Ljolan/si&#45;mqtt/corev5/cliv5.WebsocketTcpProxy -->
<g id="edge8" class="edge">
<title>gitee.com/Ljolan/si&#45;mqtt/corev5/cliv5.AddWebsocketHandler$1&#45;&gt;gitee.com/Ljolan/si&#45;mqtt/corev5/cliv5.WebsocketTcpProxy</title>
<path fill="none" stroke="#000000" d="M184.1707,-704.4516C209.3994,-702.9624 237.2997,-701.8 262.9299,-701.8 262.9299,-701.8 262.9299,-701.8 484.9299,-701.8 506.496,-701.8 529.8462,-700.8993 551.3552,-699.7024"/>
<polygon fill="#000000" stroke="#000000" points="551.6429,-703.1917 561.4215,-699.1139 551.2342,-696.2036 551.6429,-703.1917"/>
</g>
<!-- gitee.com/Ljolan/si&#45;mqtt/corev5/cliv5.init#1 -->
<g id="node7" class="node">
<title>gitee.com/Ljolan/si&#45;mqtt/corev5/cliv5.init#1</title>
<ellipse fill="#add8e6" stroke="#000000" stroke-width=".5" cx="629.325" cy="-327.8" rx="27" ry="18"/>
<text text-anchor="middle" x="629.325" y="-323.6" font-family="Verdana" font-size="14.00" fill="#000000">init#1</text>
</g>
<!-- gitee.com/Ljolan/si&#45;mqtt/config.Configure -->
<g id="node18" class="node">
<title>gitee.com/Ljolan/si&#45;mqtt/config.Configure</title>
<ellipse fill="#ffe4b5" stroke="#000000" stroke-width="1.5" cx="1181.8644" cy="-414.8" rx="36.7258" ry="18"/>
<text text-anchor="middle" x="1181.8644" y="-410.6" font-family="Verdana" font-size="14.00" fill="#000000">Configure</text>
</g>
<!-- gitee.com/Ljolan/si&#45;mqtt/corev5/cliv5.init#1&#45;&gt;gitee.com/Ljolan/si&#45;mqtt/config.Configure -->
<g id="edge10" class="edge">
<title>gitee.com/Ljolan/si&#45;mqtt/corev5/cliv5.init#1&#45;&gt;gitee.com/Ljolan/si&#45;mqtt/config.Configure</title>
<path fill="none" stroke="#8b4513" d="M648.4621,-340.7342C675.2512,-357.5516 726.0167,-384.8 773.7202,-384.8 773.7202,-384.8 773.7202,-384.8 995.7202,-384.8 1045.5381,-384.8 1101.9112,-395.4028 1139.4384,-404.0018"/>
<polygon fill="#8b4513" stroke="#8b4513" points="1138.967,-407.4861 1149.5021,-406.3635 1140.5663,-400.6713 1138.967,-407.4861"/>
</g>
<!-- gitee.com/Ljolan/si&#45;mqtt/config.GetConfig -->
<g id="node19" class="node">
<title>gitee.com/Ljolan/si&#45;mqtt/config.GetConfig</title>
<ellipse fill="#ffe4b5" stroke="#000000" stroke-width="1.5" cx="1181.8644" cy="-475.8" rx="37.8675" ry="18"/>
<text text-anchor="middle" x="1181.8644" y="-471.6" font-family="Verdana" font-size="14.00" fill="#000000">GetConfig</text>
</g>
<!-- gitee.com/Ljolan/si&#45;mqtt/corev5/cliv5.init#1&#45;&gt;gitee.com/Ljolan/si&#45;mqtt/config.GetConfig -->
<g id="edge12" class="edge">
<title>gitee.com/Ljolan/si&#45;mqtt/corev5/cliv5.init#1&#45;&gt;gitee.com/Ljolan/si&#45;mqtt/config.GetConfig</title>
<path fill="none" stroke="#8b4513" d="M639.6539,-344.9162C660.5804,-377.1835 711.3375,-443.8 773.7202,-443.8 773.7202,-443.8 773.7202,-443.8 995.7202,-443.8 1045.3251,-443.8 1101.3049,-454.9742 1138.8035,-464.1164"/>
<polygon fill="#8b4513" stroke="#8b4513" points="1138.3193,-467.6029 1148.8693,-466.6301 1140.0153,-460.8114 1138.3193,-467.6029"/>
</g>
<!-- gitee.com/Ljolan/si&#45;mqtt/corev5/authv5.AuthInit -->
<g id="node20" class="node">
<title>gitee.com/Ljolan/si&#45;mqtt/corev5/authv5.AuthInit</title>
<ellipse fill="#ffe4b5" stroke="#000000" stroke-width="1.5" cx="1181.8644" cy="-562.8" rx="31.1839" ry="18"/>
<text text-anchor="middle" x="1181.8644" y="-558.6" font-family="Verdana" font-size="14.00" fill="#000000">AuthInit</text>
</g>
<!-- gitee.com/Ljolan/si&#45;mqtt/corev5/cliv5.init#1&#45;&gt;gitee.com/Ljolan/si&#45;mqtt/corev5/authv5.AuthInit -->
<g id="edge13" class="edge">
<title>gitee.com/Ljolan/si&#45;mqtt/corev5/cliv5.init#1&#45;&gt;gitee.com/Ljolan/si&#45;mqtt/corev5/authv5.AuthInit</title>
<path fill="none" stroke="#8b4513" d="M632.9389,-345.9924C644.07,-396.1636 682.7367,-532.8 773.7202,-532.8 773.7202,-532.8 773.7202,-532.8 995.7202,-532.8 1047.1837,-532.8 1105.6427,-544.1149 1143.0947,-552.8469"/>
<polygon fill="#8b4513" stroke="#8b4513" points="1142.5384,-556.3124 1153.0778,-555.2297 1144.1636,-549.5036 1142.5384,-556.3124"/>
</g>
<!-- gitee.com/Ljolan/si&#45;mqtt/corev5/authv5/authplus.InitAuthPlus -->
<g id="node21" class="node">
<title>gitee.com/Ljolan/si&#45;mqtt/corev5/authv5/authplus.InitAuthPlus</title>
<ellipse fill="#ffe4b5" stroke="#000000" stroke-width="1.5" cx="1181.8644" cy="-66.8" rx="44.9523" ry="18"/>
<text text-anchor="middle" x="1181.8644" y="-62.6" font-family="Verdana" font-size="14.00" fill="#000000">InitAuthPlus</text>
</g>
<!-- gitee.com/Ljolan/si&#45;mqtt/corev5/cliv5.init#1&#45;&gt;gitee.com/Ljolan/si&#45;mqtt/corev5/authv5/authplus.InitAuthPlus -->
<g id="edge14" class="edge">
<title>gitee.com/Ljolan/si&#45;mqtt/corev5/cliv5.init#1&#45;&gt;gitee.com/Ljolan/si&#45;mqtt/corev5/authv5/authplus.InitAuthPlus</title>
<path fill="none" stroke="#8b4513" d="M631.5198,-309.5197C639.3257,-253.7891 671.0202,-89.8 773.7202,-89.8 773.7202,-89.8 773.7202,-89.8 995.7202,-89.8 1041.8546,-89.8 1093.9385,-82.7553 1131.256,-76.4635"/>
<polygon fill="#8b4513" stroke="#8b4513" points="1132.1147,-79.867 1141.3727,-74.7153 1130.9227,-72.9693 1132.1147,-79.867"/>
</g>
<!-- gitee.com/Ljolan/si&#45;mqtt/corev5/sessionsv5.SessionInit -->
<g id="node24" class="node">
<title>gitee.com/Ljolan/si&#45;mqtt/corev5/sessionsv5.SessionInit</title>
<ellipse fill="#ffe4b5" stroke="#000000" stroke-width="1.5" cx="1181.8644" cy="-153.8" rx="39.8951" ry="18"/>
<text text-anchor="middle" x="1181.8644" y="-149.6" font-family="Verdana" font-size="14.00" fill="#000000">SessionInit</text>
</g>
<!-- gitee.com/Ljolan/si&#45;mqtt/corev5/cliv5.init#1&#45;&gt;gitee.com/Ljolan/si&#45;mqtt/corev5/sessionsv5.SessionInit -->
<g id="edge15" class="edge">
<title>gitee.com/Ljolan/si&#45;mqtt/corev5/cliv5.init#1&#45;&gt;gitee.com/Ljolan/si&#45;mqtt/corev5/sessionsv5.SessionInit</title>
<path fill="none" stroke="#8b4513" d="M638.9935,-310.7203C659.2873,-277.3666 709.7786,-206.8 773.7202,-206.8 773.7202,-206.8 773.7202,-206.8 995.7202,-206.8 1049.0816,-206.8 1107.8717,-186.404 1144.8201,-170.9172"/>
<polygon fill="#8b4513" stroke="#8b4513" points="1146.3723,-174.0599 1154.1827,-166.9011 1143.6127,-167.6268 1146.3723,-174.0599"/>
</g>
<!-- gitee.com/Ljolan/si&#45;mqtt/corev5/topicsv5.TopicInit -->
<g id="node25" class="node">
<title>gitee.com/Ljolan/si&#45;mqtt/corev5/topicsv5.TopicInit</title>
<ellipse fill="#ffe4b5" stroke="#000000" stroke-width="1.5" cx="1181.8644" cy="-240.8" rx="33.9527" ry="18"/>
<text text-anchor="middle" x="1181.8644" y="-236.6" font-family="Verdana" font-size="14.00" fill="#000000">TopicInit</text>
</g>
<!-- gitee.com/Ljolan/si&#45;mqtt/corev5/cliv5.init#1&#45;&gt;gitee.com/Ljolan/si&#45;mqtt/corev5/topicsv5.TopicInit -->
<g id="edge16" class="edge">
<title>gitee.com/Ljolan/si&#45;mqtt/corev5/cliv5.init#1&#45;&gt;gitee.com/Ljolan/si&#45;mqtt/corev5/topicsv5.TopicInit</title>
<path fill="none" stroke="#8b4513" d="M650.101,-315.9385C677.5045,-301.4368 727.6577,-278.8 773.7202,-278.8 773.7202,-278.8 773.7202,-278.8 995.7202,-278.8 1047.4252,-278.8 1105.6061,-264.551 1142.9439,-253.5038"/>
<polygon fill="#8b4513" stroke="#8b4513" points="1144.3442,-256.7367 1152.8996,-250.4873 1142.3144,-250.0375 1144.3442,-256.7367"/>
</g>
<!-- gitee.com/Ljolan/si&#45;mqtt/utils.MustPanic -->
<g id="node26" class="node">
<title>gitee.com/Ljolan/si&#45;mqtt/utils.MustPanic</title>
<ellipse fill="#ffe4b5" stroke="#000000" stroke-width="1.5" cx="1181.8644" cy="-327.8" rx="38.2526" ry="18"/>
<text text-anchor="middle" x="1181.8644" y="-323.6" font-family="Verdana" font-size="14.00" fill="#000000">MustPanic</text>
</g>
<!-- gitee.com/Ljolan/si&#45;mqtt/corev5/cliv5.init#1&#45;&gt;gitee.com/Ljolan/si&#45;mqtt/utils.MustPanic -->
<g id="edge11" class="edge">
<title>gitee.com/Ljolan/si&#45;mqtt/corev5/cliv5.init#1&#45;&gt;gitee.com/Ljolan/si&#45;mqtt/utils.MustPanic</title>
<path fill="none" stroke="#8b4513" d="M656.4703,-327.8C685.4922,-327.8 732.8583,-327.8 773.7202,-327.8 773.7202,-327.8 773.7202,-327.8 995.7202,-327.8 1042.3926,-327.8 1095.6475,-327.8 1133.2038,-327.8"/>
<polygon fill="#8b4513" stroke="#8b4513" points="1133.3618,-331.3001 1143.3618,-327.8 1133.3618,-324.3001 1133.3618,-331.3001"/>
</g>
<!-- gitee.com/Ljolan/si&#45;mqtt/corev5/cliv5.init -->
<g id="node8" class="node">
<title>gitee.com/Ljolan/si&#45;mqtt/corev5/cliv5.init</title>
<ellipse fill="#add8e6" stroke="#000000" stroke-width=".5" cx="102.715" cy="-327.8" rx="27" ry="18"/>
<text text-anchor="middle" x="102.715" y="-323.6" font-family="Verdana" font-size="14.00" fill="#000000">init</text>
</g>
<!-- gitee.com/Ljolan/si&#45;mqtt/corev5/cliv5.init&#45;&gt;gitee.com/Ljolan/si&#45;mqtt/corev5/cliv5.init#1 -->
<g id="edge17" class="edge">
<title>gitee.com/Ljolan/si&#45;mqtt/corev5/cliv5.init&#45;&gt;gitee.com/Ljolan/si&#45;mqtt/corev5/cliv5.init#1</title>
<path fill="none" stroke="#000000" d="M129.9292,-327.8C161.8047,-327.8 216.2006,-327.8 262.9299,-327.8 262.9299,-327.8 262.9299,-327.8 484.9299,-327.8 521.3225,-327.8 562.8744,-327.8 592.0311,-327.8"/>
<polygon fill="#000000" stroke="#000000" points="592.1798,-331.3001 602.1797,-327.8 592.1797,-324.3001 592.1798,-331.3001"/>
</g>
<!-- gitee.com/Ljolan/si&#45;mqtt/corev5/cliv5.Run -->
<g id="node9" class="node">
<title>gitee.com/Ljolan/si&#45;mqtt/corev5/cliv5.Run</title>
<ellipse fill="#add8e6" stroke="#000000" stroke-width="1.5" cx="629.325" cy="-966.8" rx="27" ry="18"/>
<text text-anchor="middle" x="629.325" y="-962.6" font-family="Verdana" font-size="14.00" fill="#000000">Run</text>
</g>
<!-- gitee.com/Ljolan/si&#45;mqtt/corev5/cliv5.Run$1 -->
<g id="node10" class="node">
<title>gitee.com/Ljolan/si&#45;mqtt/corev5/cliv5.Run$1</title>
<ellipse fill="#add8e6" stroke="#000000" stroke-dasharray="1,5" cx="1181.8644" cy="-905.8" rx="27" ry="18"/>
<text text-anchor="middle" x="1181.8644" y="-901.6" font-family="Verdana" font-size="14.00" fill="#000000">Run$1</text>
</g>
<!-- gitee.com/Ljolan/si&#45;mqtt/corev5/cliv5.Run&#45;&gt;gitee.com/Ljolan/si&#45;mqtt/corev5/cliv5.Run$1 -->
<g id="edge20" class="edge">
<title>gitee.com/Ljolan/si&#45;mqtt/corev5/cliv5.Run&#45;&gt;gitee.com/Ljolan/si&#45;mqtt/corev5/cliv5.Run$1</title>
<path fill="none" stroke="#000000" d="M651.2028,-955.6969C678.9572,-942.6623 728.6448,-922.8 773.7202,-922.8 773.7202,-922.8 773.7202,-922.8 995.7202,-922.8 1042.2369,-922.8 1095.0224,-917.47 1132.4721,-912.7789"/>
<polygon fill="#000000" stroke="#000000" points="1145.9693,-914.5241 1155.4239,-909.7429 1145.0513,-907.5845 1145.9693,-914.5241"/>
<polyline fill="none" stroke="#000000" points="1145.5103,-911.0543 1140.5535,-911.71 "/>
<ellipse fill="none" stroke="#000000" cx="1136.588" cy="-912.2346" rx="4" ry="4"/>
</g>
<!-- gitee.com/Ljolan/si&#45;mqtt/corev5/cliv5.Run$2 -->
<g id="node11" class="node">
<title>gitee.com/Ljolan/si&#45;mqtt/corev5/cliv5.Run$2</title>
<ellipse fill="#add8e6" stroke="#000000" stroke-dasharray="1,5" cx="1181.8644" cy="-966.8" rx="27" ry="18"/>
<text text-anchor="middle" x="1181.8644" y="-962.6" font-family="Verdana" font-size="14.00" fill="#000000">Run$2</text>
</g>
<!-- gitee.com/Ljolan/si&#45;mqtt/corev5/cliv5.Run&#45;&gt;gitee.com/Ljolan/si&#45;mqtt/corev5/cliv5.Run$2 -->
<g id="edge25" class="edge">
<title>gitee.com/Ljolan/si&#45;mqtt/corev5/cliv5.Run&#45;&gt;gitee.com/Ljolan/si&#45;mqtt/corev5/cliv5.Run$2</title>
<path fill="none" stroke="#000000" d="M656.4703,-966.8C685.4922,-966.8 732.8583,-966.8 773.7202,-966.8 773.7202,-966.8 773.7202,-966.8 995.7202,-966.8 1041.7809,-966.8 1094.2528,-966.8 1131.7193,-966.8"/>
<polygon fill="#000000" stroke="#000000" points="1144.7362,-970.3 1154.7362,-966.8 1144.7362,-963.3 1144.7362,-970.3"/>
<polyline fill="none" stroke="#000000" points="1144.7362,-966.8 1139.7362,-966.8001 "/>
<ellipse fill="none" stroke="#000000" cx="1135.7362" cy="-966.8001" rx="4" ry="4"/>
</g>
<!-- gitee.com/Ljolan/si&#45;mqtt/corev5/cliv5.BuffConfigInit -->
<g id="node13" class="node">
<title>gitee.com/Ljolan/si&#45;mqtt/corev5/cliv5.BuffConfigInit</title>
<ellipse fill="#add8e6" stroke="#000000" stroke-width="1.5" cx="1181.8644" cy="-1027.8" rx="52.0072" ry="18"/>
<text text-anchor="middle" x="1181.8644" y="-1023.6" font-family="Verdana" font-size="14.00" fill="#000000">BuffConfigInit</text>
</g>
<!-- gitee.com/Ljolan/si&#45;mqtt/corev5/cliv5.Run&#45;&gt;gitee.com/Ljolan/si&#45;mqtt/corev5/cliv5.BuffConfigInit -->
<g id="edge26" class="edge">
<title>gitee.com/Ljolan/si&#45;mqtt/corev5/cliv5.Run&#45;&gt;gitee.com/Ljolan/si&#45;mqtt/corev5/cliv5.BuffConfigInit</title>
<path fill="none" stroke="#000000" d="M651.2028,-977.9031C678.9572,-990.9377 728.6448,-1010.8 773.7202,-1010.8 773.7202,-1010.8 773.7202,-1010.8 995.7202,-1010.8 1038.5824,-1010.8 1086.767,-1015.3254 1123.372,-1019.7065"/>
<polygon fill="#000000" stroke="#000000" points="1123.0234,-1023.1899 1133.3753,-1020.9345 1123.8763,-1016.242 1123.0234,-1023.1899"/>
</g>
<!-- gitee.com/Ljolan/si&#45;mqtt/corev5/cliv5.AddWebsocketHandler -->
<g id="node14" class="node">
<title>gitee.com/Ljolan/si&#45;mqtt/corev5/cliv5.AddWebsocketHandler</title>
<ellipse fill="#add8e6" stroke="#000000" stroke-width="1.5" cx="1181.8644" cy="-844.8" rx="78.6011" ry="18"/>
<text text-anchor="middle" x="1181.8644" y="-840.6" font-family="Verdana" font-size="14.00" fill="#000000">AddWebsocketHandler</text>
</g>
<!-- gitee.com/Ljolan/si&#45;mqtt/corev5/cliv5.Run&#45;&gt;gitee.com/Ljolan/si&#45;mqtt/corev5/cliv5.AddWebsocketHandler -->
<g id="edge29" class="edge">
<title>gitee.com/Ljolan/si&#45;mqtt/corev5/cliv5.Run&#45;&gt;gitee.com/Ljolan/si&#45;mqtt/corev5/cliv5.AddWebsocketHandler</title>
<path fill="none" stroke="#000000" d="M640.168,-949.9415C661.6135,-918.8896 712.6943,-855.8 773.7202,-855.8 773.7202,-855.8 773.7202,-855.8 995.7202,-855.8 1029.1675,-855.8 1065.9367,-854.0083 1097.8984,-851.8711"/>
<polygon fill="#000000" stroke="#000000" points="1098.3612,-855.3476 1108.0963,-851.1669 1097.879,-848.3642 1098.3612,-855.3476"/>
</g>
<!-- gitee.com/Ljolan/si&#45;mqtt/corev5/cliv5.ListenAndServeWebsocket -->
<g id="node15" class="node">
<title>gitee.com/Ljolan/si&#45;mqtt/corev5/cliv5.ListenAndServeWebsocket</title>
<ellipse fill="#add8e6" stroke="#000000" stroke-width="1.5" cx="1181.8644" cy="-1115.8" rx="91.2249" ry="18"/>
<text text-anchor="middle" x="1181.8644" y="-1111.6" font-family="Verdana" font-size="14.00" fill="#000000">ListenAndServeWebsocket</text>
</g>
<!-- gitee.com/Ljolan/si&#45;mqtt/corev5/cliv5.Run&#45;&gt;gitee.com/Ljolan/si&#45;mqtt/corev5/cliv5.ListenAndServeWebsocket -->
<g id="edge31" class="edge">
<title>gitee.com/Ljolan/si&#45;mqtt/corev5/cliv5.Run&#45;&gt;gitee.com/Ljolan/si&#45;mqtt/corev5/cliv5.ListenAndServeWebsocket</title>
<path fill="none" stroke="#000000" d="M637.1415,-984.248C655.2804,-1021.7775 704.0608,-1106.8 773.7202,-1106.8 773.7202,-1106.8 773.7202,-1106.8 995.7202,-1106.8 1020.6116,-1106.8 1047.3535,-1107.6128 1072.5857,-1108.7499"/>
<polygon fill="#000000" stroke="#000000" points="1085.5578,-1112.8976 1095.719,-1109.8973 1085.9046,-1105.9062 1085.5578,-1112.8976"/>
<polyline fill="none" stroke="#000000" points="1085.7312,-1109.4019 1080.7374,-1109.1542 "/>
<ellipse fill="none" stroke="#000000" cx="1076.7423" cy="-1108.956" rx="4" ry="4"/>
</g>
<!-- gitee.com/Ljolan/si&#45;mqtt/corev5/cliv5.ListenAndServeWebsocketSecure -->
<g id="node16" class="node">
<title>gitee.com/Ljolan/si&#45;mqtt/corev5/cliv5.ListenAndServeWebsocketSecure</title>
<ellipse fill="#add8e6" stroke="#000000" stroke-width="1.5" cx="1181.8644" cy="-1176.8" rx="112.7886" ry="18"/>
<text text-anchor="middle" x="1181.8644" y="-1172.6" font-family="Verdana" font-size="14.00" fill="#000000">ListenAndServeWebsocketSecure</text>
</g>
<!-- gitee.com/Ljolan/si&#45;mqtt/corev5/cliv5.Run&#45;&gt;gitee.com/Ljolan/si&#45;mqtt/corev5/cliv5.ListenAndServeWebsocketSecure -->
<g id="edge32" class="edge">
<title>gitee.com/Ljolan/si&#45;mqtt/corev5/cliv5.Run&#45;&gt;gitee.com/Ljolan/si&#45;mqtt/corev5/cliv5.ListenAndServeWebsocketSecure</title>
<path fill="none" stroke="#000000" d="M633.807,-984.8262C646.6991,-1031.8811 688.5294,-1154.8 773.7202,-1154.8 773.7202,-1154.8 773.7202,-1154.8 995.7202,-1154.8 1023.7988,-1154.8 1054.0962,-1157.2993 1081.9268,-1160.6131"/>
<polygon fill="#000000" stroke="#000000" points="1094.7573,-1165.8063 1105.1244,-1163.6215 1095.6576,-1158.8644 1094.7573,-1165.8063"/>
<polyline fill="none" stroke="#000000" points="1095.2074,-1162.3353 1090.2489,-1161.6923 "/>
<ellipse fill="none" stroke="#000000" cx="1086.2822" cy="-1161.1778" rx="4" ry="4"/>
</g>
<!-- gitee.com/Ljolan/si&#45;mqtt/corev5/cliv5.Run&#45;&gt;gitee.com/Ljolan/si&#45;mqtt/config.GetConfig -->
<g id="edge18" class="edge">
<title>gitee.com/Ljolan/si&#45;mqtt/corev5/cliv5.Run&#45;&gt;gitee.com/Ljolan/si&#45;mqtt/config.GetConfig</title>
<path fill="none" stroke="#8b4513" d="M634.4511,-948.8542C648.5217,-903.8557 692.224,-789.8 773.7202,-789.8 773.7202,-789.8 773.7202,-789.8 995.7202,-789.8 1115.3767,-789.8 992.4517,-622.5839 1069.2202,-530.8 1086.9351,-509.6201 1114.759,-495.9246 1138.3205,-487.4972"/>
<polygon fill="#8b4513" stroke="#8b4513" points="1139.7538,-490.7078 1148.1155,-484.2015 1137.5214,-484.0733 1139.7538,-490.7078"/>
</g>
<!-- (*gitee.com/Ljolan/si&#45;mqtt/corev5/servicev5.Server).ListenAndServe -->
<g id="node23" class="node">
<title>(*gitee.com/Ljolan/si&#45;mqtt/corev5/servicev5.Server).ListenAndServe</title>
<ellipse fill="#ffe4b5" stroke="#000000" stroke-width="1.5" cx="1725.4608" cy="-1133.8" rx="55.9045" ry="18"/>
<text text-anchor="middle" x="1725.4608" y="-1129.6" font-family="Verdana" font-size="14.00" fill="#000000">ListenAndServe</text>
</g>
<!-- gitee.com/Ljolan/si&#45;mqtt/corev5/cliv5.Run&#45;&gt;(*gitee.com/Ljolan/si&#45;mqtt/corev5/servicev5.Server).ListenAndServe -->
<g id="edge30" class="edge">
<title>gitee.com/Ljolan/si&#45;mqtt/corev5/cliv5.Run&#45;&gt;(*gitee.com/Ljolan/si&#45;mqtt/corev5/servicev5.Server).ListenAndServe</title>
<path fill="none" stroke="#8b4513" d="M640.7283,-983.2063C662.742,-1012.7375 714.2083,-1071.8 773.7202,-1071.8 773.7202,-1071.8 773.7202,-1071.8 1590.0086,-1071.8 1621.6119,-1071.8 1624.7943,-1090.5994 1653.5086,-1103.8 1662.2701,-1107.8278 1671.7281,-1111.9375 1680.8164,-1115.7714"/>
<polygon fill="#8b4513" stroke="#8b4513" points="1679.5322,-1119.028 1690.1087,-1119.6519 1682.2297,-1112.5686 1679.5322,-1119.028"/>
</g>
<!-- (*go.uber.org/zap.SugaredLogger).Errorf -->
<g id="node29" class="node">
<title>(*go.uber.org/zap.SugaredLogger).Errorf</title>
<ellipse fill="#ffe4b5" stroke="#000000" stroke-width="1.5" cx="1725.4608" cy="-777.8" rx="27" ry="18"/>
<text text-anchor="middle" x="1725.4608" y="-773.6" font-family="Verdana" font-size="14.00" fill="#000000">Errorf</text>
</g>
<!-- gitee.com/Ljolan/si&#45;mqtt/corev5/cliv5.Run&#45;&gt;(*go.uber.org/zap.SugaredLogger).Errorf -->
<g id="edge33" class="edge">
<title>gitee.com/Ljolan/si&#45;mqtt/corev5/cliv5.Run&#45;&gt;(*go.uber.org/zap.SugaredLogger).Errorf</title>
<path fill="none" stroke="#8b4513" d="M636.2683,-949.2995C653.2492,-909.7312 700.884,-816.8 773.7202,-816.8 773.7202,-816.8 773.7202,-816.8 995.7202,-816.8 1070.3135,-816.8 1256.4153,-800.8 1331.0086,-800.8 1331.0086,-800.8 1331.0086,-800.8 1590.0086,-800.8 1624.484,-800.8 1663.2075,-793.4685 1690.3928,-787.084"/>
<polygon fill="#8b4513" stroke="#8b4513" points="1691.3214,-790.4603 1700.214,-784.7008 1689.6706,-783.6578 1691.3214,-790.4603"/>
</g>
<!-- (*go.uber.org/zap.SugaredLogger).Info -->
<g id="node27" class="node">
<title>(*go.uber.org/zap.SugaredLogger).Info</title>
<ellipse fill="#ffe4b5" stroke="#000000" stroke-width="1.5" cx="1725.4608" cy="-838.8" rx="27" ry="18"/>
<text text-anchor="middle" x="1725.4608" y="-834.6" font-family="Verdana" font-size="14.00" fill="#000000">Info</text>
</g>
<!-- gitee.com/Ljolan/si&#45;mqtt/corev5/cliv5.Run$1&#45;&gt;(*go.uber.org/zap.SugaredLogger).Info -->
<g id="edge19" class="edge">
<title>gitee.com/Ljolan/si&#45;mqtt/corev5/cliv5.Run$1&#45;&gt;(*go.uber.org/zap.SugaredLogger).Info</title>
<path fill="none" stroke="#8b4513" d="M1208.9903,-906.511C1245.2305,-907.3981 1311.447,-908.8 1368.0086,-908.8 1368.0086,-908.8 1368.0086,-908.8 1590.0086,-908.8 1623.1287,-908.8 1624.749,-886.2263 1653.5086,-869.8 1665.6241,-862.8801 1679.5828,-856.5285 1691.9623,-851.4008"/>
<polygon fill="#8b4513" stroke="#8b4513" points="1693.5191,-854.547 1701.4865,-847.5634 1690.903,-848.0542 1693.5191,-854.547"/>
</g>
<!-- gitee.com/Ljolan/si&#45;mqtt/corev5/cliv5.Run$2$1 -->
<g id="node12" class="node">
<title>gitee.com/Ljolan/si&#45;mqtt/corev5/cliv5.Run$2$1</title>
<ellipse fill="#add8e6" stroke="#000000" stroke-dasharray="1,5" cx="1725.4608" cy="-986.8" rx="33.59" ry="18"/>
<text text-anchor="middle" x="1725.4608" y="-982.6" font-family="Verdana" font-size="14.00" fill="#000000">Run$2$1</text>
</g>
<!-- gitee.com/Ljolan/si&#45;mqtt/corev5/cliv5.Run$2&#45;&gt;gitee.com/Ljolan/si&#45;mqtt/corev5/cliv5.Run$2$1 -->
<g id="edge21" class="edge">
<title>gitee.com/Ljolan/si&#45;mqtt/corev5/cliv5.Run$2&#45;&gt;gitee.com/Ljolan/si&#45;mqtt/corev5/cliv5.Run$2$1</title>
<path fill="none" stroke="#000000" d="M1208.6351,-970.0824C1244.7559,-974.2204 1311.1326,-980.8 1368.0086,-980.8 1368.0086,-980.8 1368.0086,-980.8 1590.0086,-980.8 1614.504,-980.8 1641.4667,-981.7914 1664.8432,-982.9683"/>
<polygon fill="#000000" stroke="#000000" points="1681.8995,-987.4313 1692.08,-984.4974 1682.2919,-980.4423 1681.8995,-987.4313"/>
<polyline fill="none" stroke="#000000" points="1682.0957,-983.9368 1677.1036,-983.6565 "/>
<polygon fill="none" stroke="#000000" points="1665.1224,-982.9838 1671.3372,-979.3265 1677.1036,-983.6565 1670.8888,-987.3139 1665.1224,-982.9838"/>
</g>
<!-- (*gitee.com/Ljolan/si&#45;mqtt/corev5/servicev5.Server).Close -->
<g id="node22" class="node">
<title>(*gitee.com/Ljolan/si&#45;mqtt/corev5/servicev5.Server).Close</title>
<ellipse fill="#ffe4b5" stroke="#000000" stroke-width="1.5" cx="1725.4608" cy="-1072.8" rx="27" ry="18"/>
<text text-anchor="middle" x="1725.4608" y="-1068.6" font-family="Verdana" font-size="14.00" fill="#000000">Close</text>
</g>
<!-- gitee.com/Ljolan/si&#45;mqtt/corev5/cliv5.Run$2&#45;&gt;(*gitee.com/Ljolan/si&#45;mqtt/corev5/servicev5.Server).Close -->
<g id="edge23" class="edge">
<title>gitee.com/Ljolan/si&#45;mqtt/corev5/cliv5.Run$2&#45;&gt;(*gitee.com/Ljolan/si&#45;mqtt/corev5/servicev5.Server).Close</title>
<path fill="none" stroke="#8b4513" d="M1207.6852,-972.7965C1230.7267,-978.4087 1265.2474,-987.4627 1294.5086,-997.8 1328.1023,-1009.6678 1332.3802,-1029.8 1368.0086,-1029.8 1368.0086,-1029.8 1368.0086,-1029.8 1590.0086,-1029.8 1619.7341,-1029.8 1625.1825,-1041.7869 1653.5086,-1050.8 1665.7618,-1054.6988 1679.2303,-1058.8521 1691.1679,-1062.4877"/>
<polygon fill="#8b4513" stroke="#8b4513" points="1690.1896,-1065.8484 1700.7751,-1065.4029 1692.2222,-1059.15 1690.1896,-1065.8484"/>
</g>
<!-- (*go.uber.org/zap.SugaredLogger).Infof -->
<g id="node28" class="node">
<title>(*go.uber.org/zap.SugaredLogger).Infof</title>
<ellipse fill="#ffe4b5" stroke="#000000" stroke-width="1.5" cx="1725.4608" cy="-899.8" rx="27" ry="18"/>
<text text-anchor="middle" x="1725.4608" y="-895.6" font-family="Verdana" font-size="14.00" fill="#000000">Infof</text>
</g>
<!-- gitee.com/Ljolan/si&#45;mqtt/corev5/cliv5.Run$2&#45;&gt;(*go.uber.org/zap.SugaredLogger).Infof -->
<g id="edge22" class="edge">
<title>gitee.com/Ljolan/si&#45;mqtt/corev5/cliv5.Run$2&#45;&gt;(*go.uber.org/zap.SugaredLogger).Infof</title>
<path fill="none" stroke="#8b4513" d="M1208.2876,-962.3933C1244.2933,-956.7805 1310.8357,-947.8 1368.0086,-947.8 1368.0086,-947.8 1368.0086,-947.8 1590.0086,-947.8 1620.5049,-947.8 1624.7854,-932.0471 1653.5086,-921.8 1665.4032,-917.5566 1678.5757,-913.3805 1690.3646,-909.8262"/>
<polygon fill="#8b4513" stroke="#8b4513" points="1691.7107,-913.0776 1700.3013,-906.8767 1689.7187,-906.367 1691.7107,-913.0776"/>
</g>
<!-- gitee.com/Ljolan/si&#45;mqtt/corev5/cliv5.Run$2&#45;&gt;(*go.uber.org/zap.SugaredLogger).Errorf -->
<g id="edge24" class="edge">
<title>gitee.com/Ljolan/si&#45;mqtt/corev5/cliv5.Run$2&#45;&gt;(*go.uber.org/zap.SugaredLogger).Errorf</title>
<path fill="none" stroke="#8b4513" d="M1208.3641,-962.6977C1231.8516,-958.3838 1266.6453,-950.3059 1294.5086,-936.8 1331.2229,-919.0039 1327.2086,-881.8 1368.0086,-881.8 1368.0086,-881.8 1368.0086,-881.8 1590.0086,-881.8 1633.0102,-881.8 1618.7836,-834.1635 1653.5086,-808.8 1664.7756,-800.5705 1678.5658,-793.9587 1691.0481,-788.9896"/>
<polygon fill="#8b4513" stroke="#8b4513" points="1692.5775,-792.1538 1700.705,-785.3571 1690.113,-785.602 1692.5775,-792.1538"/>
</g>
<!-- gitee.com/Ljolan/si&#45;mqtt/corev5/cliv5.AddWebsocketHandler&#45;&gt;(*go.uber.org/zap.SugaredLogger).Infof -->
<g id="edge27" class="edge">
<title>gitee.com/Ljolan/si&#45;mqtt/corev5/cliv5.AddWebsocketHandler&#45;&gt;(*go.uber.org/zap.SugaredLogger).Infof</title>
<path fill="none" stroke="#8b4513" d="M1256.5394,-850.646C1290.5253,-852.8343 1331.2763,-854.8 1368.0086,-854.8 1368.0086,-854.8 1368.0086,-854.8 1590.0086,-854.8 1610.2504,-854.8 1659.8219,-873.1271 1693.0443,-886.3894"/>
<polygon fill="#8b4513" stroke="#8b4513" points="1691.7775,-889.6524 1702.3609,-890.1464 1694.3955,-883.1604 1691.7775,-889.6524"/>
</g>
<!-- gitee.com/Ljolan/si&#45;mqtt/corev5/cliv5.AddWebsocketHandler&#45;&gt;(*go.uber.org/zap.SugaredLogger).Errorf -->
<g id="edge28" class="edge">
<title>gitee.com/Ljolan/si&#45;mqtt/corev5/cliv5.AddWebsocketHandler&#45;&gt;(*go.uber.org/zap.SugaredLogger).Errorf</title>
<path fill="none" stroke="#8b4513" d="M1249.8051,-835.6034C1285.01,-831.5979 1328.7427,-827.8 1368.0086,-827.8 1368.0086,-827.8 1368.0086,-827.8 1590.0086,-827.8 1600.6223,-827.8 1656.4787,-805.9154 1693.0686,-791.1032"/>
<polygon fill="#8b4513" stroke="#8b4513" points="1694.4242,-794.3303 1702.3702,-787.3223 1691.7883,-787.8455 1694.4242,-794.3303"/>
</g>
<!-- gitee.com/Ljolan/si&#45;mqtt.main -->
<g id="node17" class="node">
<title>gitee.com/Ljolan/si&#45;mqtt.main</title>
<ellipse fill="#ffe4b5" stroke="#000000" stroke-width=".5" cx="102.715" cy="-966.8" rx="27" ry="18"/>
<text text-anchor="middle" x="102.715" y="-962.6" font-family="Verdana" font-size="14.00" fill="#000000">main</text>
</g>
<!-- gitee.com/Ljolan/si&#45;mqtt.main&#45;&gt;gitee.com/Ljolan/si&#45;mqtt/corev5/cliv5.Run -->
<g id="edge34" class="edge">
<title>gitee.com/Ljolan/si&#45;mqtt.main&#45;&gt;gitee.com/Ljolan/si&#45;mqtt/corev5/cliv5.Run</title>
<path fill="none" stroke="#8b4513" d="M129.9292,-966.8C161.8047,-966.8 216.2006,-966.8 262.9299,-966.8 262.9299,-966.8 262.9299,-966.8 484.9299,-966.8 521.3225,-966.8 562.8744,-966.8 592.0311,-966.8"/>
<polygon fill="#8b4513" stroke="#8b4513" points="592.1798,-970.3001 602.1797,-966.8 592.1797,-963.3001 592.1798,-970.3001"/>
</g>
<!-- (golang.org/x/net/websocket.Server).serveWebSocket -->
<g id="node33" class="node">
<title>(golang.org/x/net/websocket.Server).serveWebSocket</title>
<ellipse fill="#ffe4b5" stroke="#000000" stroke-width=".5" cx="2215.1144" cy="-750.8" rx="57.9034" ry="18"/>
<text text-anchor="middle" x="2215.1144" y="-746.6" font-family="Verdana" font-size="14.00" fill="#000000">serveWebSocket</text>
</g>
<!-- (golang.org/x/net/websocket.Server).serveWebSocket&#45;&gt;gitee.com/Ljolan/si&#45;mqtt/corev5/cliv5.AddWebsocketHandler$1 -->
<g id="edge9" class="edge">
<title>(golang.org/x/net/websocket.Server).serveWebSocket&#45;&gt;gitee.com/Ljolan/si&#45;mqtt/corev5/cliv5.AddWebsocketHandler$1</title>
<path fill="none" stroke="#8b4513" stroke-dasharray="5,2" d="M2185.2311,-735.3992C2159.1849,-723.4125 2120.0272,-708.8 2083.913,-708.8 1824.913,-708.8 1824.913,-708.8 1824.913,-708.8 1748.5766,-708.8 1729.5436,-713.0226 1653.5086,-719.8 1493.5501,-734.058 1454.8104,-751.1376 1294.5086,-760.8 1161.9514,-768.7901 1128.518,-762.8 995.7202,-762.8 262.9299,-762.8 262.9299,-762.8 262.9299,-762.8 220.9244,-762.8 175.6169,-746.4289 143.9374,-732.0582"/>
<polygon fill="#8b4513" stroke="#8b4513" points="145.104,-728.7403 134.562,-727.6829 142.1437,-735.0836 145.104,-728.7403"/>
</g>
</g>
</svg>
