<?xml version="1.0" encoding="UTF-8" standalone="no"?>
<!DOCTYPE svg PUBLIC "-//W3C//DTD SVG 1.1//EN"
 "http://www.w3.org/Graphics/SVG/1.1/DTD/svg11.dtd">
<!-- Generated by graphviz version 2.40.1 (20161225.0304)
 -->
<!-- Title: gocallvis Pages: 1 -->
<svg width="1781pt" height="550pt"
 viewBox="0.00 0.00 1780.88 549.80" xmlns="http://www.w3.org/2000/svg" xmlns:xlink="http://www.w3.org/1999/xlink">
<g id="graph0" class="graph" transform="scale(1 1) rotate(0) translate(0 549.8)">
<title>gocallvis</title>
<polygon fill="#d3d3d3" stroke="transparent" points="0,0 0,-549.8 1780.8802,-549.8 1780.8802,0 0,0"/>
<text text-anchor="middle" x="81.8976" y="-8.2" font-family="Arial" font-size="14.00" fill="#000000">gitee.com/Ljolan/si&#45;mqtt</text>
<g id="clust1" class="cluster">
<title>cluster_focus</title>
<polygon fill="#e6ecfa" stroke="#000000" stroke-width=".5" points="8,-32.8 8,-541.8 1772.8802,-541.8 1772.8802,-32.8 8,-32.8"/>
<text text-anchor="middle" x="890.4401" y="-521.6" font-family="Arial" font-size="18.00" fill="#000000">cliv5</text>
</g>
<!-- gitee.com/Ljolan/si&#45;mqtt/corev5/cliv5.WebsocketTcpProxy$1 -->
<g id="node1" class="node">
<title>gitee.com/Ljolan/si&#45;mqtt/corev5/cliv5.WebsocketTcpProxy$1</title>
<ellipse fill="#add8e6" stroke="#000000" stroke-dasharray="1,5" cx="1231.5282" cy="-424.8" rx="78.62" ry="18"/>
<text text-anchor="middle" x="1231.5282" y="-420.6" font-family="Verdana" font-size="14.00" fill="#000000">WebsocketTcpProxy$1</text>
</g>
<!-- gitee.com/Ljolan/si&#45;mqtt/corev5/cliv5.io_ws_copy -->
<g id="node2" class="node">
<title>gitee.com/Ljolan/si&#45;mqtt/corev5/cliv5.io_ws_copy</title>
<ellipse fill="#add8e6" stroke="#000000" stroke-width=".5" cx="1722.1091" cy="-424.8" rx="42.5435" ry="18"/>
<text text-anchor="middle" x="1722.1091" y="-420.6" font-family="Verdana" font-size="14.00" fill="#000000">io_ws_copy</text>
</g>
<!-- gitee.com/Ljolan/si&#45;mqtt/corev5/cliv5.WebsocketTcpProxy$1&#45;&gt;gitee.com/Ljolan/si&#45;mqtt/corev5/cliv5.io_ws_copy -->
<g id="edge1" class="edge">
<title>gitee.com/Ljolan/si&#45;mqtt/corev5/cliv5.WebsocketTcpProxy$1&#45;&gt;gitee.com/Ljolan/si&#45;mqtt/corev5/cliv5.io_ws_copy</title>
<path fill="none" stroke="#000000" d="M1310.5799,-424.8C1334.1495,-424.8 1360.0395,-424.8 1383.838,-424.8 1383.838,-424.8 1383.838,-424.8 1605.838,-424.8 1626.5514,-424.8 1649.3406,-424.8 1669.2134,-424.8"/>
<polygon fill="#000000" stroke="#000000" points="1669.3134,-428.3001 1679.3133,-424.8 1669.3133,-421.3001 1669.3134,-428.3001"/>
</g>
<!-- gitee.com/Ljolan/si&#45;mqtt/corev5/cliv5.WebsocketTcpProxy -->
<g id="node3" class="node">
<title>gitee.com/Ljolan/si&#45;mqtt/corev5/cliv5.WebsocketTcpProxy</title>
<ellipse fill="#add8e6" stroke="#000000" stroke-width="1.5" cx="671.0742" cy="-485.8" rx="70.7904" ry="18"/>
<text text-anchor="middle" x="671.0742" y="-481.6" font-family="Verdana" font-size="14.00" fill="#000000">WebsocketTcpProxy</text>
</g>
<!-- gitee.com/Ljolan/si&#45;mqtt/corev5/cliv5.WebsocketTcpProxy&#45;&gt;gitee.com/Ljolan/si&#45;mqtt/corev5/cliv5.WebsocketTcpProxy$1 -->
<g id="edge2" class="edge">
<title>gitee.com/Ljolan/si&#45;mqtt/corev5/cliv5.WebsocketTcpProxy&#45;&gt;gitee.com/Ljolan/si&#45;mqtt/corev5/cliv5.WebsocketTcpProxy$1</title>
<path fill="none" stroke="#000000" d="M720.6416,-472.8365C771.0389,-459.8576 843.6034,-441.8 857.2184,-441.8 857.2184,-441.8 857.2184,-441.8 1079.2184,-441.8 1100.1931,-441.8 1122.6929,-440.188 1143.7895,-437.9567"/>
<polygon fill="#000000" stroke="#000000" points="1157.3366,-439.8782 1166.856,-435.2274 1156.514,-432.9267 1157.3366,-439.8782"/>
<polyline fill="none" stroke="#000000" points="1156.9253,-436.4024 1151.96,-436.99 "/>
<ellipse fill="none" stroke="#000000" cx="1147.9877" cy="-437.46" rx="4" ry="4"/>
</g>
<!-- gitee.com/Ljolan/si&#45;mqtt/corev5/cliv5.WebsocketTcpProxy$2 -->
<g id="node4" class="node">
<title>gitee.com/Ljolan/si&#45;mqtt/corev5/cliv5.WebsocketTcpProxy$2</title>
<ellipse fill="#add8e6" stroke="#000000" stroke-dasharray="1,5" cx="1231.5282" cy="-485.8" rx="78.62" ry="18"/>
<text text-anchor="middle" x="1231.5282" y="-481.6" font-family="Verdana" font-size="14.00" fill="#000000">WebsocketTcpProxy$2</text>
</g>
<!-- gitee.com/Ljolan/si&#45;mqtt/corev5/cliv5.WebsocketTcpProxy&#45;&gt;gitee.com/Ljolan/si&#45;mqtt/corev5/cliv5.WebsocketTcpProxy$2 -->
<g id="edge4" class="edge">
<title>gitee.com/Ljolan/si&#45;mqtt/corev5/cliv5.WebsocketTcpProxy&#45;&gt;gitee.com/Ljolan/si&#45;mqtt/corev5/cliv5.WebsocketTcpProxy$2</title>
<path fill="none" stroke="#000000" d="M742.2297,-485.8C776.917,-485.8 819.2462,-485.8 857.2184,-485.8 857.2184,-485.8 857.2184,-485.8 1079.2184,-485.8 1095.3939,-485.8 1112.5356,-485.8 1129.2583,-485.8"/>
<polygon fill="#000000" stroke="#000000" points="1142.4765,-489.3 1152.4765,-485.8 1142.4765,-482.3 1142.4765,-489.3"/>
<polyline fill="none" stroke="#000000" points="1142.4765,-485.8 1137.4765,-485.8001 "/>
<ellipse fill="none" stroke="#000000" cx="1133.4765" cy="-485.8001" rx="4" ry="4"/>
</g>
<!-- gitee.com/Ljolan/si&#45;mqtt/corev5/cliv5.io_copy_ws -->
<g id="node5" class="node">
<title>gitee.com/Ljolan/si&#45;mqtt/corev5/cliv5.io_copy_ws</title>
<ellipse fill="#add8e6" stroke="#000000" stroke-width=".5" cx="1722.1091" cy="-485.8" rx="42.5435" ry="18"/>
<text text-anchor="middle" x="1722.1091" y="-481.6" font-family="Verdana" font-size="14.00" fill="#000000">io_copy_ws</text>
</g>
<!-- gitee.com/Ljolan/si&#45;mqtt/corev5/cliv5.WebsocketTcpProxy$2&#45;&gt;gitee.com/Ljolan/si&#45;mqtt/corev5/cliv5.io_copy_ws -->
<g id="edge3" class="edge">
<title>gitee.com/Ljolan/si&#45;mqtt/corev5/cliv5.WebsocketTcpProxy$2&#45;&gt;gitee.com/Ljolan/si&#45;mqtt/corev5/cliv5.io_copy_ws</title>
<path fill="none" stroke="#000000" d="M1310.5799,-485.8C1334.1495,-485.8 1360.0395,-485.8 1383.838,-485.8 1383.838,-485.8 1383.838,-485.8 1605.838,-485.8 1626.5514,-485.8 1649.3406,-485.8 1669.2134,-485.8"/>
<polygon fill="#000000" stroke="#000000" points="1669.3134,-489.3001 1679.3133,-485.8 1669.3133,-482.3001 1669.3134,-489.3001"/>
</g>
<!-- gitee.com/Ljolan/si&#45;mqtt/corev5/cliv5.AddWebsocketHandler$1 -->
<g id="node6" class="node">
<title>gitee.com/Ljolan/si&#45;mqtt/corev5/cliv5.AddWebsocketHandler$1</title>
<ellipse fill="#add8e6" stroke="#000000" stroke-dasharray="1,5" cx="102.715" cy="-485.8" rx="86.9305" ry="18"/>
<text text-anchor="middle" x="102.715" y="-481.6" font-family="Verdana" font-size="14.00" fill="#000000">AddWebsocketHandler$1</text>
</g>
<!-- gitee.com/Ljolan/si&#45;mqtt/corev5/cliv5.AddWebsocketHandler$1&#45;&gt;gitee.com/Ljolan/si&#45;mqtt/corev5/cliv5.WebsocketTcpProxy -->
<g id="edge5" class="edge">
<title>gitee.com/Ljolan/si&#45;mqtt/corev5/cliv5.AddWebsocketHandler$1&#45;&gt;gitee.com/Ljolan/si&#45;mqtt/corev5/cliv5.WebsocketTcpProxy</title>
<path fill="none" stroke="#000000" d="M189.6063,-485.8C213.3804,-485.8 239.148,-485.8 262.9299,-485.8 262.9299,-485.8 262.9299,-485.8 484.9299,-485.8 519.1938,-485.8 557.0055,-485.8 589.5488,-485.8"/>
<polygon fill="#000000" stroke="#000000" points="589.9186,-489.3001 599.9186,-485.8 589.9185,-482.3001 589.9186,-489.3001"/>
</g>
<!-- gitee.com/Ljolan/si&#45;mqtt/corev5/cliv5.Run -->
<g id="node7" class="node">
<title>gitee.com/Ljolan/si&#45;mqtt/corev5/cliv5.Run</title>
<ellipse fill="#add8e6" stroke="#000000" stroke-width="1.5" cx="102.715" cy="-271.8" rx="27" ry="18"/>
<text text-anchor="middle" x="102.715" y="-267.6" font-family="Verdana" font-size="14.00" fill="#000000">Run</text>
</g>
<!-- gitee.com/Ljolan/si&#45;mqtt/corev5/cliv5.Run$1 -->
<g id="node8" class="node">
<title>gitee.com/Ljolan/si&#45;mqtt/corev5/cliv5.Run$1</title>
<ellipse fill="#add8e6" stroke="#000000" stroke-dasharray="1,5" cx="671.0742" cy="-119.8" rx="27" ry="18"/>
<text text-anchor="middle" x="671.0742" y="-115.6" font-family="Verdana" font-size="14.00" fill="#000000">Run$1</text>
</g>
<!-- gitee.com/Ljolan/si&#45;mqtt/corev5/cliv5.Run&#45;&gt;gitee.com/Ljolan/si&#45;mqtt/corev5/cliv5.Run$1 -->
<g id="edge6" class="edge">
<title>gitee.com/Ljolan/si&#45;mqtt/corev5/cliv5.Run&#45;&gt;gitee.com/Ljolan/si&#45;mqtt/corev5/cliv5.Run$1</title>
<path fill="none" stroke="#000000" d="M113.2476,-254.9419C136.0188,-220.8223 193.4297,-146.8 262.9299,-146.8 262.9299,-146.8 262.9299,-146.8 484.9299,-146.8 532.1175,-146.8 585.3434,-138.1971 622.7556,-130.7035"/>
<polygon fill="#000000" stroke="#000000" points="636.2881,-131.4197 645.3478,-125.9267 634.8401,-124.5711 636.2881,-131.4197"/>
<polyline fill="none" stroke="#000000" points="635.5641,-127.9954 630.6723,-129.0297 "/>
<ellipse fill="none" stroke="#000000" cx="626.7588" cy="-129.8572" rx="4" ry="4"/>
</g>
<!-- gitee.com/Ljolan/si&#45;mqtt/corev5/cliv5.Run$2 -->
<g id="node9" class="node">
<title>gitee.com/Ljolan/si&#45;mqtt/corev5/cliv5.Run$2</title>
<ellipse fill="#add8e6" stroke="#000000" stroke-dasharray="1,5" cx="671.0742" cy="-180.8" rx="27" ry="18"/>
<text text-anchor="middle" x="671.0742" y="-176.6" font-family="Verdana" font-size="14.00" fill="#000000">Run$2</text>
</g>
<!-- gitee.com/Ljolan/si&#45;mqtt/corev5/cliv5.Run&#45;&gt;gitee.com/Ljolan/si&#45;mqtt/corev5/cliv5.Run$2 -->
<g id="edge8" class="edge">
<title>gitee.com/Ljolan/si&#45;mqtt/corev5/cliv5.Run&#45;&gt;gitee.com/Ljolan/si&#45;mqtt/corev5/cliv5.Run$2</title>
<path fill="none" stroke="#000000" d="M120.8178,-257.9703C149.3801,-237.5701 207.382,-201.8 262.9299,-201.8 262.9299,-201.8 262.9299,-201.8 484.9299,-201.8 531.6802,-201.8 584.621,-195.1784 622.0591,-189.3717"/>
<polygon fill="#000000" stroke="#000000" points="635.6733,-190.6883 644.976,-185.6178 634.5417,-183.7804 635.6733,-190.6883"/>
<polyline fill="none" stroke="#000000" points="635.1075,-187.2343 630.1733,-188.0426 "/>
<ellipse fill="none" stroke="#000000" cx="626.2259" cy="-188.6892" rx="4" ry="4"/>
</g>
<!-- gitee.com/Ljolan/si&#45;mqtt/corev5/cliv5.BuffConfigInit -->
<g id="node11" class="node">
<title>gitee.com/Ljolan/si&#45;mqtt/corev5/cliv5.BuffConfigInit</title>
<ellipse fill="#add8e6" stroke="#000000" stroke-width="1.5" cx="671.0742" cy="-241.8" rx="52.0072" ry="18"/>
<text text-anchor="middle" x="671.0742" y="-237.6" font-family="Verdana" font-size="14.00" fill="#000000">BuffConfigInit</text>
</g>
<!-- gitee.com/Ljolan/si&#45;mqtt/corev5/cliv5.Run&#45;&gt;gitee.com/Ljolan/si&#45;mqtt/corev5/cliv5.BuffConfigInit -->
<g id="edge9" class="edge">
<title>gitee.com/Ljolan/si&#45;mqtt/corev5/cliv5.Run&#45;&gt;gitee.com/Ljolan/si&#45;mqtt/corev5/cliv5.BuffConfigInit</title>
<path fill="none" stroke="#000000" d="M128.3723,-266.0772C159.8868,-259.5587 215.0602,-249.8 262.9299,-249.8 262.9299,-249.8 262.9299,-249.8 484.9299,-249.8 526.4409,-249.8 573.111,-247.7896 609.3361,-245.7844"/>
<polygon fill="#000000" stroke="#000000" points="609.9582,-249.2548 619.7434,-245.1927 609.5608,-242.2661 609.9582,-249.2548"/>
</g>
<!-- gitee.com/Ljolan/si&#45;mqtt/corev5/cliv5.AddWebsocketHandler -->
<g id="node12" class="node">
<title>gitee.com/Ljolan/si&#45;mqtt/corev5/cliv5.AddWebsocketHandler</title>
<ellipse fill="#add8e6" stroke="#000000" stroke-width="1.5" cx="671.0742" cy="-302.8" rx="78.6011" ry="18"/>
<text text-anchor="middle" x="671.0742" y="-298.6" font-family="Verdana" font-size="14.00" fill="#000000">AddWebsocketHandler</text>
</g>
<!-- gitee.com/Ljolan/si&#45;mqtt/corev5/cliv5.Run&#45;&gt;gitee.com/Ljolan/si&#45;mqtt/corev5/cliv5.AddWebsocketHandler -->
<g id="edge10" class="edge">
<title>gitee.com/Ljolan/si&#45;mqtt/corev5/cliv5.Run&#45;&gt;gitee.com/Ljolan/si&#45;mqtt/corev5/cliv5.AddWebsocketHandler</title>
<path fill="none" stroke="#000000" d="M128.3723,-277.5228C159.8868,-284.0413 215.0602,-293.8 262.9299,-293.8 262.9299,-293.8 262.9299,-293.8 484.9299,-293.8 517.7741,-293.8 553.8401,-295.2152 585.4083,-296.9232"/>
<polygon fill="#000000" stroke="#000000" points="585.3101,-300.4231 595.4899,-297.4866 585.7008,-293.434 585.3101,-300.4231"/>
</g>
<!-- gitee.com/Ljolan/si&#45;mqtt/corev5/cliv5.ListenAndServeWebsocket -->
<g id="node13" class="node">
<title>gitee.com/Ljolan/si&#45;mqtt/corev5/cliv5.ListenAndServeWebsocket</title>
<ellipse fill="#add8e6" stroke="#000000" stroke-width="1.5" cx="671.0742" cy="-363.8" rx="91.2249" ry="18"/>
<text text-anchor="middle" x="671.0742" y="-359.6" font-family="Verdana" font-size="14.00" fill="#000000">ListenAndServeWebsocket</text>
</g>
<!-- gitee.com/Ljolan/si&#45;mqtt/corev5/cliv5.Run&#45;&gt;gitee.com/Ljolan/si&#45;mqtt/corev5/cliv5.ListenAndServeWebsocket -->
<g id="edge11" class="edge">
<title>gitee.com/Ljolan/si&#45;mqtt/corev5/cliv5.Run&#45;&gt;gitee.com/Ljolan/si&#45;mqtt/corev5/cliv5.ListenAndServeWebsocket</title>
<path fill="none" stroke="#000000" d="M120.2279,-286.0679C148.4516,-307.5715 206.5547,-345.8 262.9299,-345.8 262.9299,-345.8 262.9299,-345.8 484.9299,-345.8 513.8462,-345.8 545.1725,-347.9786 573.7319,-350.82"/>
<polygon fill="#000000" stroke="#000000" points="586.6394,-355.7349 596.9575,-353.3293 587.3913,-348.7754 586.6394,-355.7349"/>
<polyline fill="none" stroke="#000000" points="587.0153,-352.2551 582.0443,-351.718 "/>
<ellipse fill="none" stroke="#000000" cx="578.0674" cy="-351.2883" rx="4" ry="4"/>
</g>
<!-- gitee.com/Ljolan/si&#45;mqtt/corev5/cliv5.ListenAndServeWebsocketSecure -->
<g id="node14" class="node">
<title>gitee.com/Ljolan/si&#45;mqtt/corev5/cliv5.ListenAndServeWebsocketSecure</title>
<ellipse fill="#add8e6" stroke="#000000" stroke-width="1.5" cx="671.0742" cy="-424.8" rx="112.7886" ry="18"/>
<text text-anchor="middle" x="671.0742" y="-420.6" font-family="Verdana" font-size="14.00" fill="#000000">ListenAndServeWebsocketSecure</text>
</g>
<!-- gitee.com/Ljolan/si&#45;mqtt/corev5/cliv5.Run&#45;&gt;gitee.com/Ljolan/si&#45;mqtt/corev5/cliv5.ListenAndServeWebsocketSecure -->
<g id="edge12" class="edge">
<title>gitee.com/Ljolan/si&#45;mqtt/corev5/cliv5.Run&#45;&gt;gitee.com/Ljolan/si&#45;mqtt/corev5/cliv5.ListenAndServeWebsocketSecure</title>
<path fill="none" stroke="#000000" d="M112.5381,-288.6578C134.5655,-324.0388 191.6099,-402.8 262.9299,-402.8 262.9299,-402.8 262.9299,-402.8 484.9299,-402.8 513.0085,-402.8 543.3059,-405.2993 571.1366,-408.6131"/>
<polygon fill="#000000" stroke="#000000" points="583.967,-413.8063 594.3341,-411.6215 584.8673,-406.8644 583.967,-413.8063"/>
<polyline fill="none" stroke="#000000" points="584.4172,-410.3353 579.4587,-409.6923 "/>
<ellipse fill="none" stroke="#000000" cx="575.4919" cy="-409.1778" rx="4" ry="4"/>
</g>
<!-- gitee.com/Ljolan/si&#45;mqtt/corev5/cliv5.Run$2$1 -->
<g id="node10" class="node">
<title>gitee.com/Ljolan/si&#45;mqtt/corev5/cliv5.Run$2$1</title>
<ellipse fill="#add8e6" stroke="#000000" stroke-dasharray="1,5" cx="1231.5282" cy="-180.8" rx="33.59" ry="18"/>
<text text-anchor="middle" x="1231.5282" y="-176.6" font-family="Verdana" font-size="14.00" fill="#000000">Run$2$1</text>
</g>
<!-- gitee.com/Ljolan/si&#45;mqtt/corev5/cliv5.Run$2&#45;&gt;gitee.com/Ljolan/si&#45;mqtt/corev5/cliv5.Run$2$1 -->
<g id="edge7" class="edge">
<title>gitee.com/Ljolan/si&#45;mqtt/corev5/cliv5.Run$2&#45;&gt;gitee.com/Ljolan/si&#45;mqtt/corev5/cliv5.Run$2$1</title>
<path fill="none" stroke="#000000" d="M698.2023,-180.8C734.4449,-180.8 800.6641,-180.8 857.2184,-180.8 857.2184,-180.8 857.2184,-180.8 1079.2184,-180.8 1109.3801,-180.8 1142.9015,-180.8 1170.8008,-180.8"/>
<polygon fill="#000000" stroke="#000000" points="1187.9518,-184.3 1197.9517,-180.8 1187.9517,-177.3 1187.9518,-184.3"/>
<polyline fill="none" stroke="#000000" points="1187.9517,-180.8 1182.9517,-180.8001 "/>
<polygon fill="none" stroke="#000000" points="1170.9517,-180.8001 1176.9517,-176.8001 1182.9517,-180.8001 1176.9518,-184.8001 1170.9517,-180.8001"/>
</g>
<!-- gitee.com/Ljolan/si&#45;mqtt/corev5/cliv5.init -->
<g id="node15" class="node">
<title>gitee.com/Ljolan/si&#45;mqtt/corev5/cliv5.init</title>
<ellipse fill="#add8e6" stroke="#000000" stroke-width=".5" cx="102.715" cy="-58.8" rx="27" ry="18"/>
<text text-anchor="middle" x="102.715" y="-54.6" font-family="Verdana" font-size="14.00" fill="#000000">init</text>
</g>
<!-- gitee.com/Ljolan/si&#45;mqtt/corev5/cliv5.init#1 -->
<g id="node16" class="node">
<title>gitee.com/Ljolan/si&#45;mqtt/corev5/cliv5.init#1</title>
<ellipse fill="#add8e6" stroke="#000000" stroke-width=".5" cx="671.0742" cy="-58.8" rx="27" ry="18"/>
<text text-anchor="middle" x="671.0742" y="-54.6" font-family="Verdana" font-size="14.00" fill="#000000">init#1</text>
</g>
<!-- gitee.com/Ljolan/si&#45;mqtt/corev5/cliv5.init&#45;&gt;gitee.com/Ljolan/si&#45;mqtt/corev5/cliv5.init#1 -->
<g id="edge13" class="edge">
<title>gitee.com/Ljolan/si&#45;mqtt/corev5/cliv5.init&#45;&gt;gitee.com/Ljolan/si&#45;mqtt/corev5/cliv5.init#1</title>
<path fill="none" stroke="#000000" d="M129.9292,-58.8C161.8047,-58.8 216.2006,-58.8 262.9299,-58.8 262.9299,-58.8 262.9299,-58.8 484.9299,-58.8 536.4031,-58.8 595.8827,-58.8 633.4803,-58.8"/>
<polygon fill="#000000" stroke="#000000" points="633.946,-62.3001 643.946,-58.8 633.946,-55.3001 633.946,-62.3001"/>
</g>
</g>
</svg>
