<?xml version="1.0" encoding="UTF-8" standalone="no"?>
<!DOCTYPE svg PUBLIC "-//W3C//DTD SVG 1.1//EN"
 "http://www.w3.org/Graphics/SVG/1.1/DTD/svg11.dtd">
<!-- Generated by graphviz version 2.40.1 (20161225.0304)
 -->
<!-- Title: gocallvis Pages: 1 -->
<svg width="1316pt" height="545pt"
 viewBox="0.00 0.00 1316.28 544.80" xmlns="http://www.w3.org/2000/svg" xmlns:xlink="http://www.w3.org/1999/xlink">
<g id="graph0" class="graph" transform="scale(1 1) rotate(0) translate(0 544.8)">
<title>gocallvis</title>
<polygon fill="#d3d3d3" stroke="transparent" points="0,0 0,-544.8 1316.279,-544.8 1316.279,0 0,0"/>
<text text-anchor="middle" x="81.8976" y="-8.2" font-family="Arial" font-size="14.00" fill="#000000">gitee.com/Ljolan/si&#45;mqtt</text>
<g id="clust1" class="cluster">
<title>cluster_focus</title>
<polygon fill="#e6ecfa" stroke="#000000" stroke-width=".5" points="7.8181,-32.8 7.8181,-536.8 1308.279,-536.8 1308.279,-32.8 7.8181,-32.8"/>
<text text-anchor="middle" x="658.0485" y="-516.6" font-family="Arial" font-size="18.00" fill="#000000">cluster</text>
</g>
<g id="clust9" class="cluster">
<title>cluster_gitee.com/Ljolan/si&#45;mqtt/corev5/topicsv5/topic_map_node</title>
<g id="a_clust9"><a xlink:href="/?f=gitee.com/Ljolan/si-mqtt/corev5/topicsv5/topic_map_node" xlink:title="package: gitee.com/Ljolan/si&#45;mqtt/corev5/topicsv5/topic_map_node">
<polygon fill="#ffffe0" stroke="#000000" stroke-width=".8" points="1090.6239,-90.8 1090.6239,-386.8 1300.279,-386.8 1300.279,-90.8 1090.6239,-90.8"/>
<text text-anchor="middle" x="1195.4514" y="-368.4" font-family="Tahoma bold" font-size="16.00" fill="#000000">topicmapnode</text>
</a>
</g>
</g>
<g id="clust10" class="cluster">
<title>cluster_*gitee.com/Ljolan/si&#45;mqtt/corev5/topicsv5/topic_map_node.memTopicMapNode</title>
<g id="a_clust10"><a xlink:href="/?f=gitee.com/Ljolan/si-mqtt/corev5/topicsv5/topic_map_node" xlink:title="type: *gitee.com/Ljolan/si&#45;mqtt/corev5/topicsv5/topic_map_node.memTopicMapNode">
<path fill="#eed8ae" stroke="#000000" stroke-width=".5" d="M1128.3688,-98.8C1128.3688,-98.8 1262.534,-98.8 1262.534,-98.8 1268.534,-98.8 1274.534,-104.8 1274.534,-110.8 1274.534,-110.8 1274.534,-286.8 1274.534,-286.8 1274.534,-292.8 1268.534,-298.8 1262.534,-298.8 1262.534,-298.8 1128.3688,-298.8 1128.3688,-298.8 1122.3688,-298.8 1116.3688,-292.8 1116.3688,-286.8 1116.3688,-286.8 1116.3688,-110.8 1116.3688,-110.8 1116.3688,-104.8 1122.3688,-98.8 1128.3688,-98.8"/>
<text text-anchor="middle" x="1195.4514" y="-107.3" font-family="Tahoma bold" font-size="15.00" fill="#222222">(*memTopicMapNode)</text>
</a>
</g>
</g>
<g id="clust6" class="cluster">
<title>cluster_gitee.com/Ljolan/si&#45;mqtt/corev5/servicev5</title>
<g id="a_clust6"><a xlink:href="/?f=gitee.com/Ljolan/si-mqtt/corev5/servicev5" xlink:title="package: gitee.com/Ljolan/si&#45;mqtt/corev5/servicev5">
<polygon fill="#ffffe0" stroke="#000000" stroke-width=".8" points="16,-230.8 16,-498.8 201.2301,-498.8 201.2301,-230.8 16,-230.8"/>
<text text-anchor="middle" x="108.6151" y="-480.4" font-family="Tahoma bold" font-size="16.00" fill="#000000">servicev5</text>
</a>
</g>
</g>
<g id="clust8" class="cluster">
<title>cluster_*gitee.com/Ljolan/si&#45;mqtt/corev5/servicev5.service</title>
<g id="a_clust8"><a xlink:href="/?f=gitee.com/Ljolan/si-mqtt/corev5/servicev5" xlink:title="type: *gitee.com/Ljolan/si&#45;mqtt/corev5/servicev5.service">
<path fill="#eed8ae" stroke="#000000" stroke-width=".5" d="M36,-238.8C36,-238.8 181.2301,-238.8 181.2301,-238.8 187.2301,-238.8 193.2301,-244.8 193.2301,-250.8 193.2301,-250.8 193.2301,-365.8 193.2301,-365.8 193.2301,-371.8 187.2301,-377.8 181.2301,-377.8 181.2301,-377.8 36,-377.8 36,-377.8 30,-377.8 24,-371.8 24,-365.8 24,-365.8 24,-250.8 24,-250.8 24,-244.8 30,-238.8 36,-238.8"/>
<text text-anchor="middle" x="108.6151" y="-247.3" font-family="Tahoma bold" font-size="15.00" fill="#222222">(*service)</text>
</a>
</g>
</g>
<g id="clust7" class="cluster">
<title>cluster_*gitee.com/Ljolan/si&#45;mqtt/corev5/servicev5.Server</title>
<g id="a_clust7"><a xlink:href="/?f=gitee.com/Ljolan/si-mqtt/corev5/servicev5" xlink:title="type: *gitee.com/Ljolan/si&#45;mqtt/corev5/servicev5.Server">
<path fill="#eed8ae" stroke="#000000" stroke-width=".5" d="M52.6889,-385.8C52.6889,-385.8 164.5412,-385.8 164.5412,-385.8 170.5412,-385.8 176.5412,-391.8 176.5412,-397.8 176.5412,-397.8 176.5412,-451.8 176.5412,-451.8 176.5412,-457.8 170.5412,-463.8 164.5412,-463.8 164.5412,-463.8 52.6889,-463.8 52.6889,-463.8 46.6889,-463.8 40.6889,-457.8 40.6889,-451.8 40.6889,-451.8 40.6889,-397.8 40.6889,-397.8 40.6889,-391.8 46.6889,-385.8 52.6889,-385.8"/>
<text text-anchor="middle" x="108.6151" y="-394.3" font-family="Tahoma bold" font-size="15.00" fill="#222222">(*Server)</text>
</a>
</g>
</g>
<g id="clust4" class="cluster">
<title>cluster_gitee.com/Ljolan/si&#45;mqtt/cluster/stat/colong</title>
<g id="a_clust4"><a xlink:href="/?f=gitee.com/Ljolan/si-mqtt/cluster/stat/colong" xlink:title="package: gitee.com/Ljolan/si&#45;mqtt/cluster/stat/colong">
<polygon fill="#ffffe0" stroke="#000000" stroke-width=".8" points="15.8181,-40.8 15.8181,-222.8 202.412,-222.8 202.412,-40.8 15.8181,-40.8"/>
<text text-anchor="middle" x="109.1151" y="-204.4" font-family="Tahoma bold" font-size="16.00" fill="#000000">colong</text>
</a>
</g>
</g>
<g id="clust5" class="cluster">
<title>cluster_*gitee.com/Ljolan/si&#45;mqtt/cluster/stat/colong.serverMessageHandler</title>
<g id="a_clust5"><a xlink:href="/?f=gitee.com/Ljolan/si-mqtt/cluster/stat/colong" xlink:title="type: *gitee.com/Ljolan/si&#45;mqtt/cluster/stat/colong.serverMessageHandler">
<path fill="#eed8ae" stroke="#000000" stroke-width=".5" d="M35.8181,-48.8C35.8181,-48.8 182.412,-48.8 182.412,-48.8 188.412,-48.8 194.412,-54.8 194.412,-60.8 194.412,-60.8 194.412,-175.8 194.412,-175.8 194.412,-181.8 188.412,-187.8 182.412,-187.8 182.412,-187.8 35.8181,-187.8 35.8181,-187.8 29.8181,-187.8 23.8181,-181.8 23.8181,-175.8 23.8181,-175.8 23.8181,-60.8 23.8181,-60.8 23.8181,-54.8 29.8181,-48.8 35.8181,-48.8"/>
<text text-anchor="middle" x="109.1151" y="-57.3" font-family="Tahoma bold" font-size="15.00" fill="#222222">(*serverMessageHandler)</text>
</a>
</g>
</g>
<g id="clust3" class="cluster">
<title>cluster_*gitee.com/Ljolan/si&#45;mqtt/cluster.shareMapImpl</title>
<g id="a_clust3"><a xlink:title="type: *gitee.com/Ljolan/si&#45;mqtt/cluster.shareMapImpl">
<path fill="#b0c4de" stroke="#000000" stroke-width=".5" d="M569.4177,-98.8C569.4177,-98.8 723.4363,-98.8 723.4363,-98.8 729.4363,-98.8 735.4363,-104.8 735.4363,-110.8 735.4363,-110.8 735.4363,-286.8 735.4363,-286.8 735.4363,-292.8 729.4363,-298.8 723.4363,-298.8 723.4363,-298.8 569.4177,-298.8 569.4177,-298.8 563.4177,-298.8 557.4177,-292.8 557.4177,-286.8 557.4177,-286.8 557.4177,-110.8 557.4177,-110.8 557.4177,-104.8 563.4177,-98.8 569.4177,-98.8"/>
<text text-anchor="middle" x="646.427" y="-107.3" font-family="Arial" font-size="15.00" fill="#222222">(*shareMapImpl)</text>
</a>
</g>
</g>
<g id="clust2" class="cluster">
<title>cluster_*gitee.com/Ljolan/si&#45;mqtt/cluster.nodeDiscover</title>
<g id="a_clust2"><a xlink:title="type: *gitee.com/Ljolan/si&#45;mqtt/cluster.nodeDiscover">
<path fill="#b0c4de" stroke="#000000" stroke-width=".5" d="M596.8303,-420.8C596.8303,-420.8 696.0237,-420.8 696.0237,-420.8 702.0237,-420.8 708.0237,-426.8 708.0237,-432.8 708.0237,-432.8 708.0237,-486.8 708.0237,-486.8 708.0237,-492.8 702.0237,-498.8 696.0237,-498.8 696.0237,-498.8 596.8303,-498.8 596.8303,-498.8 590.8303,-498.8 584.8303,-492.8 584.8303,-486.8 584.8303,-486.8 584.8303,-432.8 584.8303,-432.8 584.8303,-426.8 590.8303,-420.8 596.8303,-420.8"/>
<text text-anchor="middle" x="646.427" y="-429.3" font-family="Arial" font-size="15.00" fill="#222222">(*nodeDiscover)</text>
</a>
</g>
</g>
<!-- gitee.com/Ljolan/si&#45;mqtt/cluster.NewStaticNodeDiscover -->
<g id="node1" class="node">
<title>gitee.com/Ljolan/si&#45;mqtt/cluster.NewStaticNodeDiscover</title>
<ellipse fill="#add8e6" stroke="#000000" stroke-width="1.5" cx="646.427" cy="-333.8" rx="83.3943" ry="18"/>
<text text-anchor="middle" x="646.427" y="-329.6" font-family="Verdana" font-size="14.00" fill="#000000">NewStaticNodeDiscover</text>
</g>
<!-- gitee.com/Ljolan/si&#45;mqtt/cluster.NewShareMap -->
<g id="node2" class="node">
<title>gitee.com/Ljolan/si&#45;mqtt/cluster.NewShareMap</title>
<ellipse fill="#add8e6" stroke="#000000" stroke-width="1.5" cx="646.427" cy="-394.8" rx="51.9755" ry="18"/>
<text text-anchor="middle" x="646.427" y="-390.6" font-family="Verdana" font-size="14.00" fill="#000000">NewShareMap</text>
</g>
<!-- gitee.com/Ljolan/si&#45;mqtt/corev5/topicsv5/topic_map_node.NewTopicMapNodeProvider -->
<g id="node12" class="node">
<title>gitee.com/Ljolan/si&#45;mqtt/corev5/topicsv5/topic_map_node.NewTopicMapNodeProvider</title>
<ellipse fill="#ffe4b5" stroke="#000000" stroke-width="1.5" cx="1195.4514" cy="-333.8" rx="96.6554" ry="18"/>
<text text-anchor="middle" x="1195.4514" y="-329.6" font-family="Verdana" font-size="14.00" fill="#000000">NewTopicMapNodeProvider</text>
</g>
<!-- gitee.com/Ljolan/si&#45;mqtt/cluster.NewShareMap&#45;&gt;gitee.com/Ljolan/si&#45;mqtt/corev5/topicsv5/topic_map_node.NewTopicMapNodeProvider -->
<g id="edge10" class="edge">
<title>gitee.com/Ljolan/si&#45;mqtt/cluster.NewShareMap&#45;&gt;gitee.com/Ljolan/si&#45;mqtt/corev5/topicsv5/topic_map_node.NewTopicMapNodeProvider</title>
<path fill="none" stroke="#8b4513" d="M685.2877,-382.7258C716.7424,-374.0215 762.3585,-363.8 803.1239,-363.8 803.1239,-363.8 803.1239,-363.8 1025.1239,-363.8 1060.0748,-363.8 1098.4566,-357.5975 1129.9233,-350.8331"/>
<polygon fill="#8b4513" stroke="#8b4513" points="1130.8786,-354.2063 1139.8836,-348.6242 1129.363,-347.3724 1130.8786,-354.2063"/>
</g>
<!-- (*gitee.com/Ljolan/si&#45;mqtt/cluster.nodeDiscover).GetNodeMap -->
<g id="node3" class="node">
<title>(*gitee.com/Ljolan/si&#45;mqtt/cluster.nodeDiscover).GetNodeMap</title>
<ellipse fill="#add8e6" stroke="#000000" stroke-width="1.5" cx="646.427" cy="-472.8" rx="47.6936" ry="18"/>
<text text-anchor="middle" x="646.427" y="-468.6" font-family="Verdana" font-size="14.00" fill="#000000">GetNodeMap</text>
</g>
<!-- (*gitee.com/Ljolan/si&#45;mqtt/cluster.shareMapImpl).AddTopicMapNode -->
<g id="node4" class="node">
<title>(*gitee.com/Ljolan/si&#45;mqtt/cluster.shareMapImpl).AddTopicMapNode</title>
<ellipse fill="#add8e6" stroke="#000000" stroke-width="1.5" cx="646.427" cy="-150.8" rx="68.0231" ry="18"/>
<text text-anchor="middle" x="646.427" y="-146.6" font-family="Verdana" font-size="14.00" fill="#000000">AddTopicMapNode</text>
</g>
<!-- (*gitee.com/Ljolan/si&#45;mqtt/corev5/topicsv5/topic_map_node.memTopicMapNode).Subscribe -->
<g id="node13" class="node">
<title>(*gitee.com/Ljolan/si&#45;mqtt/corev5/topicsv5/topic_map_node.memTopicMapNode).Subscribe</title>
<ellipse fill="#ffe4b5" stroke="#000000" stroke-width="1.5" cx="1195.4514" cy="-150.8" rx="35.9683" ry="18"/>
<text text-anchor="middle" x="1195.4514" y="-146.6" font-family="Verdana" font-size="14.00" fill="#000000">Subscribe</text>
</g>
<!-- (*gitee.com/Ljolan/si&#45;mqtt/cluster.shareMapImpl).AddTopicMapNode&#45;&gt;(*gitee.com/Ljolan/si&#45;mqtt/corev5/topicsv5/topic_map_node.memTopicMapNode).Subscribe -->
<g id="edge1" class="edge">
<title>(*gitee.com/Ljolan/si&#45;mqtt/cluster.shareMapImpl).AddTopicMapNode&#45;&gt;(*gitee.com/Ljolan/si&#45;mqtt/corev5/topicsv5/topic_map_node.memTopicMapNode).Subscribe</title>
<path fill="none" stroke="#8b4513" stroke-dasharray="5,2" d="M715.075,-150.8C742.4657,-150.8 774.2873,-150.8 803.1239,-150.8 803.1239,-150.8 803.1239,-150.8 1025.1239,-150.8 1067.1975,-150.8 1115.1171,-150.8 1149.388,-150.8"/>
<polygon fill="#8b4513" stroke="#8b4513" points="1149.5641,-154.3001 1159.5641,-150.8 1149.564,-147.3001 1149.5641,-154.3001"/>
</g>
<!-- (*gitee.com/Ljolan/si&#45;mqtt/cluster.shareMapImpl).RemoveTopicMapNode -->
<g id="node5" class="node">
<title>(*gitee.com/Ljolan/si&#45;mqtt/cluster.shareMapImpl).RemoveTopicMapNode</title>
<ellipse fill="#add8e6" stroke="#000000" stroke-width="1.5" cx="646.427" cy="-211.8" rx="81.0186" ry="18"/>
<text text-anchor="middle" x="646.427" y="-207.6" font-family="Verdana" font-size="14.00" fill="#000000">RemoveTopicMapNode</text>
</g>
<!-- (*gitee.com/Ljolan/si&#45;mqtt/corev5/topicsv5/topic_map_node.memTopicMapNode).Unsubscribe -->
<g id="node14" class="node">
<title>(*gitee.com/Ljolan/si&#45;mqtt/corev5/topicsv5/topic_map_node.memTopicMapNode).Unsubscribe</title>
<ellipse fill="#ffe4b5" stroke="#000000" stroke-width="1.5" cx="1195.4514" cy="-211.8" rx="44.1653" ry="18"/>
<text text-anchor="middle" x="1195.4514" y="-207.6" font-family="Verdana" font-size="14.00" fill="#000000">Unsubscribe</text>
</g>
<!-- (*gitee.com/Ljolan/si&#45;mqtt/cluster.shareMapImpl).RemoveTopicMapNode&#45;&gt;(*gitee.com/Ljolan/si&#45;mqtt/corev5/topicsv5/topic_map_node.memTopicMapNode).Unsubscribe -->
<g id="edge3" class="edge">
<title>(*gitee.com/Ljolan/si&#45;mqtt/cluster.shareMapImpl).RemoveTopicMapNode&#45;&gt;(*gitee.com/Ljolan/si&#45;mqtt/corev5/topicsv5/topic_map_node.memTopicMapNode).Unsubscribe</title>
<path fill="none" stroke="#8b4513" stroke-dasharray="5,2" d="M727.7557,-211.8C752.0042,-211.8 778.64,-211.8 803.1239,-211.8 803.1239,-211.8 803.1239,-211.8 1025.1239,-211.8 1063.9817,-211.8 1107.826,-211.8 1141.2992,-211.8"/>
<polygon fill="#8b4513" stroke="#8b4513" points="1141.3376,-215.3001 1151.3375,-211.8 1141.3375,-208.3001 1141.3376,-215.3001"/>
</g>
<!-- (*gitee.com/Ljolan/si&#45;mqtt/cluster.shareMapImpl).GetShareNames -->
<g id="node6" class="node">
<title>(*gitee.com/Ljolan/si&#45;mqtt/cluster.shareMapImpl).GetShareNames</title>
<ellipse fill="#add8e6" stroke="#000000" stroke-width="1.5" cx="646.427" cy="-272.8" rx="55.8855" ry="18"/>
<text text-anchor="middle" x="646.427" y="-268.6" font-family="Verdana" font-size="14.00" fill="#000000">GetShareNames</text>
</g>
<!-- (*gitee.com/Ljolan/si&#45;mqtt/corev5/topicsv5/topic_map_node.memTopicMapNode).Subscribers -->
<g id="node15" class="node">
<title>(*gitee.com/Ljolan/si&#45;mqtt/corev5/topicsv5/topic_map_node.memTopicMapNode).Subscribers</title>
<ellipse fill="#ffe4b5" stroke="#000000" stroke-width="1.5" cx="1195.4514" cy="-272.8" rx="41.3925" ry="18"/>
<text text-anchor="middle" x="1195.4514" y="-268.6" font-family="Verdana" font-size="14.00" fill="#000000">Subscribers</text>
</g>
<!-- (*gitee.com/Ljolan/si&#45;mqtt/cluster.shareMapImpl).GetShareNames&#45;&gt;(*gitee.com/Ljolan/si&#45;mqtt/corev5/topicsv5/topic_map_node.memTopicMapNode).Subscribers -->
<g id="edge7" class="edge">
<title>(*gitee.com/Ljolan/si&#45;mqtt/cluster.shareMapImpl).GetShareNames&#45;&gt;(*gitee.com/Ljolan/si&#45;mqtt/corev5/topicsv5/topic_map_node.memTopicMapNode).Subscribers</title>
<path fill="none" stroke="#8b4513" stroke-dasharray="5,2" d="M702.6341,-272.8C732.4866,-272.8 769.7986,-272.8 803.1239,-272.8 803.1239,-272.8 803.1239,-272.8 1025.1239,-272.8 1064.9197,-272.8 1109.9455,-272.8 1143.7048,-272.8"/>
<polygon fill="#8b4513" stroke="#8b4513" points="1143.8019,-276.3001 1153.8019,-272.8 1143.8018,-269.3001 1143.8019,-276.3001"/>
</g>
<!-- (*gitee.com/Ljolan/si&#45;mqtt/cluster/stat/colong.serverMessageHandler).OnMessage$3 -->
<g id="node7" class="node">
<title>(*gitee.com/Ljolan/si&#45;mqtt/cluster/stat/colong.serverMessageHandler).OnMessage$3</title>
<ellipse fill="#ffe4b5" stroke="#000000" stroke-dasharray="1,5" cx="108.6151" cy="-100.8" rx="49.5948" ry="18"/>
<text text-anchor="middle" x="108.6151" y="-96.6" font-family="Verdana" font-size="14.00" fill="#000000">OnMessage$3</text>
</g>
<!-- (*gitee.com/Ljolan/si&#45;mqtt/cluster/stat/colong.serverMessageHandler).OnMessage$3&#45;&gt;(*gitee.com/Ljolan/si&#45;mqtt/cluster.shareMapImpl).AddTopicMapNode -->
<g id="edge2" class="edge">
<title>(*gitee.com/Ljolan/si&#45;mqtt/cluster/stat/colong.serverMessageHandler).OnMessage$3&#45;&gt;(*gitee.com/Ljolan/si&#45;mqtt/cluster.shareMapImpl).AddTopicMapNode</title>
<path fill="none" stroke="#8b4513" stroke-dasharray="5,2" d="M146.0732,-112.7691C185.258,-124.8708 244.2671,-141.8 267.7301,-141.8 267.7301,-141.8 267.7301,-141.8 489.7301,-141.8 516.3119,-141.8 545.3884,-143.1068 571.1987,-144.7246"/>
<polygon fill="#8b4513" stroke="#8b4513" points="571.0843,-148.2245 581.2909,-145.3829 571.54,-141.2393 571.0843,-148.2245"/>
</g>
<!-- (*gitee.com/Ljolan/si&#45;mqtt/cluster/stat/colong.serverMessageHandler).OnMessage$4 -->
<g id="node8" class="node">
<title>(*gitee.com/Ljolan/si&#45;mqtt/cluster/stat/colong.serverMessageHandler).OnMessage$4</title>
<ellipse fill="#ffe4b5" stroke="#000000" stroke-dasharray="1,5" cx="108.6151" cy="-161.8" rx="49.5948" ry="18"/>
<text text-anchor="middle" x="108.6151" y="-157.6" font-family="Verdana" font-size="14.00" fill="#000000">OnMessage$4</text>
</g>
<!-- (*gitee.com/Ljolan/si&#45;mqtt/cluster/stat/colong.serverMessageHandler).OnMessage$4&#45;&gt;(*gitee.com/Ljolan/si&#45;mqtt/cluster.shareMapImpl).RemoveTopicMapNode -->
<g id="edge4" class="edge">
<title>(*gitee.com/Ljolan/si&#45;mqtt/cluster/stat/colong.serverMessageHandler).OnMessage$4&#45;&gt;(*gitee.com/Ljolan/si&#45;mqtt/cluster.shareMapImpl).RemoveTopicMapNode</title>
<path fill="none" stroke="#8b4513" stroke-dasharray="5,2" d="M156.9606,-166.4195C188.4714,-169.0396 230.5023,-171.8 267.7301,-171.8 267.7301,-171.8 267.7301,-171.8 489.7301,-171.8 509.0421,-171.8 552.8474,-183.3506 589.2455,-194.038"/>
<polygon fill="#8b4513" stroke="#8b4513" points="588.7061,-197.5287 599.2887,-197.0191 590.6981,-190.8181 588.7061,-197.5287"/>
</g>
<!-- (*gitee.com/Ljolan/si&#45;mqtt/corev5/servicev5.Server).RunClusterComp -->
<g id="node9" class="node">
<title>(*gitee.com/Ljolan/si&#45;mqtt/corev5/servicev5.Server).RunClusterComp</title>
<ellipse fill="#ffe4b5" stroke="#000000" stroke-width="1.5" cx="108.6151" cy="-437.8" rx="59.8524" ry="18"/>
<text text-anchor="middle" x="108.6151" y="-433.6" font-family="Verdana" font-size="14.00" fill="#000000">RunClusterComp</text>
</g>
<!-- (*gitee.com/Ljolan/si&#45;mqtt/corev5/servicev5.Server).RunClusterComp&#45;&gt;gitee.com/Ljolan/si&#45;mqtt/cluster.NewStaticNodeDiscover -->
<g id="edge9" class="edge">
<title>(*gitee.com/Ljolan/si&#45;mqtt/corev5/servicev5.Server).RunClusterComp&#45;&gt;gitee.com/Ljolan/si&#45;mqtt/cluster.NewStaticNodeDiscover</title>
<path fill="none" stroke="#8b4513" d="M136.6574,-421.7098C181.829,-395.8226 265.8755,-347.8 267.7301,-347.8 267.7301,-347.8 267.7301,-347.8 489.7301,-347.8 513.9872,-347.8 540.273,-346.115 564.2604,-343.9142"/>
<polygon fill="#8b4513" stroke="#8b4513" points="564.7673,-347.3817 574.3874,-342.9428 564.0988,-340.4137 564.7673,-347.3817"/>
</g>
<!-- (*gitee.com/Ljolan/si&#45;mqtt/corev5/servicev5.Server).RunClusterComp&#45;&gt;gitee.com/Ljolan/si&#45;mqtt/cluster.NewShareMap -->
<g id="edge11" class="edge">
<title>(*gitee.com/Ljolan/si&#45;mqtt/corev5/servicev5.Server).RunClusterComp&#45;&gt;gitee.com/Ljolan/si&#45;mqtt/cluster.NewShareMap</title>
<path fill="none" stroke="#8b4513" d="M160.7621,-428.9055C191.7451,-424.3706 231.8677,-419.8 267.7301,-419.8 267.7301,-419.8 267.7301,-419.8 489.7301,-419.8 524.7521,-419.8 563.6332,-413.6348 593.904,-407.4276"/>
<polygon fill="#8b4513" stroke="#8b4513" points="594.7624,-410.8236 603.8216,-405.3298 593.3137,-403.9751 594.7624,-410.8236"/>
</g>
<!-- (*gitee.com/Ljolan/si&#45;mqtt/corev5/servicev5.Server).RunClusterComp&#45;&gt;(*gitee.com/Ljolan/si&#45;mqtt/cluster.nodeDiscover).GetNodeMap -->
<g id="edge12" class="edge">
<title>(*gitee.com/Ljolan/si&#45;mqtt/corev5/servicev5.Server).RunClusterComp&#45;&gt;(*gitee.com/Ljolan/si&#45;mqtt/cluster.nodeDiscover).GetNodeMap</title>
<path fill="none" stroke="#8b4513" stroke-dasharray="5,2" d="M161.5025,-446.3C192.3912,-450.55 232.17,-454.8 267.7301,-454.8 267.7301,-454.8 267.7301,-454.8 489.7301,-454.8 524.2961,-454.8 562.8725,-459.1764 593.1002,-463.6134"/>
<polygon fill="#8b4513" stroke="#8b4513" points="592.6021,-467.0778 603.0134,-465.1142 593.65,-460.1566 592.6021,-467.0778"/>
</g>
<!-- (*gitee.com/Ljolan/si&#45;mqtt/corev5/servicev5.service).processToCluster -->
<g id="node10" class="node">
<title>(*gitee.com/Ljolan/si&#45;mqtt/corev5/servicev5.service).processToCluster</title>
<ellipse fill="#ffe4b5" stroke="#000000" stroke-width=".5" cx="108.6151" cy="-290.8" rx="59.8161" ry="18"/>
<text text-anchor="middle" x="108.6151" y="-286.6" font-family="Verdana" font-size="14.00" fill="#000000">processToCluster</text>
</g>
<!-- (*gitee.com/Ljolan/si&#45;mqtt/corev5/servicev5.service).processToCluster&#45;&gt;(*gitee.com/Ljolan/si&#45;mqtt/cluster.shareMapImpl).AddTopicMapNode -->
<g id="edge6" class="edge">
<title>(*gitee.com/Ljolan/si&#45;mqtt/corev5/servicev5.service).processToCluster&#45;&gt;(*gitee.com/Ljolan/si&#45;mqtt/cluster.shareMapImpl).AddTopicMapNode</title>
<path fill="none" stroke="#8b4513" stroke-dasharray="5,2" d="M132.1519,-274.1454C162.1463,-254.5935 216.2913,-224.8 267.7301,-224.8 267.7301,-224.8 267.7301,-224.8 489.7301,-224.8 525.3706,-224.8 525.3338,-197.3199 557.4177,-181.8 568.1203,-176.6228 579.9176,-171.8873 591.326,-167.7598"/>
<polygon fill="#8b4513" stroke="#8b4513" points="592.5088,-171.054 600.785,-164.4393 590.1902,-164.4492 592.5088,-171.054"/>
</g>
<!-- (*gitee.com/Ljolan/si&#45;mqtt/corev5/servicev5.service).processToCluster&#45;&gt;(*gitee.com/Ljolan/si&#45;mqtt/cluster.shareMapImpl).RemoveTopicMapNode -->
<g id="edge5" class="edge">
<title>(*gitee.com/Ljolan/si&#45;mqtt/corev5/servicev5.service).processToCluster&#45;&gt;(*gitee.com/Ljolan/si&#45;mqtt/cluster.shareMapImpl).RemoveTopicMapNode</title>
<path fill="none" stroke="#8b4513" stroke-dasharray="5,2" d="M162.9907,-283.1242C193.6777,-279.4337 232.7694,-275.8 267.7301,-275.8 267.7301,-275.8 267.7301,-275.8 489.7301,-275.8 523.1983,-275.8 526.5187,-255.6598 557.4177,-242.8 568.0506,-238.3747 579.5649,-234.0395 590.6722,-230.0794"/>
<polygon fill="#8b4513" stroke="#8b4513" points="592.0186,-233.3162 600.296,-226.7029 589.7011,-226.7109 592.0186,-233.3162"/>
</g>
<!-- (*gitee.com/Ljolan/si&#45;mqtt/corev5/servicev5.service).sendShareToCluster$1 -->
<g id="node11" class="node">
<title>(*gitee.com/Ljolan/si&#45;mqtt/corev5/servicev5.service).sendShareToCluster$1</title>
<ellipse fill="#ffe4b5" stroke="#000000" stroke-dasharray="1,5" cx="108.6151" cy="-351.8" rx="76.7303" ry="18"/>
<text text-anchor="middle" x="108.6151" y="-347.6" font-family="Verdana" font-size="14.00" fill="#000000">sendShareToCluster$1</text>
</g>
<!-- (*gitee.com/Ljolan/si&#45;mqtt/corev5/servicev5.service).sendShareToCluster$1&#45;&gt;(*gitee.com/Ljolan/si&#45;mqtt/cluster.shareMapImpl).GetShareNames -->
<g id="edge8" class="edge">
<title>(*gitee.com/Ljolan/si&#45;mqtt/corev5/servicev5.service).sendShareToCluster$1&#45;&gt;(*gitee.com/Ljolan/si&#45;mqtt/cluster.shareMapImpl).GetShareNames</title>
<path fill="none" stroke="#8b4513" stroke-dasharray="5,2" d="M150.2135,-336.6439C181.9641,-326.4259 227.0318,-314.8 267.7301,-314.8 267.7301,-314.8 267.7301,-314.8 489.7301,-314.8 521.0992,-314.8 527.142,-303.01 557.4177,-294.8 568.3496,-291.8356 580.081,-288.8194 591.323,-286.0093"/>
<polygon fill="#8b4513" stroke="#8b4513" points="592.18,-289.4029 601.044,-283.5993 590.4956,-282.6086 592.18,-289.4029"/>
</g>
</g>
</svg>
