<?xml version="1.0" encoding="UTF-8" standalone="no"?>
<!DOCTYPE svg PUBLIC "-//W3C//DTD SVG 1.1//EN"
 "http://www.w3.org/Graphics/SVG/1.1/DTD/svg11.dtd">
<!-- Generated by graphviz version 2.40.1 (20161225.0304)
 -->
<!-- Title: gocallvis Pages: 1 -->
<svg width="742pt" height="269pt"
 viewBox="0.00 0.00 741.61 268.80" xmlns="http://www.w3.org/2000/svg" xmlns:xlink="http://www.w3.org/1999/xlink">
<g id="graph0" class="graph" transform="scale(1 1) rotate(0) translate(0 268.8)">
<title>gocallvis</title>
<polygon fill="#d3d3d3" stroke="transparent" points="0,0 0,-268.8 741.6125,-268.8 741.6125,0 0,0"/>
<text text-anchor="middle" x="81.8976" y="-8.2" font-family="Arial" font-size="14.00" fill="#000000">gitee.com/Ljolan/si&#45;mqtt</text>
<g id="clust1" class="cluster">
<title>cluster_focus</title>
<polygon fill="#e6ecfa" stroke="#000000" stroke-width=".5" points="0,-32.8 0,-260.8 733.6125,-260.8 733.6125,-32.8 0,-32.8"/>
<text text-anchor="middle" x="366.8062" y="-240.6" font-family="Arial" font-size="18.00" fill="#000000">cluster</text>
</g>
<g id="clust3" class="cluster">
<title>cluster_gitee.com/Ljolan/si&#45;mqtt/cluster/stat/colong</title>
<g id="a_clust3"><a xlink:href="/?f=gitee.com/Ljolan/si-mqtt/cluster/stat/colong" xlink:title="package: gitee.com/Ljolan/si&#45;mqtt/cluster/stat/colong">
<polygon fill="#ffffe0" stroke="#000000" stroke-width=".8" points="8,-40.8 8,-222.8 194.5939,-222.8 194.5939,-40.8 8,-40.8"/>
<text text-anchor="middle" x="101.297" y="-204.4" font-family="Tahoma bold" font-size="16.00" fill="#000000">colong</text>
</a>
</g>
</g>
<g id="clust4" class="cluster">
<title>cluster_*gitee.com/Ljolan/si&#45;mqtt/cluster/stat/colong.serverMessageHandler</title>
<g id="a_clust4"><a xlink:href="/?f=gitee.com/Ljolan/si-mqtt/cluster/stat/colong" xlink:title="type: *gitee.com/Ljolan/si&#45;mqtt/cluster/stat/colong.serverMessageHandler">
<path fill="#eed8ae" stroke="#000000" stroke-width=".5" d="M28,-48.8C28,-48.8 174.5939,-48.8 174.5939,-48.8 180.5939,-48.8 186.5939,-54.8 186.5939,-60.8 186.5939,-60.8 186.5939,-175.8 186.5939,-175.8 186.5939,-181.8 180.5939,-187.8 174.5939,-187.8 174.5939,-187.8 28,-187.8 28,-187.8 22,-187.8 16,-181.8 16,-175.8 16,-175.8 16,-60.8 16,-60.8 16,-54.8 22,-48.8 28,-48.8"/>
<text text-anchor="middle" x="101.297" y="-57.3" font-family="Tahoma bold" font-size="15.00" fill="#222222">(*serverMessageHandler)</text>
</a>
</g>
</g>
<g id="clust2" class="cluster">
<title>cluster_*gitee.com/Ljolan/si&#45;mqtt/cluster.shareMapImpl</title>
<g id="a_clust2"><a xlink:title="type: *gitee.com/Ljolan/si&#45;mqtt/cluster.shareMapImpl">
<path fill="#b0c4de" stroke="#000000" stroke-width=".5" d="M559.5939,-48.8C559.5939,-48.8 713.6125,-48.8 713.6125,-48.8 719.6125,-48.8 725.6125,-54.8 725.6125,-60.8 725.6125,-60.8 725.6125,-175.8 725.6125,-175.8 725.6125,-181.8 719.6125,-187.8 713.6125,-187.8 713.6125,-187.8 559.5939,-187.8 559.5939,-187.8 553.5939,-187.8 547.5939,-181.8 547.5939,-175.8 547.5939,-175.8 547.5939,-60.8 547.5939,-60.8 547.5939,-54.8 553.5939,-48.8 559.5939,-48.8"/>
<text text-anchor="middle" x="636.6032" y="-57.3" font-family="Arial" font-size="15.00" fill="#222222">(*shareMapImpl)</text>
</a>
</g>
</g>
<!-- (*gitee.com/Ljolan/si&#45;mqtt/cluster.shareMapImpl).AddTopicMapNode -->
<g id="node1" class="node">
<title>(*gitee.com/Ljolan/si&#45;mqtt/cluster.shareMapImpl).AddTopicMapNode</title>
<ellipse fill="#add8e6" stroke="#000000" stroke-width="1.5" cx="636.6032" cy="-100.8" rx="68.0231" ry="18"/>
<text text-anchor="middle" x="636.6032" y="-96.6" font-family="Verdana" font-size="14.00" fill="#000000">AddTopicMapNode</text>
</g>
<!-- (*gitee.com/Ljolan/si&#45;mqtt/cluster.shareMapImpl).RemoveTopicMapNode -->
<g id="node2" class="node">
<title>(*gitee.com/Ljolan/si&#45;mqtt/cluster.shareMapImpl).RemoveTopicMapNode</title>
<ellipse fill="#add8e6" stroke="#000000" stroke-width="1.5" cx="636.6032" cy="-161.8" rx="81.0186" ry="18"/>
<text text-anchor="middle" x="636.6032" y="-157.6" font-family="Verdana" font-size="14.00" fill="#000000">RemoveTopicMapNode</text>
</g>
<!-- (*gitee.com/Ljolan/si&#45;mqtt/cluster/stat/colong.serverMessageHandler).OnMessage$3 -->
<g id="node3" class="node">
<title>(*gitee.com/Ljolan/si&#45;mqtt/cluster/stat/colong.serverMessageHandler).OnMessage$3</title>
<ellipse fill="#ffe4b5" stroke="#000000" stroke-dasharray="1,5" cx="100.797" cy="-100.8" rx="49.5948" ry="18"/>
<text text-anchor="middle" x="100.797" y="-96.6" font-family="Verdana" font-size="14.00" fill="#000000">OnMessage$3</text>
</g>
<!-- (*gitee.com/Ljolan/si&#45;mqtt/cluster/stat/colong.serverMessageHandler).OnMessage$3&#45;&gt;(*gitee.com/Ljolan/si&#45;mqtt/cluster.shareMapImpl).AddTopicMapNode -->
<g id="edge1" class="edge">
<title>(*gitee.com/Ljolan/si&#45;mqtt/cluster/stat/colong.serverMessageHandler).OnMessage$3&#45;&gt;(*gitee.com/Ljolan/si&#45;mqtt/cluster.shareMapImpl).AddTopicMapNode</title>
<path fill="none" stroke="#8b4513" stroke-dasharray="5,2" d="M150.6625,-100.8C182.0648,-100.8 223.4501,-100.8 260.0939,-100.8 260.0939,-100.8 260.0939,-100.8 482.0939,-100.8 506.739,-100.8 533.5952,-100.8 557.9012,-100.8"/>
<polygon fill="#8b4513" stroke="#8b4513" points="558.1481,-104.3001 568.1481,-100.8 558.148,-97.3001 558.1481,-104.3001"/>
</g>
<!-- (*gitee.com/Ljolan/si&#45;mqtt/cluster/stat/colong.serverMessageHandler).OnMessage$4 -->
<g id="node4" class="node">
<title>(*gitee.com/Ljolan/si&#45;mqtt/cluster/stat/colong.serverMessageHandler).OnMessage$4</title>
<ellipse fill="#ffe4b5" stroke="#000000" stroke-dasharray="1,5" cx="100.797" cy="-161.8" rx="49.5948" ry="18"/>
<text text-anchor="middle" x="100.797" y="-157.6" font-family="Verdana" font-size="14.00" fill="#000000">OnMessage$4</text>
</g>
<!-- (*gitee.com/Ljolan/si&#45;mqtt/cluster/stat/colong.serverMessageHandler).OnMessage$4&#45;&gt;(*gitee.com/Ljolan/si&#45;mqtt/cluster.shareMapImpl).RemoveTopicMapNode -->
<g id="edge2" class="edge">
<title>(*gitee.com/Ljolan/si&#45;mqtt/cluster/stat/colong.serverMessageHandler).OnMessage$4&#45;&gt;(*gitee.com/Ljolan/si&#45;mqtt/cluster.shareMapImpl).RemoveTopicMapNode</title>
<path fill="none" stroke="#8b4513" stroke-dasharray="5,2" d="M150.6625,-161.8C182.0648,-161.8 223.4501,-161.8 260.0939,-161.8 260.0939,-161.8 260.0939,-161.8 482.0939,-161.8 502.4953,-161.8 524.4118,-161.8 545.1426,-161.8"/>
<polygon fill="#8b4513" stroke="#8b4513" points="545.2125,-165.3001 555.2125,-161.8 545.2125,-158.3001 545.2125,-165.3001"/>
</g>
</g>
</svg>
