<?xml version="1.0" encoding="UTF-8" standalone="no"?>
<!DOCTYPE svg PUBLIC "-//W3C//DTD SVG 1.1//EN"
 "http://www.w3.org/Graphics/SVG/1.1/DTD/svg11.dtd">
<!-- Generated by graphviz version 2.40.1 (20161225.0304)
 -->
<!-- Title: gocallvis Pages: 1 -->
<svg width="1584pt" height="1182pt"
 viewBox="0.00 0.00 1584.27 1181.80" xmlns="http://www.w3.org/2000/svg" xmlns:xlink="http://www.w3.org/1999/xlink">
<g id="graph0" class="graph" transform="scale(1 1) rotate(0) translate(0 1181.8)">
<title>gocallvis</title>
<polygon fill="#d3d3d3" stroke="transparent" points="0,0 0,-1181.8 1584.2705,-1181.8 1584.2705,0 0,0"/>
<text text-anchor="middle" x="81.8976" y="-8.2" font-family="Arial" font-size="14.00" fill="#000000">gitee.com/Ljolan/si&#45;mqtt</text>
<g id="clust1" class="cluster">
<title>cluster_focus</title>
<polygon fill="#e6ecfa" stroke="#000000" stroke-width=".5" points="8,-32.8 8,-1173.8 1576.2705,-1173.8 1576.2705,-32.8 8,-32.8"/>
<text text-anchor="middle" x="792.1352" y="-1153.6" font-family="Arial" font-size="18.00" fill="#000000">sessionsv5</text>
</g>
<g id="clust5" class="cluster">
<title>cluster_*gitee.com/Ljolan/si&#45;mqtt/corev5/sessionsv5.session</title>
<g id="a_clust5"><a xlink:title="type: *gitee.com/Ljolan/si&#45;mqtt/corev5/sessionsv5.session">
<path fill="#b0c4de" stroke="#000000" stroke-width=".5" d="M34.0923,-891.8C34.0923,-891.8 556.3842,-891.8 556.3842,-891.8 562.3842,-891.8 568.3842,-897.8 568.3842,-903.8 568.3842,-903.8 568.3842,-1079.8 568.3842,-1079.8 568.3842,-1085.8 562.3842,-1091.8 556.3842,-1091.8 556.3842,-1091.8 34.0923,-1091.8 34.0923,-1091.8 28.0923,-1091.8 22.0923,-1085.8 22.0923,-1079.8 22.0923,-1079.8 22.0923,-903.8 22.0923,-903.8 22.0923,-897.8 28.0923,-891.8 34.0923,-891.8"/>
<text text-anchor="middle" x="295.2383" y="-900.3" font-family="Arial" font-size="15.00" fill="#222222">(*session)</text>
</a>
</g>
</g>
<g id="clust4" class="cluster">
<title>cluster_*gitee.com/Ljolan/si&#45;mqtt/corev5/sessionsv5.memProvider</title>
<g id="a_clust4"><a xlink:title="type: *gitee.com/Ljolan/si&#45;mqtt/corev5/sessionsv5.memProvider">
<path fill="#b0c4de" stroke="#000000" stroke-width=".5" d="M485.3842,-353.8C485.3842,-353.8 581.3842,-353.8 581.3842,-353.8 587.3842,-353.8 593.3842,-359.8 593.3842,-365.8 593.3842,-365.8 593.3842,-602.8 593.3842,-602.8 593.3842,-608.8 587.3842,-614.8 581.3842,-614.8 581.3842,-614.8 485.3842,-614.8 485.3842,-614.8 479.3842,-614.8 473.3842,-608.8 473.3842,-602.8 473.3842,-602.8 473.3842,-365.8 473.3842,-365.8 473.3842,-359.8 479.3842,-353.8 485.3842,-353.8"/>
<text text-anchor="middle" x="533.3842" y="-362.3" font-family="Arial" font-size="15.00" fill="#222222">(*memProvider)</text>
</a>
</g>
</g>
<g id="clust3" class="cluster">
<title>cluster_*gitee.com/Ljolan/si&#45;mqtt/corev5/sessionsv5.ackqueue</title>
<g id="a_clust3"><a xlink:title="type: *gitee.com/Ljolan/si&#45;mqtt/corev5/sessionsv5.ackqueue">
<path fill="#b0c4de" stroke="#000000" stroke-width=".5" d="M28,-622.8C28,-622.8 1556.2705,-622.8 1556.2705,-622.8 1562.2705,-622.8 1568.2705,-628.8 1568.2705,-634.8 1568.2705,-634.8 1568.2705,-871.8 1568.2705,-871.8 1568.2705,-877.8 1562.2705,-883.8 1556.2705,-883.8 1556.2705,-883.8 28,-883.8 28,-883.8 22,-883.8 16,-877.8 16,-871.8 16,-871.8 16,-634.8 16,-634.8 16,-628.8 22,-622.8 28,-622.8"/>
<text text-anchor="middle" x="792.1352" y="-631.3" font-family="Arial" font-size="15.00" fill="#222222">(*ackqueue)</text>
</a>
</g>
</g>
<g id="clust2" class="cluster">
<title>cluster_*gitee.com/Ljolan/si&#45;mqtt/corev5/sessionsv5.Manager</title>
<g id="a_clust2"><a xlink:title="type: *gitee.com/Ljolan/si&#45;mqtt/corev5/sessionsv5.Manager">
<path fill="#b0c4de" stroke="#000000" stroke-width=".5" d="M34.0923,-84.8C34.0923,-84.8 563.3606,-84.8 563.3606,-84.8 569.3606,-84.8 575.3606,-90.8 575.3606,-96.8 575.3606,-96.8 575.3606,-333.8 575.3606,-333.8 575.3606,-339.8 569.3606,-345.8 563.3606,-345.8 563.3606,-345.8 34.0923,-345.8 34.0923,-345.8 28.0923,-345.8 22.0923,-339.8 22.0923,-333.8 22.0923,-333.8 22.0923,-96.8 22.0923,-96.8 22.0923,-90.8 28.0923,-84.8 34.0923,-84.8"/>
<text text-anchor="middle" x="298.7264" y="-93.3" font-family="Arial" font-size="15.00" fill="#222222">(*Manager)</text>
</a>
</g>
</g>
<!-- gitee.com/Ljolan/si&#45;mqtt/corev5/sessionsv5.memProviderInit -->
<g id="node1" class="node">
<title>gitee.com/Ljolan/si&#45;mqtt/corev5/sessionsv5.memProviderInit</title>
<ellipse fill="#add8e6" stroke="#000000" stroke-width=".5" cx="533.3842" cy="-58.8" rx="58.69" ry="18"/>
<text text-anchor="middle" x="533.3842" y="-54.6" font-family="Verdana" font-size="14.00" fill="#000000">memProviderInit</text>
</g>
<!-- gitee.com/Ljolan/si&#45;mqtt/corev5/sessionsv5.NewMemProvider -->
<g id="node2" class="node">
<title>gitee.com/Ljolan/si&#45;mqtt/corev5/sessionsv5.NewMemProvider</title>
<ellipse fill="#add8e6" stroke="#000000" stroke-width="1.5" cx="1053.6248" cy="-119.8" rx="63.3458" ry="18"/>
<text text-anchor="middle" x="1053.6248" y="-115.6" font-family="Verdana" font-size="14.00" fill="#000000">NewMemProvider</text>
</g>
<!-- gitee.com/Ljolan/si&#45;mqtt/corev5/sessionsv5.memProviderInit&#45;&gt;gitee.com/Ljolan/si&#45;mqtt/corev5/sessionsv5.NewMemProvider -->
<g id="edge10" class="edge">
<title>gitee.com/Ljolan/si&#45;mqtt/corev5/sessionsv5.memProviderInit&#45;&gt;gitee.com/Ljolan/si&#45;mqtt/corev5/sessionsv5.NewMemProvider</title>
<path fill="none" stroke="#000000" d="M572.6336,-72.3605C610.6772,-85.2887 664.1193,-102.8 674.4792,-102.8 674.4792,-102.8 674.4792,-102.8 896.4792,-102.8 926.6626,-102.8 959.9189,-105.9383 988.0354,-109.5181"/>
<polygon fill="#000000" stroke="#000000" points="987.7745,-113.0139 998.1464,-110.8519 988.6901,-106.074 987.7745,-113.0139"/>
</g>
<!-- gitee.com/Ljolan/si&#45;mqtt/corev5/sessionsv5.Register -->
<g id="node3" class="node">
<title>gitee.com/Ljolan/si&#45;mqtt/corev5/sessionsv5.Register</title>
<ellipse fill="#add8e6" stroke="#000000" stroke-width="1.5" cx="1053.6248" cy="-58.8" rx="30.7938" ry="18"/>
<text text-anchor="middle" x="1053.6248" y="-54.6" font-family="Verdana" font-size="14.00" fill="#000000">Register</text>
</g>
<!-- gitee.com/Ljolan/si&#45;mqtt/corev5/sessionsv5.memProviderInit&#45;&gt;gitee.com/Ljolan/si&#45;mqtt/corev5/sessionsv5.Register -->
<g id="edge11" class="edge">
<title>gitee.com/Ljolan/si&#45;mqtt/corev5/sessionsv5.memProviderInit&#45;&gt;gitee.com/Ljolan/si&#45;mqtt/corev5/sessionsv5.Register</title>
<path fill="none" stroke="#000000" d="M592.0781,-58.8C617.4229,-58.8 647.4115,-58.8 674.4792,-58.8 674.4792,-58.8 674.4792,-58.8 896.4792,-58.8 935.8199,-58.8 980.7006,-58.8 1012.3981,-58.8"/>
<polygon fill="#000000" stroke="#000000" points="1012.6153,-62.3001 1022.6152,-58.8 1012.6152,-55.3001 1012.6153,-62.3001"/>
</g>
<!-- gitee.com/Ljolan/si&#45;mqtt/corev5/sessionsv5.SessionInit -->
<g id="node4" class="node">
<title>gitee.com/Ljolan/si&#45;mqtt/corev5/sessionsv5.SessionInit</title>
<ellipse fill="#add8e6" stroke="#000000" stroke-width="1.5" cx="57.0923" cy="-58.8" rx="39.8951" ry="18"/>
<text text-anchor="middle" x="57.0923" y="-54.6" font-family="Verdana" font-size="14.00" fill="#000000">SessionInit</text>
</g>
<!-- gitee.com/Ljolan/si&#45;mqtt/corev5/sessionsv5.SessionInit&#45;&gt;gitee.com/Ljolan/si&#45;mqtt/corev5/sessionsv5.memProviderInit -->
<g id="edge12" class="edge">
<title>gitee.com/Ljolan/si&#45;mqtt/corev5/sessionsv5.SessionInit&#45;&gt;gitee.com/Ljolan/si&#45;mqtt/corev5/sessionsv5.memProviderInit</title>
<path fill="none" stroke="#000000" d="M96.9062,-58.8C118.6008,-58.8 145.9205,-58.8 170.2893,-58.8 170.2893,-58.8 170.2893,-58.8 392.2893,-58.8 415.8678,-58.8 441.6627,-58.8 464.6738,-58.8"/>
<polygon fill="#000000" stroke="#000000" points="464.6904,-62.3001 474.6904,-58.8 464.6904,-55.3001 464.6904,-62.3001"/>
</g>
<!-- gitee.com/Ljolan/si&#45;mqtt/corev5/sessionsv5.newAckqueue -->
<g id="node5" class="node">
<title>gitee.com/Ljolan/si&#45;mqtt/corev5/sessionsv5.newAckqueue</title>
<ellipse fill="#add8e6" stroke="#000000" stroke-width=".5" cx="533.3842" cy="-1117.8" rx="49.5806" ry="18"/>
<text text-anchor="middle" x="533.3842" y="-1113.6" font-family="Verdana" font-size="14.00" fill="#000000">newAckqueue</text>
</g>
<!-- gitee.com/Ljolan/si&#45;mqtt/corev5/sessionsv5.powerOfTwo64 -->
<g id="node6" class="node">
<title>gitee.com/Ljolan/si&#45;mqtt/corev5/sessionsv5.powerOfTwo64</title>
<ellipse fill="#add8e6" stroke="#000000" stroke-width=".5" cx="1053.6248" cy="-1117.8" rx="55.1364" ry="18"/>
<text text-anchor="middle" x="1053.6248" y="-1113.6" font-family="Verdana" font-size="14.00" fill="#000000">powerOfTwo64</text>
</g>
<!-- gitee.com/Ljolan/si&#45;mqtt/corev5/sessionsv5.newAckqueue&#45;&gt;gitee.com/Ljolan/si&#45;mqtt/corev5/sessionsv5.powerOfTwo64 -->
<g id="edge17" class="edge">
<title>gitee.com/Ljolan/si&#45;mqtt/corev5/sessionsv5.newAckqueue&#45;&gt;gitee.com/Ljolan/si&#45;mqtt/corev5/sessionsv5.powerOfTwo64</title>
<path fill="none" stroke="#000000" d="M583.338,-1117.8C610.3264,-1117.8 644.227,-1117.8 674.4792,-1117.8 674.4792,-1117.8 674.4792,-1117.8 896.4792,-1117.8 926.609,-1117.8 959.9883,-1117.8 988.2062,-1117.8"/>
<polygon fill="#000000" stroke="#000000" points="988.3532,-1121.3001 998.3531,-1117.8 988.3531,-1114.3001 988.3532,-1121.3001"/>
</g>
<!-- gitee.com/Ljolan/si&#45;mqtt/corev5/sessionsv5.roundUpPowerOfTwo64 -->
<g id="node7" class="node">
<title>gitee.com/Ljolan/si&#45;mqtt/corev5/sessionsv5.roundUpPowerOfTwo64</title>
<ellipse fill="#add8e6" stroke="#000000" stroke-width=".5" cx="1053.6248" cy="-1056.8" rx="83.7916" ry="18"/>
<text text-anchor="middle" x="1053.6248" y="-1052.6" font-family="Verdana" font-size="14.00" fill="#000000">roundUpPowerOfTwo64</text>
</g>
<!-- gitee.com/Ljolan/si&#45;mqtt/corev5/sessionsv5.newAckqueue&#45;&gt;gitee.com/Ljolan/si&#45;mqtt/corev5/sessionsv5.roundUpPowerOfTwo64 -->
<g id="edge18" class="edge">
<title>gitee.com/Ljolan/si&#45;mqtt/corev5/sessionsv5.newAckqueue&#45;&gt;gitee.com/Ljolan/si&#45;mqtt/corev5/sessionsv5.roundUpPowerOfTwo64</title>
<path fill="none" stroke="#000000" d="M569.4906,-1105.3091C607.6656,-1092.3007 663.8306,-1073.8 674.4792,-1073.8 674.4792,-1073.8 674.4792,-1073.8 896.4792,-1073.8 922.2859,-1073.8 950.3389,-1071.5059 975.5053,-1068.6031"/>
<polygon fill="#000000" stroke="#000000" points="976.2192,-1072.0425 985.7296,-1067.373 975.3831,-1065.0926 976.2192,-1072.0425"/>
</g>
<!-- (*gitee.com/Ljolan/si&#45;mqtt/corev5/sessionsv5.Manager).Close -->
<g id="node8" class="node">
<title>(*gitee.com/Ljolan/si&#45;mqtt/corev5/sessionsv5.Manager).Close</title>
<ellipse fill="#add8e6" stroke="#000000" stroke-width="1.5" cx="57.0923" cy="-197.8" rx="27" ry="18"/>
<text text-anchor="middle" x="57.0923" y="-193.6" font-family="Verdana" font-size="14.00" fill="#000000">Close</text>
</g>
<!-- (*gitee.com/Ljolan/si&#45;mqtt/corev5/sessionsv5.memProvider).Close -->
<g id="node23" class="node">
<title>(*gitee.com/Ljolan/si&#45;mqtt/corev5/sessionsv5.memProvider).Close</title>
<ellipse fill="#add8e6" stroke="#000000" stroke-width="1.5" cx="533.3842" cy="-466.8" rx="27" ry="18"/>
<text text-anchor="middle" x="533.3842" y="-462.6" font-family="Verdana" font-size="14.00" fill="#000000">Close</text>
</g>
<!-- (*gitee.com/Ljolan/si&#45;mqtt/corev5/sessionsv5.Manager).Close&#45;&gt;(*gitee.com/Ljolan/si&#45;mqtt/corev5/sessionsv5.memProvider).Close -->
<g id="edge13" class="edge">
<title>(*gitee.com/Ljolan/si&#45;mqtt/corev5/sessionsv5.Manager).Close&#45;&gt;(*gitee.com/Ljolan/si&#45;mqtt/corev5/sessionsv5.memProvider).Close</title>
<path fill="none" stroke="#000000" stroke-dasharray="5,2" d="M76.7093,-210.5166C83.6208,-215.6323 91.0821,-221.9458 96.7893,-228.8 132.3136,-271.4632 114.7724,-329.8 170.2893,-329.8 170.2893,-329.8 170.2893,-329.8 392.2893,-329.8 451.9598,-329.8 427.476,-398.6817 473.3842,-436.8 481.4484,-443.4958 491.2582,-449.1914 500.5895,-453.7627"/>
<polygon fill="#000000" stroke="#000000" points="499.1324,-456.9449 509.679,-457.9545 502.0639,-450.5883 499.1324,-456.9449"/>
</g>
<!-- (*gitee.com/Ljolan/si&#45;mqtt/corev5/sessionsv5.Manager).Get -->
<g id="node9" class="node">
<title>(*gitee.com/Ljolan/si&#45;mqtt/corev5/sessionsv5.Manager).Get</title>
<ellipse fill="#add8e6" stroke="#000000" stroke-width="1.5" cx="57.0923" cy="-258.8" rx="27" ry="18"/>
<text text-anchor="middle" x="57.0923" y="-254.6" font-family="Verdana" font-size="14.00" fill="#000000">Get</text>
</g>
<!-- (*gitee.com/Ljolan/si&#45;mqtt/corev5/sessionsv5.memProvider).Get -->
<g id="node24" class="node">
<title>(*gitee.com/Ljolan/si&#45;mqtt/corev5/sessionsv5.memProvider).Get</title>
<ellipse fill="#add8e6" stroke="#000000" stroke-width="1.5" cx="533.3842" cy="-527.8" rx="27" ry="18"/>
<text text-anchor="middle" x="533.3842" y="-523.6" font-family="Verdana" font-size="14.00" fill="#000000">Get</text>
</g>
<!-- (*gitee.com/Ljolan/si&#45;mqtt/corev5/sessionsv5.Manager).Get&#45;&gt;(*gitee.com/Ljolan/si&#45;mqtt/corev5/sessionsv5.memProvider).Get -->
<g id="edge14" class="edge">
<title>(*gitee.com/Ljolan/si&#45;mqtt/corev5/sessionsv5.Manager).Get&#45;&gt;(*gitee.com/Ljolan/si&#45;mqtt/corev5/sessionsv5.memProvider).Get</title>
<path fill="none" stroke="#000000" stroke-dasharray="5,2" d="M76.1754,-271.9957C83.0291,-277.1632 90.5903,-283.3872 96.7893,-289.8 135.3746,-329.7162 114.7724,-390.8 170.2893,-390.8 170.2893,-390.8 170.2893,-390.8 392.2893,-390.8 420.3139,-390.8 468.6482,-493.4866 473.3842,-497.8 481.1336,-504.8577 490.85,-510.6608 500.1925,-515.2192"/>
<polygon fill="#000000" stroke="#000000" points="498.7711,-518.4177 509.3237,-519.363 501.6639,-512.0433 498.7711,-518.4177"/>
</g>
<!-- (*gitee.com/Ljolan/si&#45;mqtt/corev5/sessionsv5.Manager).New -->
<g id="node10" class="node">
<title>(*gitee.com/Ljolan/si&#45;mqtt/corev5/sessionsv5.Manager).New</title>
<ellipse fill="#add8e6" stroke="#000000" stroke-width="1.5" cx="57.0923" cy="-136.8" rx="27" ry="18"/>
<text text-anchor="middle" x="57.0923" y="-132.6" font-family="Verdana" font-size="14.00" fill="#000000">New</text>
</g>
<!-- (*gitee.com/Ljolan/si&#45;mqtt/corev5/sessionsv5.Manager).sessionId -->
<g id="node11" class="node">
<title>(*gitee.com/Ljolan/si&#45;mqtt/corev5/sessionsv5.Manager).sessionId</title>
<ellipse fill="#add8e6" stroke="#000000" stroke-width=".5" cx="533.3842" cy="-136.8" rx="33.9527" ry="18"/>
<text text-anchor="middle" x="533.3842" y="-132.6" font-family="Verdana" font-size="14.00" fill="#000000">sessionId</text>
</g>
<!-- (*gitee.com/Ljolan/si&#45;mqtt/corev5/sessionsv5.Manager).New&#45;&gt;(*gitee.com/Ljolan/si&#45;mqtt/corev5/sessionsv5.Manager).sessionId -->
<g id="edge15" class="edge">
<title>(*gitee.com/Ljolan/si&#45;mqtt/corev5/sessionsv5.Manager).New&#45;&gt;(*gitee.com/Ljolan/si&#45;mqtt/corev5/sessionsv5.Manager).sessionId</title>
<path fill="none" stroke="#000000" d="M84.5408,-136.8C107.4648,-136.8 141.0074,-136.8 170.2893,-136.8 170.2893,-136.8 170.2893,-136.8 392.2893,-136.8 424.6532,-136.8 461.1929,-136.8 488.9777,-136.8"/>
<polygon fill="#000000" stroke="#000000" points="489.171,-140.3001 499.1709,-136.8 489.1709,-133.3001 489.171,-140.3001"/>
</g>
<!-- (*gitee.com/Ljolan/si&#45;mqtt/corev5/sessionsv5.memProvider).New -->
<g id="node25" class="node">
<title>(*gitee.com/Ljolan/si&#45;mqtt/corev5/sessionsv5.memProvider).New</title>
<ellipse fill="#add8e6" stroke="#000000" stroke-width="1.5" cx="533.3842" cy="-405.8" rx="27" ry="18"/>
<text text-anchor="middle" x="533.3842" y="-401.6" font-family="Verdana" font-size="14.00" fill="#000000">New</text>
</g>
<!-- (*gitee.com/Ljolan/si&#45;mqtt/corev5/sessionsv5.Manager).New&#45;&gt;(*gitee.com/Ljolan/si&#45;mqtt/corev5/sessionsv5.memProvider).New -->
<g id="edge16" class="edge">
<title>(*gitee.com/Ljolan/si&#45;mqtt/corev5/sessionsv5.Manager).New&#45;&gt;(*gitee.com/Ljolan/si&#45;mqtt/corev5/sessionsv5.memProvider).New</title>
<path fill="none" stroke="#000000" stroke-dasharray="5,2" d="M76.4971,-149.6985C83.3856,-154.8339 90.8866,-161.1134 96.7893,-167.8 138.9347,-215.5423 106.6061,-290.8 170.2893,-290.8 170.2893,-290.8 170.2893,-290.8 392.2893,-290.8 399.6466,-290.8 470.9833,-351.6723 509.309,-384.842"/>
<polygon fill="#000000" stroke="#000000" points="507.1029,-387.5615 516.9513,-391.4677 511.6883,-382.2725 507.1029,-387.5615"/>
</g>
<!-- (*gitee.com/Ljolan/si&#45;mqtt/corev5/sessionsv5.Manager).Del -->
<g id="node12" class="node">
<title>(*gitee.com/Ljolan/si&#45;mqtt/corev5/sessionsv5.Manager).Del</title>
<ellipse fill="#add8e6" stroke="#000000" stroke-width="1.5" cx="57.0923" cy="-319.8" rx="27" ry="18"/>
<text text-anchor="middle" x="57.0923" y="-315.6" font-family="Verdana" font-size="14.00" fill="#000000">Del</text>
</g>
<!-- (*gitee.com/Ljolan/si&#45;mqtt/corev5/sessionsv5.memProvider).Del -->
<g id="node26" class="node">
<title>(*gitee.com/Ljolan/si&#45;mqtt/corev5/sessionsv5.memProvider).Del</title>
<ellipse fill="#add8e6" stroke="#000000" stroke-width="1.5" cx="533.3842" cy="-588.8" rx="27" ry="18"/>
<text text-anchor="middle" x="533.3842" y="-584.6" font-family="Verdana" font-size="14.00" fill="#000000">Del</text>
</g>
<!-- (*gitee.com/Ljolan/si&#45;mqtt/corev5/sessionsv5.Manager).Del&#45;&gt;(*gitee.com/Ljolan/si&#45;mqtt/corev5/sessionsv5.memProvider).Del -->
<g id="edge20" class="edge">
<title>(*gitee.com/Ljolan/si&#45;mqtt/corev5/sessionsv5.Manager).Del&#45;&gt;(*gitee.com/Ljolan/si&#45;mqtt/corev5/sessionsv5.memProvider).Del</title>
<path fill="none" stroke="#000000" stroke-dasharray="5,2" d="M64.461,-337.266C79.3392,-369.4369 116.2209,-434.8 170.2893,-434.8 170.2893,-434.8 170.2893,-434.8 392.2893,-434.8 458.1397,-434.8 424.2105,-515.0026 473.3842,-558.8 481.2114,-565.7713 490.9508,-571.5488 500.2906,-576.1103"/>
<polygon fill="#000000" stroke="#000000" points="498.8603,-579.3048 509.4115,-580.2656 501.7624,-572.9347 498.8603,-579.3048"/>
</g>
<!-- (*gitee.com/Ljolan/si&#45;mqtt/corev5/sessionsv5.ackqueue).insert -->
<g id="node13" class="node">
<title>(*gitee.com/Ljolan/si&#45;mqtt/corev5/sessionsv5.ackqueue).insert</title>
<ellipse fill="#add8e6" stroke="#000000" stroke-width=".5" cx="533.3842" cy="-799.8" rx="27" ry="18"/>
<text text-anchor="middle" x="533.3842" y="-795.6" font-family="Verdana" font-size="14.00" fill="#000000">insert</text>
</g>
<!-- (*gitee.com/Ljolan/si&#45;mqtt/corev5/sessionsv5.ackqueue).full -->
<g id="node14" class="node">
<title>(*gitee.com/Ljolan/si&#45;mqtt/corev5/sessionsv5.ackqueue).full</title>
<ellipse fill="#add8e6" stroke="#000000" stroke-width=".5" cx="1053.6248" cy="-796.8" rx="27" ry="18"/>
<text text-anchor="middle" x="1053.6248" y="-792.6" font-family="Verdana" font-size="14.00" fill="#000000">full</text>
</g>
<!-- (*gitee.com/Ljolan/si&#45;mqtt/corev5/sessionsv5.ackqueue).insert&#45;&gt;(*gitee.com/Ljolan/si&#45;mqtt/corev5/sessionsv5.ackqueue).full -->
<g id="edge1" class="edge">
<title>(*gitee.com/Ljolan/si&#45;mqtt/corev5/sessionsv5.ackqueue).insert&#45;&gt;(*gitee.com/Ljolan/si&#45;mqtt/corev5/sessionsv5.ackqueue).full</title>
<path fill="none" stroke="#000000" d="M560.4331,-799.8C588.8353,-799.8 634.7962,-799.8 674.4792,-799.8 674.4792,-799.8 674.4792,-799.8 896.4792,-799.8 937.4206,-799.8 984.3511,-798.7695 1016.1869,-797.9164"/>
<polygon fill="#000000" stroke="#000000" points="1016.4745,-801.4099 1026.3743,-797.6357 1016.2816,-794.4126 1016.4745,-801.4099"/>
</g>
<!-- (*gitee.com/Ljolan/si&#45;mqtt/corev5/sessionsv5.ackqueue).grow -->
<g id="node15" class="node">
<title>(*gitee.com/Ljolan/si&#45;mqtt/corev5/sessionsv5.ackqueue).grow</title>
<ellipse fill="#add8e6" stroke="#000000" stroke-width=".5" cx="1053.6248" cy="-857.8" rx="27" ry="18"/>
<text text-anchor="middle" x="1053.6248" y="-853.6" font-family="Verdana" font-size="14.00" fill="#000000">grow</text>
</g>
<!-- (*gitee.com/Ljolan/si&#45;mqtt/corev5/sessionsv5.ackqueue).insert&#45;&gt;(*gitee.com/Ljolan/si&#45;mqtt/corev5/sessionsv5.ackqueue).grow -->
<g id="edge2" class="edge">
<title>(*gitee.com/Ljolan/si&#45;mqtt/corev5/sessionsv5.ackqueue).insert&#45;&gt;(*gitee.com/Ljolan/si&#45;mqtt/corev5/sessionsv5.ackqueue).grow</title>
<path fill="none" stroke="#000000" d="M555.2653,-810.616C582.503,-823.0603 630.7752,-841.8 674.4792,-841.8 674.4792,-841.8 674.4792,-841.8 896.4792,-841.8 937.9944,-841.8 985.363,-847.3952 1017.1443,-851.9681"/>
<polygon fill="#000000" stroke="#000000" points="1016.8891,-855.4684 1027.2938,-853.4702 1017.914,-848.5438 1016.8891,-855.4684"/>
</g>
<!-- (*gitee.com/Ljolan/si&#45;mqtt/corev5/sessionsv5.ackqueue).increment -->
<g id="node16" class="node">
<title>(*gitee.com/Ljolan/si&#45;mqtt/corev5/sessionsv5.ackqueue).increment</title>
<ellipse fill="#add8e6" stroke="#000000" stroke-width=".5" cx="1053.6248" cy="-735.8" rx="36.3366" ry="18"/>
<text text-anchor="middle" x="1053.6248" y="-731.6" font-family="Verdana" font-size="14.00" fill="#000000">increment</text>
</g>
<!-- (*gitee.com/Ljolan/si&#45;mqtt/corev5/sessionsv5.ackqueue).insert&#45;&gt;(*gitee.com/Ljolan/si&#45;mqtt/corev5/sessionsv5.ackqueue).increment -->
<g id="edge4" class="edge">
<title>(*gitee.com/Ljolan/si&#45;mqtt/corev5/sessionsv5.ackqueue).insert&#45;&gt;(*gitee.com/Ljolan/si&#45;mqtt/corev5/sessionsv5.ackqueue).increment</title>
<path fill="none" stroke="#000000" d="M558.0881,-792.1351C586.043,-784.1527 633.0786,-772.8 674.4792,-772.8 674.4792,-772.8 674.4792,-772.8 896.4792,-772.8 937.8301,-772.8 983.7116,-760.5114 1015.1681,-750.0981"/>
<polygon fill="#000000" stroke="#000000" points="1016.5124,-753.3378 1024.8503,-746.801 1014.2559,-746.7115 1016.5124,-753.3378"/>
</g>
<!-- (*gitee.com/Ljolan/si&#45;mqtt/corev5/sessionsv5.ackqueue).index -->
<g id="node17" class="node">
<title>(*gitee.com/Ljolan/si&#45;mqtt/corev5/sessionsv5.ackqueue).index</title>
<ellipse fill="#add8e6" stroke="#000000" stroke-width=".5" cx="1533.2705" cy="-735.8" rx="27" ry="18"/>
<text text-anchor="middle" x="1533.2705" y="-731.6" font-family="Verdana" font-size="14.00" fill="#000000">index</text>
</g>
<!-- (*gitee.com/Ljolan/si&#45;mqtt/corev5/sessionsv5.ackqueue).increment&#45;&gt;(*gitee.com/Ljolan/si&#45;mqtt/corev5/sessionsv5.ackqueue).index -->
<g id="edge3" class="edge">
<title>(*gitee.com/Ljolan/si&#45;mqtt/corev5/sessionsv5.ackqueue).increment&#45;&gt;(*gitee.com/Ljolan/si&#45;mqtt/corev5/sessionsv5.ackqueue).index</title>
<path fill="none" stroke="#000000" d="M1089.826,-735.8C1121.6769,-735.8 1169.3015,-735.8 1210.7705,-735.8 1210.7705,-735.8 1210.7705,-735.8 1432.7705,-735.8 1453.6753,-735.8 1477.026,-735.8 1495.9542,-735.8"/>
<polygon fill="#000000" stroke="#000000" points="1495.9713,-739.3001 1505.9713,-735.8 1495.9712,-732.3001 1495.9713,-739.3001"/>
</g>
<!-- (*gitee.com/Ljolan/si&#45;mqtt/corev5/sessionsv5.ackqueue).Wait -->
<g id="node18" class="node">
<title>(*gitee.com/Ljolan/si&#45;mqtt/corev5/sessionsv5.ackqueue).Wait</title>
<ellipse fill="#add8e6" stroke="#000000" stroke-width="1.5" cx="57.0923" cy="-799.8" rx="27" ry="18"/>
<text text-anchor="middle" x="57.0923" y="-795.6" font-family="Verdana" font-size="14.00" fill="#000000">Wait</text>
</g>
<!-- (*gitee.com/Ljolan/si&#45;mqtt/corev5/sessionsv5.ackqueue).Wait&#45;&gt;(*gitee.com/Ljolan/si&#45;mqtt/corev5/sessionsv5.ackqueue).insert -->
<g id="edge5" class="edge">
<title>(*gitee.com/Ljolan/si&#45;mqtt/corev5/sessionsv5.ackqueue).Wait&#45;&gt;(*gitee.com/Ljolan/si&#45;mqtt/corev5/sessionsv5.ackqueue).insert</title>
<path fill="none" stroke="#000000" d="M84.5408,-799.8C107.4648,-799.8 141.0074,-799.8 170.2893,-799.8 170.2893,-799.8 170.2893,-799.8 392.2893,-799.8 427.4769,-799.8 467.6007,-799.8 496.0418,-799.8"/>
<polygon fill="#000000" stroke="#000000" points="496.3354,-803.3001 506.3354,-799.8 496.3354,-796.3001 496.3354,-803.3001"/>
</g>
<!-- (*gitee.com/Ljolan/si&#45;mqtt/corev5/sessionsv5.ackqueue).Acked -->
<g id="node19" class="node">
<title>(*gitee.com/Ljolan/si&#45;mqtt/corev5/sessionsv5.ackqueue).Acked</title>
<ellipse fill="#add8e6" stroke="#000000" stroke-width="1.5" cx="57.0923" cy="-737.8" rx="27" ry="18"/>
<text text-anchor="middle" x="57.0923" y="-733.6" font-family="Verdana" font-size="14.00" fill="#000000">Acked</text>
</g>
<!-- (*gitee.com/Ljolan/si&#45;mqtt/corev5/sessionsv5.ackqueue).empty -->
<g id="node20" class="node">
<title>(*gitee.com/Ljolan/si&#45;mqtt/corev5/sessionsv5.ackqueue).empty</title>
<ellipse fill="#add8e6" stroke="#000000" stroke-width=".5" cx="1053.6248" cy="-674.8" rx="27" ry="18"/>
<text text-anchor="middle" x="1053.6248" y="-670.6" font-family="Verdana" font-size="14.00" fill="#000000">empty</text>
</g>
<!-- (*gitee.com/Ljolan/si&#45;mqtt/corev5/sessionsv5.ackqueue).Acked&#45;&gt;(*gitee.com/Ljolan/si&#45;mqtt/corev5/sessionsv5.ackqueue).empty -->
<g id="edge6" class="edge">
<title>(*gitee.com/Ljolan/si&#45;mqtt/corev5/sessionsv5.ackqueue).Acked&#45;&gt;(*gitee.com/Ljolan/si&#45;mqtt/corev5/sessionsv5.ackqueue).empty</title>
<path fill="none" stroke="#000000" d="M84.0428,-740.7789C106.9535,-743.0534 140.7374,-745.8 170.2893,-745.8 170.2893,-745.8 170.2893,-745.8 859.4792,-745.8 861.5855,-745.8 965.0944,-707.5864 1020.0873,-687.2288"/>
<polygon fill="#000000" stroke="#000000" points="1021.5933,-690.4034 1029.7556,-683.6486 1019.1625,-683.839 1021.5933,-690.4034"/>
</g>
<!-- (*gitee.com/Ljolan/si&#45;mqtt/corev5/sessionsv5.ackqueue).removeHead -->
<g id="node21" class="node">
<title>(*gitee.com/Ljolan/si&#45;mqtt/corev5/sessionsv5.ackqueue).removeHead</title>
<ellipse fill="#add8e6" stroke="#000000" stroke-width=".5" cx="533.3842" cy="-701.8" rx="44.9064" ry="18"/>
<text text-anchor="middle" x="533.3842" y="-697.6" font-family="Verdana" font-size="14.00" fill="#000000">removeHead</text>
</g>
<!-- (*gitee.com/Ljolan/si&#45;mqtt/corev5/sessionsv5.ackqueue).Acked&#45;&gt;(*gitee.com/Ljolan/si&#45;mqtt/corev5/sessionsv5.ackqueue).removeHead -->
<g id="edge9" class="edge">
<title>(*gitee.com/Ljolan/si&#45;mqtt/corev5/sessionsv5.ackqueue).Acked&#45;&gt;(*gitee.com/Ljolan/si&#45;mqtt/corev5/sessionsv5.ackqueue).removeHead</title>
<path fill="none" stroke="#000000" d="M81.9997,-730.1055C104.7576,-723.7613 139.4585,-715.8 170.2893,-715.8 170.2893,-715.8 170.2893,-715.8 392.2893,-715.8 421.7352,-715.8 454.4695,-712.7432 480.9899,-709.4864"/>
<polygon fill="#000000" stroke="#000000" points="481.723,-712.9213 491.2004,-708.1855 480.8382,-705.9775 481.723,-712.9213"/>
</g>
<!-- (*gitee.com/Ljolan/si&#45;mqtt/corev5/sessionsv5.ackqueue).removeHead&#45;&gt;(*gitee.com/Ljolan/si&#45;mqtt/corev5/sessionsv5.ackqueue).increment -->
<g id="edge8" class="edge">
<title>(*gitee.com/Ljolan/si&#45;mqtt/corev5/sessionsv5.ackqueue).removeHead&#45;&gt;(*gitee.com/Ljolan/si&#45;mqtt/corev5/sessionsv5.ackqueue).increment</title>
<path fill="none" stroke="#000000" d="M574.285,-709.3554C602.368,-713.8957 640.5541,-718.8 674.4792,-718.8 674.4792,-718.8 674.4792,-718.8 859.4792,-718.8 910.727,-718.8 969.2951,-724.751 1008.5814,-729.6111"/>
<polygon fill="#000000" stroke="#000000" points="1008.2723,-733.0998 1018.6326,-730.8829 1009.1511,-726.1552 1008.2723,-733.0998"/>
</g>
<!-- (*gitee.com/Ljolan/si&#45;mqtt/corev5/sessionsv5.ackqueue).removeHead&#45;&gt;(*gitee.com/Ljolan/si&#45;mqtt/corev5/sessionsv5.ackqueue).empty -->
<g id="edge7" class="edge">
<title>(*gitee.com/Ljolan/si&#45;mqtt/corev5/sessionsv5.ackqueue).removeHead&#45;&gt;(*gitee.com/Ljolan/si&#45;mqtt/corev5/sessionsv5.ackqueue).empty</title>
<path fill="none" stroke="#000000" d="M574.285,-694.2446C602.368,-689.7043 640.5541,-684.8 674.4792,-684.8 674.4792,-684.8 674.4792,-684.8 896.4792,-684.8 937.6188,-684.8 984.6945,-681.3444 1016.511,-678.4959"/>
<polygon fill="#000000" stroke="#000000" points="1017.0484,-681.9613 1026.6853,-677.559 1016.4065,-674.9908 1017.0484,-681.9613"/>
</g>
<!-- (*gitee.com/Ljolan/si&#45;mqtt/corev5/sessionsv5.ackqueue).Acked02 -->
<g id="node22" class="node">
<title>(*gitee.com/Ljolan/si&#45;mqtt/corev5/sessionsv5.ackqueue).Acked02</title>
<ellipse fill="#add8e6" stroke="#000000" stroke-width="1.5" cx="57.0923" cy="-675.8" rx="33.1848" ry="18"/>
<text text-anchor="middle" x="57.0923" y="-671.6" font-family="Verdana" font-size="14.00" fill="#000000">Acked02</text>
</g>
<!-- (*gitee.com/Ljolan/si&#45;mqtt/corev5/sessionsv5.ackqueue).Acked02&#45;&gt;(*gitee.com/Ljolan/si&#45;mqtt/corev5/sessionsv5.ackqueue).empty -->
<g id="edge23" class="edge">
<title>(*gitee.com/Ljolan/si&#45;mqtt/corev5/sessionsv5.ackqueue).Acked02&#45;&gt;(*gitee.com/Ljolan/si&#45;mqtt/corev5/sessionsv5.ackqueue).empty</title>
<path fill="none" stroke="#000000" d="M87.6319,-668.2707C110.2948,-663.3382 142.0325,-657.8 170.2893,-657.8 170.2893,-657.8 170.2893,-657.8 896.4792,-657.8 938.0218,-657.8 985.3854,-663.7449 1017.1581,-668.6036"/>
<polygon fill="#000000" stroke="#000000" points="1016.8821,-672.1032 1027.3045,-670.1996 1017.9698,-665.1882 1016.8821,-672.1032"/>
</g>
<!-- (*gitee.com/Ljolan/si&#45;mqtt/corev5/sessionsv5.ackqueue).Acked02&#45;&gt;(*gitee.com/Ljolan/si&#45;mqtt/corev5/sessionsv5.ackqueue).removeHead -->
<g id="edge24" class="edge">
<title>(*gitee.com/Ljolan/si&#45;mqtt/corev5/sessionsv5.ackqueue).Acked02&#45;&gt;(*gitee.com/Ljolan/si&#45;mqtt/corev5/sessionsv5.ackqueue).removeHead</title>
<path fill="none" stroke="#000000" d="M89.2147,-680.5928C111.8304,-683.557 142.844,-686.8 170.2893,-686.8 170.2893,-686.8 170.2893,-686.8 392.2893,-686.8 421.8651,-686.8 454.7338,-690.0993 481.3013,-693.6033"/>
<polygon fill="#000000" stroke="#000000" points="481.1435,-697.1142 491.5257,-695.0022 482.0925,-690.1788 481.1435,-697.1142"/>
</g>
<!-- (*gitee.com/Ljolan/si&#45;mqtt/corev5/sessionsv5.session).Init -->
<g id="node27" class="node">
<title>(*gitee.com/Ljolan/si&#45;mqtt/corev5/sessionsv5.session).Init</title>
<ellipse fill="#add8e6" stroke="#000000" stroke-width="1.5" cx="57.0923" cy="-1065.8" rx="27" ry="18"/>
<text text-anchor="middle" x="57.0923" y="-1061.6" font-family="Verdana" font-size="14.00" fill="#000000">Init</text>
</g>
<!-- (*gitee.com/Ljolan/si&#45;mqtt/corev5/sessionsv5.session).Init&#45;&gt;gitee.com/Ljolan/si&#45;mqtt/corev5/sessionsv5.newAckqueue -->
<g id="edge19" class="edge">
<title>(*gitee.com/Ljolan/si&#45;mqtt/corev5/sessionsv5.session).Init&#45;&gt;gitee.com/Ljolan/si&#45;mqtt/corev5/sessionsv5.newAckqueue</title>
<path fill="none" stroke="#000000" d="M81.0163,-1074.6024C103.6801,-1082.1452 138.8335,-1091.8 170.2893,-1091.8 170.2893,-1091.8 170.2893,-1091.8 392.2893,-1091.8 423.2104,-1091.8 457.3214,-1097.9139 484.2574,-1104.2122"/>
<polygon fill="#000000" stroke="#000000" points="483.6651,-1107.6699 494.208,-1106.6228 485.3132,-1100.8667 483.6651,-1107.6699"/>
</g>
<!-- (*gitee.com/Ljolan/si&#45;mqtt/corev5/sessionsv5.session).ID -->
<g id="node28" class="node">
<title>(*gitee.com/Ljolan/si&#45;mqtt/corev5/sessionsv5.session).ID</title>
<ellipse fill="#add8e6" stroke="#000000" stroke-width="1.5" cx="57.0923" cy="-1004.8" rx="27" ry="18"/>
<text text-anchor="middle" x="57.0923" y="-1000.6" font-family="Verdana" font-size="14.00" fill="#000000">ID</text>
</g>
<!-- (*gitee.com/Ljolan/si&#45;mqtt/corev5/sessionsv5.session).Cmsg -->
<g id="node29" class="node">
<title>(*gitee.com/Ljolan/si&#45;mqtt/corev5/sessionsv5.session).Cmsg</title>
<ellipse fill="#add8e6" stroke="#000000" stroke-width="1.5" cx="533.3842" cy="-973.8" rx="27" ry="18"/>
<text text-anchor="middle" x="533.3842" y="-969.6" font-family="Verdana" font-size="14.00" fill="#000000">Cmsg</text>
</g>
<!-- (*gitee.com/Ljolan/si&#45;mqtt/corev5/sessionsv5.session).ID&#45;&gt;(*gitee.com/Ljolan/si&#45;mqtt/corev5/sessionsv5.session).Cmsg -->
<g id="edge21" class="edge">
<title>(*gitee.com/Ljolan/si&#45;mqtt/corev5/sessionsv5.session).ID&#45;&gt;(*gitee.com/Ljolan/si&#45;mqtt/corev5/sessionsv5.session).Cmsg</title>
<path fill="none" stroke="#000000" d="M84.0328,-1001.4487C106.9374,-998.8899 140.7179,-995.8 170.2893,-995.8 170.2893,-995.8 170.2893,-995.8 392.2893,-995.8 428.7214,-995.8 469.82,-988.5506 498.2227,-982.3747"/>
<polygon fill="#000000" stroke="#000000" points="499.0889,-985.7674 508.0802,-980.1633 497.5566,-978.9372 499.0889,-985.7674"/>
</g>
<!-- (*gitee.com/Ljolan/si&#45;mqtt/corev5/sessionsv5.session).IDs -->
<g id="node30" class="node">
<title>(*gitee.com/Ljolan/si&#45;mqtt/corev5/sessionsv5.session).IDs</title>
<ellipse fill="#add8e6" stroke="#000000" stroke-width="1.5" cx="57.0923" cy="-943.8" rx="27" ry="18"/>
<text text-anchor="middle" x="57.0923" y="-939.6" font-family="Verdana" font-size="14.00" fill="#000000">IDs</text>
</g>
<!-- (*gitee.com/Ljolan/si&#45;mqtt/corev5/sessionsv5.session).IDs&#45;&gt;(*gitee.com/Ljolan/si&#45;mqtt/corev5/sessionsv5.session).Cmsg -->
<g id="edge22" class="edge">
<title>(*gitee.com/Ljolan/si&#45;mqtt/corev5/sessionsv5.session).IDs&#45;&gt;(*gitee.com/Ljolan/si&#45;mqtt/corev5/sessionsv5.session).Cmsg</title>
<path fill="none" stroke="#000000" d="M84.0428,-946.7789C106.9535,-949.0534 140.7374,-951.8 170.2893,-951.8 170.2893,-951.8 170.2893,-951.8 392.2893,-951.8 428.7214,-951.8 469.82,-959.0494 498.2227,-965.2253"/>
<polygon fill="#000000" stroke="#000000" points="497.5566,-968.6628 508.0802,-967.4367 499.0889,-961.8326 497.5566,-968.6628"/>
</g>
</g>
</svg>
